<svg xmlns:dc="http://purl.org/dc/elements/1.1/" xmlns:cc="http://creativecommons.org/ns#" xmlns:rdf="http://www.w3.org/1999/02/22-rdf-syntax-ns#" xmlns:svg="http://www.w3.org/2000/svg" xmlns="http://www.w3.org/2000/svg" xmlns:xlink="http://www.w3.org/1999/xlink" id="svg318639" viewBox="0 0 1024 768" height="768px" width="1024px" version="1.1">
  <metadata id="metadata318645">
    <rdf:rdf>
      <cc:work rdf:about="">
        <dc:format>image/svg+xml</dc:format>
        <dc:type rdf:resource="http://purl.org/dc/dcmitype/StillImage"></dc:type>
      </cc:work>
    </rdf:rdf>
  </metadata>
  <defs id="defs318643"></defs>
  <linearGradient spreadMethod="pad" y2="30%" x2="-10%" y1="120%" x1="30%" id="3d_gradient2-logo-31fcde60-5a34-486e-b04b-02c15fa343c4">
    <stop id="stop318620" stop-opacity="1" stop-color="#ffffff" offset="0%"></stop>
    <stop id="stop318622" stop-opacity="1" stop-color="#000000" offset="100%"></stop>
  </linearGradient>
  <linearGradient gradientTransform="rotate(-30)" spreadMethod="pad" y2="30%" x2="-10%" y1="120%" x1="30%" id="3d_gradient3-logo-31fcde60-5a34-486e-b04b-02c15fa343c4">
    <stop id="stop318625" stop-opacity="1" stop-color="#ffffff" offset="0%"></stop>
    <stop id="stop318627" stop-opacity="1" stop-color="#cccccc" offset="50%"></stop>
    <stop id="stop318629" stop-opacity="1" stop-color="#000000" offset="100%"></stop>
  </linearGradient>
  <g id="logo-group">
    <image xlink:href="" id="container" x="272" y="144" width="480" height="480" transform="translate(0 0)" style="display: none;"></image>
    <g id="logo-center" transform="translate(5.684341886080802e-14 0)">
      <image xlink:href="" id="icon_container" x="0" y="0" style="display: none;"></image>
      <g id="slogan" style="font-style:normal;font-weight:700;font-size:32px;line-height:1;font-family:Caveat;font-variant-ligatures:none;text-align:center;text-anchor:middle" transform="translate(0 0)"></g>
      <g id="title" style="font-style:normal;font-weight:400;font-size:72px;line-height:1;font-family:'Brandmark Dots 2 Color';font-variant-ligatures:normal;text-align:center;text-anchor:middle" transform="translate(0 0)">
        <g id="path318648" aria-label="A" transform="translate(0 324.12519999999995) translate(245.88915730000008 14.784800000000004) scale(1.67) translate(-351.74094 52.56)"> <path class="c1" d="M127.50635,124.21487v1.36816h-22.32178v-1.36816c2.16016,0,3.45654-0.07178,4.10449-1.00781 c0.43213-0.72021,0.35986-1.80029-0.72021-4.46484L96.11182,87.20364l-12.5293,30.96289 c-1.00781,2.59229-1.2959,4.104-0.64795,4.82422c0.72021,0.79199,2.16016,1.22412,4.96875,1.22412v1.36816H72.49365v-1.36816 c5.04053,0,6.26465-1.58398,8.13672-5.76025L99.7124,73.01859h1.65576l18.00146,44.13965 C121.45801,121.91068,123.18604,124.21487,127.50635,124.21487z" transform="translate(279.24729 -125.57859)" stroke-width="0" stroke-linejoin="miter" stroke-miterlimit="2" fill="#3942b2" stroke="#3942b2"></path> <polygon class="c3" points="96.11182,104.62943 100.50439,110.38968 96.11182,116.2222 91.64746,110.38968 " transform="translate(279.24729 -125.57859)" stroke-width="0" stroke-linejoin="miter" stroke-miterlimit="2" fill="#525a4b" stroke="#525a4b"></polygon> </g>
        <g id="path318650" aria-label="m" transform="translate(0 324.12519999999995) translate(337.5627552000001 17.189600000000013) scale(1.67) translate(-406.63531 51.12)"> <path class="c1" d="M116.09277,74.45853h16.12988v1.36816c-3.81641,0-6.12109,1.36816-6.12109,5.47266v37.44287 c0,4.10449,2.30469,5.47266,6.12109,5.47266v1.36816h-22.25v-1.36816c3.81641,0,6.12012-1.36816,6.12012-5.47266V80.29105 l-18.28906,45.29199h-2.37598L76.20117,83.4595c-2.37598-5.11279-4.53613-7.63281-8.42383-7.63281v-1.36816h14.76074 l18.07324,38.30762L116.09277,74.45853z" transform="translate(338.85797 -125.57853)" stroke-width="0" stroke-linejoin="miter" stroke-miterlimit="2" fill="#3942b2" stroke="#3942b2"></path> <polygon class="c3" points="79.22559,120.39847 74.18555,127.02298 69.14453,120.39847 74.18555,113.77396 " transform="translate(338.85797 -125.57853)" stroke-width="0" stroke-linejoin="miter" stroke-miterlimit="2" fill="#525a4b" stroke="#525a4b"></polygon> </g>
        <g id="path318652" aria-label="a" transform="translate(0 324.12519999999995) translate(450.9077427000001 14.784800000000004) scale(1.67) translate(-474.50656 52.56)"> <path class="c1" d="M127.50635,124.21487v1.36816h-22.32178v-1.36816c2.16016,0,3.45654-0.07178,4.10449-1.00781 c0.43213-0.72021,0.35986-1.80029-0.72021-4.46484L96.11182,87.20364l-12.5293,30.96289 c-1.00781,2.59229-1.2959,4.104-0.64795,4.82422c0.72021,0.79199,2.16016,1.22412,4.96875,1.22412v1.36816H72.49365v-1.36816 c5.04053,0,6.26465-1.58398,8.13672-5.76025L99.7124,73.01859h1.65576l18.00146,44.13965 C121.45801,121.91068,123.18604,124.21487,127.50635,124.21487z" transform="translate(402.01291 -125.57859)" stroke-width="0" stroke-linejoin="miter" stroke-miterlimit="2" fill="#3942b2" stroke="#3942b2"></path> <polygon class="c3" points="96.11182,104.62943 100.50439,110.38968 96.11182,116.2222 91.64746,110.38968 " transform="translate(402.01291 -125.57859)" stroke-width="0" stroke-linejoin="miter" stroke-miterlimit="2" fill="#525a4b" stroke="#525a4b"></polygon> </g>
        <g id="path318654" aria-label="r" transform="translate(0 324.12519999999995) translate(546.3952198000002 17.189600000000013) scale(1.67) translate(-531.68469 51.12)"> <path class="c1" d="M124.66211,124.21465v1.36816h-15.98535l-16.12891-24.98633h1.08008 c7.34473,0,11.80859-4.75244,11.80859-12.67285c0-5.90479-2.08789-11.16113-7.05664-11.16113h-2.80762 c-3.3125,0-4.32031,2.52051-4.32031,5.04053v36.93896c0,4.10449,2.23145,5.47266,6.12012,5.47266v1.36816H75.33789v-1.36816 c3.88867,0,6.12109-1.36816,6.12109-5.47266V81.29912c0-4.10449-2.23242-5.47266-6.12109-5.47266V74.4583h24.12207 c10.65723,0,16.27344,5.90479,16.27344,12.96143c0,7.34424-4.96777,12.09668-12.09668,13.89697l11.52051,16.99365 C117.67773,121.98271,121.49414,124.21465,124.66211,124.21465z" transform="translate(456.3468 -125.5783)" stroke-width="0" stroke-linejoin="miter" stroke-miterlimit="2" fill="#3942b2" stroke="#3942b2"></path> </g>
        <g id="path318656" aria-label="u" transform="translate(0 324.12519999999995) translate(625.2463573 17.189600000000013) scale(1.67) translate(-578.90094 51.12)"> <path class="c1" d="M75.62598,75.82669v-1.36816h22.25v1.36816c-3.81641,0-6.12109,1.36816-6.12109,5.47266v23.25781 c0,15.3374,4.82422,19.9458,11.95313,19.9458v2.44775c-0.79199,0-1.58398,0.07227-2.44824,0.07227 c-14.11328,0-19.51367-10.00879-19.51367-22.46582V81.29935C81.74609,77.19485,79.51367,75.82669,75.62598,75.82669z" transform="translate(503.27496 -124.13859)" stroke-width="0" stroke-linejoin="miter" stroke-miterlimit="2" fill="#3942b2" stroke="#3942b2"></path> <polygon class="c3" points="119.33301,86.26761 114.29297,79.6431 119.33301,73.01859 124.37402,79.6431 " transform="translate(503.27496 -124.13859)" stroke-width="0" stroke-linejoin="miter" stroke-miterlimit="2" fill="#525a4b" stroke="#525a4b"></polygon> </g>
        <g id="path318658" aria-label="f" transform="translate(0 324.12519999999995) translate(716.1872426999998 17.189600000000013) scale(1.67) translate(-633.35656 51.12)"> <path class="c1" d="M103.70801,124.21487v1.36816h-22.25v-1.36816c3.88867,0,6.12109-1.36816,6.12109-5.47266V81.29935 c0-4.10449-2.23242-5.47266-6.12109-5.47266v-1.36816h36.21973l0.86426,11.44922l-1.36816,0.21582 c-1.5127-6.12061-4.53711-9.50488-11.08887-9.50488h-3.96094c-2.44824,0-4.53613,0.86426-4.53613,4.68066v37.44287 C97.58789,122.84671,99.8916,124.21487,103.70801,124.21487z" transform="translate(551.89855 -125.57853)" stroke-width="0" stroke-linejoin="miter" stroke-miterlimit="2" fill="#3942b2" stroke="#3942b2"></path> <polygon class="c3" points="102.98828,100.66898 107.88477,94.18851 112.85352,100.66898 107.88477,107.07767 " transform="translate(551.89855 -125.57853)" stroke-width="0" stroke-linejoin="miter" stroke-miterlimit="2" fill="#525a4b" stroke="#525a4b"></polygon> </g>
            </g>
      <image xlink:href="" id="icon" x="0" y="0" style="display: none;"></image>
    </g>
  </g>
</svg>