<svg xmlns:dc="http://purl.org/dc/elements/1.1/" xmlns:cc="http://creativecommons.org/ns#" xmlns:rdf="http://www.w3.org/1999/02/22-rdf-syntax-ns#" xmlns:svg="http://www.w3.org/2000/svg" xmlns="http://www.w3.org/2000/svg" xmlns:xlink="http://www.w3.org/1999/xlink" id="svg119298" viewBox="0 0 1024 768" height="768px" width="1024px" version="1.1">
  <metadata id="metadata119304">
    <rdf:rdf>
      <cc:work rdf:about="">
        <dc:format>image/svg+xml</dc:format>
        <dc:type rdf:resource="http://purl.org/dc/dcmitype/StillImage"></dc:type>
      </cc:work>
    </rdf:rdf>
  </metadata>
  <defs id="defs119302"></defs>
  <linearGradient spreadMethod="pad" y2="30%" x2="-10%" y1="120%" x1="30%" id="3d_gradient2-logo-5c5ee137-c350-41b8-960f-94c46cfe6bda">
    <stop id="stop119279" stop-opacity="1" stop-color="#ffffff" offset="0%"></stop>
    <stop id="stop119281" stop-opacity="1" stop-color="#000000" offset="100%"></stop>
  </linearGradient>
  <linearGradient gradientTransform="rotate(-30)" spreadMethod="pad" y2="30%" x2="-10%" y1="120%" x1="30%" id="3d_gradient3-logo-5c5ee137-c350-41b8-960f-94c46cfe6bda">
    <stop id="stop119284" stop-opacity="1" stop-color="#ffffff" offset="0%"></stop>
    <stop id="stop119286" stop-opacity="1" stop-color="#cccccc" offset="50%"></stop>
    <stop id="stop119288" stop-opacity="1" stop-color="#000000" offset="100%"></stop>
  </linearGradient>
  <g id="logo-group">
    <image xlink:href="" id="container" x="272" y="144" width="480" height="480" transform="translate(0 0)" style="display: none;"></image>
    <g id="logo-center" transform="translate(5.684341886080802e-14 0)">
      <image xlink:href="" id="icon_container" x="0" y="0" style="display: none;"></image>
      <g id="slogan" style="font-style:normal;font-weight:600;font-size:32px;line-height:1;font-family:Raleway;font-variant-ligatures:none;text-align:center;text-anchor:middle" transform="translate(0 0)"></g>
      <g id="title" style="font-style:normal;font-weight:700;font-size:72px;line-height:1;font-family:'Comfortaa Bold Alt1';font-variant-ligatures:none;text-align:center;text-anchor:middle" transform="translate(0 0)">
        <path id="path119307" style="font-style:normal;font-weight:700;font-size:72px;line-height:1;font-family:'Comfortaa Bold Alt1';font-variant-ligatures:none;text-align:center;text-anchor:middle" d="m 422.95175,-3.672 c 0,-0.432 -0.144,-0.936 -0.36,-1.584 l -20.304,-48.456 c -0.648,-1.656 -1.8,-2.52 -3.528,-2.52 -1.656,0 -2.808,0.864 -3.528,2.52 l -20.232,48.312 c -0.288,0.648 -0.36,1.224 -0.36,1.656 0,1.08 0.288,1.944 1.008,2.664 0.72,0.72 1.584,1.08 2.664,1.08 0.72,0 1.368,-0.144 2.016,-0.576 0.576,-0.432 1.08,-0.936 1.44,-1.728 l 3.528,-8.712 c 0.36,-0.864 1.008,-1.368 2.016,-1.368 h 22.896 c 1.008,0 1.656,0.504 2.016,1.368 l 3.528,8.712 c 0.216,0.72 0.72,1.296 1.368,1.728 0.648,0.432 1.296,0.576 2.088,0.576 1.008,0 1.944,-0.36 2.664,-1.08 0.72,-0.72 1.08,-1.584 1.08,-2.592 z m -14.976,-17.856 c 0.288,0.72 0.216,1.44 -0.216,2.016 -0.432,0.648 -1.008,0.936 -1.8,0.936 h -14.4 c -0.792,0 -1.368,-0.288 -1.8,-0.936 -0.432,-0.648 -0.504,-1.296 -0.216,-2.016 l 7.344,-17.784 c 0.36,-0.864 1.008,-1.296 1.944,-1.296 1.008,0 1.656,0.432 2.016,1.368 z" stroke-width="0" stroke-linejoin="miter" stroke-miterlimit="2" fill="#525252" stroke="#525252" transform="translate(0 324.361) translate(251.71129499999995 12.324560000000005) scale(1.67) translate(-374.63975 56.232)"></path>
        <path id="path119309" style="font-style:normal;font-weight:700;font-size:72px;line-height:1;font-family:'Comfortaa Bold Alt1';font-variant-ligatures:none;text-align:center;text-anchor:middle" d="m 481.92875,-35.64 c -2.592,-2.736 -5.976,-4.104 -10.08,-4.104 -14.904,0 -22.68,0 -23.4,0 h -0.576 -13.968 c -0.936,0 -1.8,0.36 -2.448,1.008 -0.72,0.72 -1.008,1.512 -1.008,2.448 0,0.072 0,0.216 0,0.36 0,0.144 0,0.216 0,0.288 V -3.6 c 0,1.08 0.288,1.944 1.008,2.664 0.72,0.72 1.584,1.008 2.664,1.008 1.08,0 1.944,-0.288 2.664,-1.008 0.648,-0.72 1.008,-1.584 1.008,-2.664 v -20.304 c 0,-2.664 0.792,-4.824 2.376,-6.624 1.584,-1.728 3.672,-2.592 6.264,-2.592 2.448,0 4.392,0.792 5.832,2.304 1.44,1.512 2.232,3.744 2.232,6.624 V -3.6 c 0,1.08 0.288,1.944 1.008,2.664 0.72,0.72 1.584,1.008 2.664,1.008 1.08,0 1.944,-0.288 2.664,-1.008 0.648,-0.72 1.008,-1.584 1.008,-2.664 v -20.304 c 0,-2.664 0.792,-4.824 2.376,-6.624 1.584,-1.728 3.672,-2.592 6.192,-2.592 2.448,0 4.392,0.792 5.832,2.304 1.44,1.512 2.232,3.744 2.232,6.624 V -3.6 c 0,1.08 0.288,1.944 1.008,2.664 0.72,0.72 1.584,1.008 2.664,1.008 1.08,0 1.944,-0.288 2.664,-1.008 0.648,-0.72 1.008,-1.584 1.008,-2.664 v -20.592 c 0,-4.896 -1.296,-8.712 -3.888,-11.448 z" stroke-width="0" stroke-linejoin="miter" stroke-miterlimit="2" fill="#616161" stroke="#616161" transform="translate(0 324.361) translate(356.60232499999995 39.85952) scale(1.67) translate(-430.44875 39.744)"></path>
        <path id="path119311" style="font-style:normal;font-weight:700;font-size:72px;line-height:1;font-family:'Comfortaa Bold Alt1';font-variant-ligatures:none;text-align:center;text-anchor:middle" d="m 535.60475,-19.656 c 0,-3.672 -0.936,-7.128 -2.664,-10.152 -1.728,-3.024 -4.104,-5.472 -7.128,-7.2 -3.024,-1.728 -6.336,-2.664 -10.008,-2.664 -3.744,0 -7.128,0.936 -10.152,2.664 -3.024,1.728 -5.4,4.176 -7.128,7.2 -1.728,3.024 -2.592,6.408 -2.592,10.152 0,3.744 0.792,7.2 2.376,10.224 1.584,3.024 3.816,5.4 6.624,7.128 2.88,1.8 5.976,2.664 9.432,2.664 h 0.576 17.208 c 0.936,0 1.728,-0.36 2.448,-1.008 0.648,-0.648 1.008,-1.44 1.008,-2.448 V -3.6 Z m -30.96,6.912 c -1.152,-2.016 -1.656,-4.32 -1.656,-6.912 0,-2.52 0.504,-4.824 1.656,-6.912 1.152,-2.016 2.664,-3.672 4.608,-4.824 1.944,-1.152 4.104,-1.8 6.552,-1.8 2.376,0 4.536,0.648 6.48,1.8 1.944,1.152 3.456,2.808 4.608,4.824 1.08,2.088 1.656,4.392 1.656,6.912 0,2.592 -0.576,4.896 -1.656,6.912 -1.152,2.016 -2.664,3.672 -4.608,4.824 -1.944,1.152 -4.104,1.728 -6.48,1.728 -2.448,0 -4.608,-0.576 -6.552,-1.728 -1.944,-1.152 -3.456,-2.808 -4.608,-4.824 z" stroke-width="0" stroke-linejoin="miter" stroke-miterlimit="2" fill="#6f6f6f" stroke="#6f6f6f" transform="translate(0 324.361) translate(477.6506049999999 39.97976000000001) scale(1.67) translate(-495.93275 39.672)"></path>
        <path id="path119313" style="font-style:normal;font-weight:700;font-size:72px;line-height:1;font-family:'Comfortaa Bold Alt1';font-variant-ligatures:none;text-align:center;text-anchor:middle" d="m 571.877,-38.664 c -1.44,-0.72 -3.456,-1.152 -5.976,-1.152 -2.448,0 -4.68,0.504 -6.768,1.44 -2.16,1.008 -3.888,2.304 -5.328,3.96 v -1.368 c 0,-2.376 -1.224,-3.6 -3.6,-3.6 -1.152,0 -2.088,0.36 -2.664,0.936 -0.648,0.648 -0.936,1.512 -0.936,2.664 V -3.6 c 0,1.224 0.288,2.16 0.936,2.736 0.576,0.576 1.512,0.864 2.664,0.864 1.152,0 2.088,-0.288 2.664,-0.936 0.576,-0.576 0.936,-1.512 0.936,-2.664 v -21.024 c 0,-2.664 1.008,-4.824 3.168,-6.408 2.088,-1.584 4.896,-2.376 8.352,-2.376 1.152,0 2.736,0.216 4.68,0.504 0.432,0.144 0.792,0.144 1.08,0.144 1.44,0 2.448,-0.72 2.88,-2.304 0,-0.144 0.072,-0.36 0.072,-0.72 0,-1.152 -0.72,-2.088 -2.16,-2.88 z" stroke-width="0" stroke-linejoin="miter" stroke-miterlimit="2" fill="#7e7e7e" stroke="#7e7e7e" transform="translate(0 324.361) translate(573.9632625 39.739279999999994) scale(1.67) translate(-546.605 39.816)"></path>
        <path id="path119315" style="font-style:normal;font-weight:700;font-size:72px;line-height:1;font-family:'Comfortaa Bold Alt1';font-variant-ligatures:none;text-align:center;text-anchor:middle" d="m 617.76463,-3.672 v -32.112 c 0,-1.08 -0.36001,-1.944 -1.00801,-2.664 -0.72,-0.648 -1.58399,-1.008 -2.664,-1.008 -1.08,0 -1.94399,0.36 -2.664,1.008 -0.72,0.72 -1.008,1.584 -1.008,2.664 v 20.304 c 0,1.8 -0.504,3.312 -1.43999,4.68 -0.93601,1.44 -2.23201,2.52 -3.88801,3.312 -1.65599,0.864 -3.528,1.224 -5.47199,1.224 -3.52801,0 -6.26401,-0.936 -8.352,-2.952 -2.08801,-2.016 -3.096,-4.968 -3.096,-8.856 v -17.712 c 0,-1.008 -0.36,-1.872 -1.08001,-2.592 -0.72,-0.72 -1.58399,-1.08 -2.59199,-1.08 -1.08001,0 -1.944,0.36 -2.664,1.08 -0.72001,0.72 -1.00801,1.584 -1.00801,2.592 v 17.712 c 0,3.96 0.72001,7.272 2.232,10.008 1.44001,2.736 3.528,4.896 6.192,6.264 2.52,1.44 5.25601,2.16 8.28001,2.232 0.144,0 5.688,0 16.84799,0 0.93601,0 1.728,-0.36 2.376,-1.008 0.648,-0.648 1.00801,-1.44 1.00801,-2.448 z" stroke-width="0" stroke-linejoin="miter" stroke-miterlimit="2" fill="#8c8c8c" stroke="#8c8c8c" transform="translate(0 324.361) translate(642.8067078999999 40.34048) scale(1.67) translate(-580.82862 39.456)"></path>
        <path id="path119317" style="font-style:normal;font-weight:700;font-size:72px;line-height:1;font-family:'Comfortaa Bold Alt1';font-variant-ligatures:none;text-align:center;text-anchor:middle" d="m 631.41875,-37.944 v 6.192 28.08 c 0,1.152 0.288,2.016 1.008,2.664 0.72,0.72 1.512,1.008 2.52,1.008 1.152,0 2.088,-0.288 2.808,-1.008 0.648,-0.648 1.008,-1.512 1.008,-2.664 v -28.08 h 7.344 c 1.008,0 1.8,-0.288 2.448,-0.864 0.576,-0.576 0.936,-1.296 0.936,-2.16 0,-0.936 -0.36,-1.728 -0.936,-2.304 -0.648,-0.576 -1.44,-0.864 -2.448,-0.864 h -7.344 v -1.944 c 0,-2.88 0.792,-5.256 2.448,-7.056 1.584,-1.728 3.744,-2.664 6.48,-2.664 1.008,0 1.872,-0.288 2.592,-0.936 0.72,-0.576 1.08,-1.368 1.08,-2.376 0,-0.936 -0.36,-1.728 -1.08,-2.376 -0.72,-0.576 -1.584,-0.936 -2.592,-0.936 -3.24,0 -6.048,0.72 -8.496,2.16 -2.448,1.44 -4.392,3.384 -5.76,5.976 -1.368,2.592 -2.016,5.544 -2.016,8.928 z" stroke-width="0" stroke-linejoin="miter" stroke-miterlimit="2" fill="#9b9b9b" stroke="#9b9b9b" transform="translate(0 324.361) translate(738.982225 12.324560000000005) scale(1.67) translate(-631.41875 56.232)"></path>
      </g>
      <image xlink:href="" id="icon" x="0" y="0" style="display: none;"></image>
    </g>
  </g>
</svg>