<svg xmlns:dc="http://purl.org/dc/elements/1.1/" xmlns:cc="http://creativecommons.org/ns#" xmlns:rdf="http://www.w3.org/1999/02/22-rdf-syntax-ns#" xmlns:svg="http://www.w3.org/2000/svg" xmlns="http://www.w3.org/2000/svg" xmlns:xlink="http://www.w3.org/1999/xlink" id="svg25830" viewBox="0 0 1024 768" height="768px" width="1024px" version="1.1">
  <metadata id="metadata25836">
    <rdf:rdf>
      <cc:work rdf:about="">
        <dc:format>image/svg+xml</dc:format>
        <dc:type rdf:resource="http://purl.org/dc/dcmitype/StillImage"></dc:type>
      </cc:work>
    </rdf:rdf>
  </metadata>
  <defs id="defs25834"></defs>
  <linearGradient spreadMethod="pad" y2="30%" x2="-10%" y1="120%" x1="30%" id="3d_gradient2-logo-5657d50f-619f-455d-9349-e8cc1d843e21">
    <stop id="stop25811" stop-opacity="1" stop-color="#ffffff" offset="0%"></stop>
    <stop id="stop25813" stop-opacity="1" stop-color="#000000" offset="100%"></stop>
  </linearGradient>
  <linearGradient gradientTransform="rotate(-30)" spreadMethod="pad" y2="30%" x2="-10%" y1="120%" x1="30%" id="3d_gradient3-logo-5657d50f-619f-455d-9349-e8cc1d843e21">
    <stop id="stop25816" stop-opacity="1" stop-color="#ffffff" offset="0%"></stop>
    <stop id="stop25818" stop-opacity="1" stop-color="#cccccc" offset="50%"></stop>
    <stop id="stop25820" stop-opacity="1" stop-color="#000000" offset="100%"></stop>
  </linearGradient>
  <g id="logo-group">
    <image xlink:href="" id="container" x="272" y="144" width="480" height="480" transform="translate(0 0)" style="display: none;"></image>
    <g id="logo-center" transform="translate(1.1368683772161603e-13 0)">
      <image xlink:href="" id="icon_container" x="0" y="0" style="display: none;"></image>
      <g id="slogan" style="font-style:normal;font-weight:400;font-size:32px;line-height:1;font-family:Orienta;font-variant-ligatures:none;text-align:center;text-anchor:middle" transform="translate(0 0)"></g>
      <g id="title" style="font-style:normal;font-weight:500;font-size:72px;line-height:1;font-family:'Raleway Medium Alt1';font-variant-ligatures:none;text-align:center;text-anchor:middle" transform="translate(0 0)">
        <path id="path25839" style="font-style:normal;font-weight:500;font-size:72px;line-height:1;font-family:'Raleway Medium Alt1';font-variant-ligatures:none;text-align:center;text-anchor:middle" d="m 389.86606,-44.136 -2.808,7.632 6.48,16.488 h -12.816 l -1.944,5.04 h 16.2 L 401.02606,0 h 6.912 z m -2.808,-6.984 h -5.472 L 360.63406,0 h 6.624 l 17.064,-43.632 z" stroke-width="0" stroke-linejoin="miter" stroke-miterlimit="2" fill="#ffd6c0" stroke="#ffd6c0" transform="translate(0 325.38484000000005) translate(260.4203449999999 15.749600000000008) scale(1.67) translate(-360.63406 51.12)"></path>
        <path id="path25841" style="font-style:normal;font-weight:500;font-size:72px;line-height:1;font-family:'Raleway Medium Alt1';font-variant-ligatures:none;text-align:center;text-anchor:middle" d="M 414.83094,-51.12 V 0 h 6.48 v -39.528 l 11.448,20.448 3.456,-5.904 -14.544,-26.136 z m 43.92,0 -18.576,33.192 -3.384,5.904 1.584,2.808 h 3.672 l 16.992,-30.312 V 0 h 6.48 v -51.12 z" stroke-width="0" stroke-linejoin="miter" stroke-miterlimit="2" fill="#ffd6c0" stroke="#ffd6c0" transform="translate(0 325.38484000000005) translate(350.92913459999994 15.749600000000008) scale(1.67) translate(-414.83094 51.12)"></path>
        <path id="path25843" style="font-style:normal;font-weight:500;font-size:72px;line-height:1;font-family:'Raleway Medium Alt1';font-variant-ligatures:none;text-align:center;text-anchor:middle" d="m 501.52231,-44.136 -2.808,7.632 6.48,16.488 h -12.816 l -1.944,5.04 h 16.2 L 512.68231,0 h 6.912 z m -2.808,-6.984 h -5.472 L 472.29031,0 h 6.624 l 17.064,-43.632 z" stroke-width="0" stroke-linejoin="miter" stroke-miterlimit="2" fill="#ffd6c0" stroke="#ffd6c0" transform="translate(0 325.38484000000005) translate(446.88628249999994 15.749600000000008) scale(1.67) translate(-472.29031 51.12)"></path>
        <path id="path25845" style="font-style:normal;font-weight:500;font-size:72px;line-height:1;font-family:'Raleway Medium Alt1';font-variant-ligatures:none;text-align:center;text-anchor:middle" d="m 553.12719,-19.584 c 1.584,-0.36 3.096,-1.08 4.392,-2.088 1.296,-0.936 2.448,-2.088 3.384,-3.456 0.936,-1.296 1.656,-2.808 2.16,-4.464 0.504,-1.656 0.792,-3.384 0.792,-5.184 0,-2.016 -0.432,-3.96 -1.152,-5.904 -0.792,-1.944 -1.872,-3.672 -3.24,-5.256 -1.368,-1.584 -3.024,-2.808 -4.896,-3.744 -1.872,-0.936 -3.96,-1.44 -6.192,-1.44 h -21.888 V 0 h 6.48 v -18.36 h 6.48 l -3.6,-5.76 h -2.88 v -21.24 h 15.048 c 1.224,0 2.376,0.288 3.528,0.864 1.152,0.576 2.088,1.296 2.952,2.304 0.864,1.008 1.512,2.088 2.016,3.384 0.504,1.296 0.792,2.664 0.792,4.032 0,1.44 -0.216,2.736 -0.648,4.032 -0.504,1.368 -1.08,2.448 -1.8,3.456 -0.792,1.008 -1.728,1.8 -2.808,2.304 -1.08,0.576 -2.304,0.864 -3.6,0.864 h -5.688 l 3.744,5.76 11.664,18.36 h 7.344 z" stroke-width="0" stroke-linejoin="miter" stroke-miterlimit="2" fill="#ffd6c0" stroke="#ffd6c0" transform="translate(0 325.38484000000005) translate(537.3950721000001 15.749600000000008) scale(1.67) translate(-526.48719 51.12)"></path>
        <path id="path25847" style="font-style:normal;font-weight:500;font-size:72px;line-height:1;font-family:'Raleway Medium Alt1';font-variant-ligatures:none;text-align:center;text-anchor:middle" d="m 582.73719,-11.592 c -1.152,-1.8 -2.016,-3.888 -2.52,-6.264 -0.504,-2.376 -0.72,-4.824 -0.72,-7.416 V -51.12 h -6.48 v 25.848 c 0,3.312 0.36,6.48 1.08,9.576 0.72,3.096 1.944,5.832 3.672,8.208 1.728,2.376 3.96,4.32 6.768,5.688 1.944,1.08 4.32,1.728 6.984,2.016 v -5.904 c -1.584,-0.288 -2.952,-0.792 -4.104,-1.44 -1.944,-1.152 -3.528,-2.592 -4.68,-4.464 z m 27.36,-39.528 v 25.848 c 0,2.52 -0.288,4.896 -0.72,7.272 -0.504,2.376 -1.368,4.464 -2.52,6.336 -1.152,1.872 -2.736,3.312 -4.68,4.464 -1.152,0.72 -2.52,1.152 -4.032,1.44 v 5.976 c 2.52,-0.288 4.752,-0.936 6.696,-1.872 2.736,-1.368 5.04,-3.24 6.768,-5.616 1.728,-2.304 2.952,-5.04 3.744,-8.136 0.792,-3.096 1.224,-6.408 1.224,-9.864 V -51.12 Z" stroke-width="0" stroke-linejoin="miter" stroke-miterlimit="2" fill="#ffd6c0" stroke="#ffd6c0" transform="translate(0 325.38484000000005) translate(615.1001721 15.749600000000008) scale(1.67) translate(-573.01719 51.12)"></path>
        <path id="path25849" style="font-style:normal;font-weight:500;font-size:72px;line-height:1;font-family:'Raleway Medium Alt1';font-variant-ligatures:none;text-align:center;text-anchor:middle" d="m 628.15906,0 h 6.48 v -22.896 h 22.968 v -5.4 h -29.448 z m 0,-51.12 v 16.344 h 6.48 V -45.36 h 27.288 v -5.76 z" stroke-width="0" stroke-linejoin="miter" stroke-miterlimit="2" fill="#ffd6c0" stroke="#ffd6c0" transform="translate(0 325.38484000000005) translate(707.1870949999999 15.749600000000008) scale(1.67) translate(-628.15906 51.12)"></path>
      </g>
      <image xlink:href="" id="icon" x="0" y="0" style="display: none;"></image>
    </g>
  </g>
</svg>