<svg xmlns:dc="http://purl.org/dc/elements/1.1/" xmlns:cc="http://creativecommons.org/ns#" xmlns:rdf="http://www.w3.org/1999/02/22-rdf-syntax-ns#" xmlns:svg="http://www.w3.org/2000/svg" xmlns="http://www.w3.org/2000/svg" xmlns:xlink="http://www.w3.org/1999/xlink" id="svg25743" viewBox="0 0 1024 768" height="768px" width="1024px" version="1.1">
  <metadata id="metadata25749">
    <rdf:rdf>
      <cc:work rdf:about="">
        <dc:format>image/svg+xml</dc:format>
        <dc:type rdf:resource="http://purl.org/dc/dcmitype/StillImage"></dc:type>
      </cc:work>
    </rdf:rdf>
  </metadata>
  <defs id="defs25747"></defs>
  <linearGradient spreadMethod="pad" y2="30%" x2="-10%" y1="120%" x1="30%" id="3d_gradient2-logo-3cf59393-8734-41fb-a634-519a64d1fdfd">
    <stop id="stop25724" stop-opacity="1" stop-color="#ffffff" offset="0%"></stop>
    <stop id="stop25726" stop-opacity="1" stop-color="#000000" offset="100%"></stop>
  </linearGradient>
  <linearGradient gradientTransform="rotate(-30)" spreadMethod="pad" y2="30%" x2="-10%" y1="120%" x1="30%" id="3d_gradient3-logo-3cf59393-8734-41fb-a634-519a64d1fdfd">
    <stop id="stop25729" stop-opacity="1" stop-color="#ffffff" offset="0%"></stop>
    <stop id="stop25731" stop-opacity="1" stop-color="#cccccc" offset="50%"></stop>
    <stop id="stop25733" stop-opacity="1" stop-color="#000000" offset="100%"></stop>
  </linearGradient>
  <g id="logo-group">
    <image xlink:href="" id="container" x="272" y="144" width="480" height="480" transform="translate(0 0)" style="display: none;"></image>
    <g id="logo-center" transform="translate(5.684341886080802e-14 0)">
      <image xlink:href="" id="icon_container" x="0" y="0" style="display: none;"></image>
      <g id="slogan" style="font-style:oblique;font-weight:600;font-size:32px;line-height:1;font-family:Lora;font-variant-ligatures:none;text-align:center;text-anchor:middle" transform="translate(0 0)"></g>
      <g id="title" style="font-style:normal;font-weight:400;font-size:72px;line-height:1;font-family:Boycott;font-variant-ligatures:none;text-align:center;text-anchor:middle" transform="translate(0 0)">
        <path id="path25752" style="font-style:normal;font-weight:400;font-size:72px;line-height:1;font-family:Boycott;font-variant-ligatures:none;text-align:center;text-anchor:middle" d="m 414.5,-59.578125 h 3.5625 l 0.75,0.75 -0.1875,0.9375 q 1.125,0.421875 1.125,0.75 -0.375,0 -0.375,0.5625 l -0.1875,0.1875 H 419 l -0.375,-0.375 -0.5625,0.375 h -0.375 v -0.375 h -0.5625 v 0.375 l 0.375,0.5625 -0.375,0.5625 v 0.1875 l 0.5625,0.5625 h 0.1875 l 0.375,-0.375 v -0.1875 l -0.1875,-0.1875 v -0.1875 l 1.125,-0.375 q 0.46875,3.421875 1.125,4.125 l -0.1875,0.5625 q 1.125,11.0625 2.8125,11.0625 v 0.75 l -0.1875,1.3125 0.5625,0.5625 v 0.375 h -0.375 l 0.5625,1.875 -0.1875,1.6875 q 0.42187,3.1875 0.9375,3.1875 0.9375,0 0.9375,0.375 v 0.1875 q 0,0.375 -0.9375,0.375 l -0.1875,0.1875 v 0.1875 l 0.5625,0.75 -0.375,1.5 q 0.42187,1.6875 1.3125,2.8125 v 0.1875 l -0.375,0.5625 0.375,0.375 -0.1875,0.9375 q 0.46875,5.25 0.9375,5.25 l -0.1875,0.5625 0.75,2.625 -0.1875,0.1875 v 0.1875 q 0.75,2.390625 1.6875,11.25 l -0.1875,0.1875 v 0.1875 l 0.1875,0.75 q -0.28125,0.9375 -1.3125,0.9375 h -0.1875 l -2.0625,-0.1875 -2.4375,0.1875 h -2.625 q -0.79688,0 -1.3125,-5.8125 l -0.1875,-0.1875 0.5625,-0.5625 v -0.375 l -0.5625,-0.5625 0.5625,-1.5 -0.5625,-0.5625 -0.1875,0.1875 q -0.32813,-0.328125 -0.5625,-2.25 l 0.375,-1.6875 q -0.32813,-0.9375 -1.6875,-0.9375 l -0.375,0.375 h -0.1875 l -0.5625,-0.375 -0.5625,0.375 h -0.9375 l -0.1875,-0.1875 h -0.1875 l 0.375,-2.25 -0.1875,-0.1875 H 413 v 0.1875 l 0.1875,0.9375 q 0,1.6875 -1.125,1.6875 l -0.9375,-0.1875 -0.1875,0.1875 -0.375,-0.375 h -0.1875 q -2.01563,0.5625 -3,1.6875 l 0.1875,0.1875 v 0.1875 q -1.03125,7.5 -1.875,7.5 l 0.5625,0.5625 v 0.375 l -0.375,0.5625 v 1.125 q 0,1.875 -1.5,1.875 h -0.1875 l -0.5625,-0.1875 q -1.82813,0.375 -5.4375,0.375 h -1.875 l -0.375,-0.375 v -0.375 q 1.26562,-8.484375 1.875,-9.1875 l -0.1875,-0.5625 q 0.1875,-2.25 0.75,-3 l 0.1875,0.1875 h 0.1875 q 0.5625,-1.21875 0.75,-3.75 l -0.375,-1.125 q 0.46875,0 0.9375,-2.0625 l -0.375,-0.75 0.375,-3.375 h 0.1875 l 0.5625,0.375 0.375,-0.5625 v -0.375 l -0.75,-0.375 0.5625,-2.25 -0.1875,-0.5625 H 401 l 0.9375,-0.375 0.1875,0.5625 h 0.5625 q 0.375,0 0.375,-0.5625 h 0.375 l 0.5625,0.375 0.75,-0.75 -0.1875,-0.1875 h 1.5 l 1.125,-0.1875 1.125,0.375 H 408.5 q 0,-0.65625 -0.75,-1.3125 v -0.9375 q -0.5625,0 -0.5625,-0.375 l 1.125,-1.3125 -0.1875,-1.3125 h -0.375 q -0.89063,0.984375 -1.6875,1.3125 l -0.375,-0.375 0.1875,-1.125 -0.375,-0.375 h -0.375 l -0.1875,0.9375 q 0,0.5625 0.5625,0.5625 v 0.375 q -0.28125,0.75 -1.3125,0.75 v 1.5 h -0.375 l -0.75,-1.125 h -0.375 l -0.1875,0.75 h -0.1875 q -0.375,-1.5 -1.125,-1.5 l 0.1875,-0.5625 h 0.1875 l 0.5625,0.375 0.1875,-1.3125 H 402.5 l 0.5625,0.375 h 0.5625 q 0.375,0 0.375,-0.5625 -0.375,-2.4375 -1.125,-2.4375 l 0.1875,-0.75 -0.5625,-1.125 v -0.375 q 0.5625,0 0.5625,-0.375 l -0.1875,-1.3125 h 0.375 l 0.5625,0.375 0.5625,-0.75 q -0.75,-0.1875 -0.75,-0.75 l -0.1875,0.1875 H 403.25 l -0.375,-0.375 v -0.1875 q 0.60937,-3.140625 1.125,-3.75 l -0.5625,-0.9375 0.5625,-0.75 -0.1875,-1.3125 v -0.75 l 0.375,-0.375 h 0.1875 v 0.9375 l 0.1875,0.9375 h 0.5625 l 0.375,-0.375 v -0.375 l -0.1875,-1.125 q 0.28125,-0.75 0.5625,-0.75 l -0.1875,-0.9375 v -0.1875 h 0.9375 l 0.375,-0.375 q 0,-0.46875 -1.6875,-0.9375 l -0.1875,-1.5 1.125,0.1875 h 0.1875 v -0.1875 q -1.3125,-0.1875 -1.3125,-0.75 l 0.1875,-0.75 -0.1875,-0.1875 v -0.1875 q 0,-3.375 1.5,-3.375 h 7.125 l 0.1875,0.1875 h 0.1875 z m -3.375,21.375 h -0.1875 q 0,-0.9375 -0.75,-0.9375 l -0.5625,0.1875 v -0.1875 l -0.75,0.5625 v 0.375 l 1.125,0.75 h 0.1875 l 0.9375,-0.1875 0.1875,0.75 -0.75,1.875 0.1875,0.9375 -0.375,3 0.375,1.3125 -1.6875,6.1875 q 0.32812,1.3125 1.125,1.3125 l 2.0625,-0.1875 q 1.875,0.09375 1.875,0.5625 v 0.9375 q 0,0.5625 -1.3125,0.5625 l -0.1875,0.5625 1.125,1.3125 h 0.1875 v -0.75 l -0.5625,-0.1875 -0.1875,0.1875 v -0.375 l 0.375,-0.5625 q 0.5625,0 0.5625,0.9375 h 0.5625 q 0,-0.5625 0.5625,-0.5625 l 0.1875,-0.1875 v -1.3125 l -0.9375,0.1875 v -0.75 q 0.1875,-0.5625 1.125,-0.5625 0.28125,1.40625 1.3125,1.875 l 0.5625,-0.1875 v -0.1875 q -1.125,-1.21875 -1.125,-3.375 -0.375,0 -0.375,-1.125 -0.5625,0 -0.5625,-0.375 v -0.375 Q 416,-26.90625 416,-27.515625 v -0.1875 q -1.125,0 -1.125,-0.9375 l -0.375,-1.875 v -0.1875 q 0.79687,0 1.6875,-0.75 h 0.5625 v -0.1875 l -0.1875,-0.1875 v -0.1875 l -2.0625,0.375 q -0.51563,-1.078125 -0.75,-4.125 l 0.5625,-1.5 q -1.40625,0 -1.6875,-5.25 l -0.375,-0.375 q -0.5625,0 -1.125,4.6875 z m -2.0625,-1.6875 v 0.375 h 0.5625 v -0.375 z m 6.75,0.1875 v 0.75 H 416 l 0.1875,-0.5625 -0.1875,-0.1875 z m -8.0625,0.9375 0.1875,0.1875 h 0.375 l 0.375,-0.375 v -0.1875 h -0.5625 z m 7.3125,0 v 0.1875 l 0.375,0.375 0.1875,-0.1875 v -0.375 z m -11.25,3 0.375,0.375 h 0.1875 l 0.1875,-0.75 h -0.375 z m 2.4375,1.3125 v 0.375 h 0.1875 l 0.5625,-0.1875 1.125,0.1875 h 0.1875 v -0.5625 l -0.75,-0.1875 z m -4.6875,3.1875 0.5625,0.75 v 0.1875 l -0.375,0.375 H 401 v -0.375 h -0.1875 q 0.375,-0.84375 0.75,-0.9375 z m 15.5625,1.3125 v 0.375 h 0.1875 l 2.25,0.1875 v -0.5625 l -1.3125,-0.375 z m -15,0.375 h 0.1875 v 0.9375 h -0.375 l -0.375,-0.375 z m 17.625,0.75 v 0.5625 h 0.375 v -0.5625 z m -3.375,0.1875 v 0.1875 l 0.375,0.375 h 0.5625 v -0.1875 l -0.375,-0.375 z m -12.9375,2.0625 0.1875,0.9375 -0.375,0.5625 v 0.1875 h 1.125 v -0.375 h 0.1875 l -0.1875,-0.1875 v -0.1875 l 0.1875,-1.125 h -0.75 l -0.1875,0.1875 z m -0.75,0 v 0.375 h 0.1875 l 0.375,-0.375 z m -1.125,1.125 0.1875,1.875 h 0.1875 l 0.5625,-1.6875 -0.1875,-0.1875 z m 17.4375,0.9375 v 0.375 h 0.5625 l 0.1875,-0.5625 -0.1875,-0.1875 h -0.1875 z m 1.125,-0.1875 v 0.9375 h 0.1875 v -0.9375 z m -0.1875,1.5 -0.1875,0.5625 0.375,0.5625 0.75,-0.5625 q 0,-0.421875 -0.9375,-0.5625 z m -1.6875,1.6875 v 0.1875 l 0.9375,0.1875 h 0.375 l 0.375,-0.375 v -0.375 l -0.1875,0.1875 h -0.5625 v -0.375 h -0.375 z m -3.9375,0.5625 h 0.5625 v 0.375 l -0.5625,-0.1875 z m -8.25,2.0625 v 0.1875 l 0.75,-0.1875 q 0.5625,0 0.5625,0.5625 l 0.1875,0.1875 h 0.375 l 0.375,-0.375 v -0.375 q -1.125,0 -1.125,-0.9375 H 407 Z m 11.625,-0.9375 -0.1875,0.1875 v 0.75 h 0.5625 v -0.5625 z m -4.3125,2.625 v 0.5625 h 0.375 v -0.5625 z m 6.375,0.375 v 0.1875 l 0.375,0.5625 -0.5625,0.75 h 1.5 v -0.5625 l -0.75,-0.9375 z m 1.5,0.75 v 0.75 h 0.1875 l 1.5,-0.1875 v -0.5625 h -1.125 l -0.1875,0.1875 h -0.1875 z m 2.0625,0.9375 q 0,0.5625 -0.375,0.5625 L 422,-14.765625 v 0.5625 q 0,0.375 0.5625,0.375 l 0.5625,-0.1875 v 0.1875 l -0.1875,0.5625 1.125,0.375 0.1875,-0.1875 v -0.375 q -0.5625,-0.65625 -0.75,-1.6875 z m 0.1875,2.8125 v 0.1875 l 0.375,0.375 v -0.5625 z m -0.1875,0.9375 -0.1875,0.5625 h 0.375 l 0.375,-0.375 v -0.1875 z m -1.3125,1.3125 v 0.1875 h 1.125 v -0.375 l -0.375,-0.375 z m -1.875,-0.375 v 0.5625 l 0.375,0.375 h 0.5625 v -0.375 l -0.5625,-0.5625 z m -18.9375,1.125 v 0.5625 h 0.375 v 0.1875 l 0.75,-0.5625 v -0.5625 h -0.75 z m 2.625,1.3125 v 0.1875 l 0.375,0.375 h 0.1875 l 0.375,-0.375 -0.1875,-0.1875 z m 15.5625,0.75 v 0.5625 h 0.1875 l 0.375,-0.375 -0.1875,-0.1875 z m -20.0625,0.5625 v 0.1875 l 5.625,1.875 v -0.375 z" stroke-width="0" stroke-linejoin="miter" stroke-miterlimit="2" fill="#4d7b6c" stroke="#4d7b6c" transform="translate(0 316.38624999999996) translate(306.31601979999994 20.72328125) scale(1.67) translate(-395.9375 59.578125)"></path>
        <path id="path25754" style="font-style:normal;font-weight:400;font-size:72px;line-height:1;font-family:Boycott;font-variant-ligatures:none;text-align:center;text-anchor:middle" d="m 435.875,-59.8125 h 5.4375 l 0.1875,0.1875 h 0.1875 l 0.1875,-0.1875 0.375,0.5625 v 3.1875 l -0.1875,2.0625 0.1875,0.1875 v 0.1875 l -0.1875,0.1875 0.1875,2.25 v 1.3125 q 2.25,0.609375 2.25,2.625 l -1.5,1.125 -0.1875,-0.1875 -0.5625,-1.5 h -0.1875 l -0.5625,0.375 0.1875,0.9375 v 0.375 l -0.1875,1.6875 0.1875,0.75 L 441.5,-43.5 h 0.1875 l -0.1875,0.5625 0.375,1.125 q 0,0.796875 -3,1.5 l 0.375,0.375 h 1.3125 l 0.5625,-0.375 q 0.375,0 0.375,0.5625 l -0.1875,0.9375 q 0.375,0 0.375,1.5 h 0.1875 q 0,-1.125 0.375,-1.125 h 1.125 v -0.375 l -0.9375,-1.5 0.1875,-0.9375 h 0.5625 q 2.0625,1.21875 2.0625,3.375 h 0.1875 q 1.875,0 1.875,-1.5 0,-1.265625 1.6875,-2.25 l -0.1875,-0.1875 V -42 q 0,-0.375 0.75,-0.375 v -0.5625 q -1.875,0 -2.625,-3.1875 l 0.1875,-0.9375 q 0,-0.84375 -2.0625,-3.375 l -0.375,-2.25 0.375,-2.4375 -0.375,-2.8125 v -1.125 L 444.5,-59.25 l 0.1875,-0.5625 h 1.125 q 1.3125,0 1.3125,2.25 l 1.3125,4.875 h 0.1875 l 1.5,-0.5625 0.1875,0.1875 v 0.1875 q 0,0.5625 -1.3125,1.5 L 449.375,-51 449,-49.875 q 0.23437,1.125 0.5625,1.125 l -0.1875,0.1875 v 0.1875 q 3.1875,16.875 3.9375,18.5625 0.9375,0.140625 0.9375,0.5625 l -0.9375,0.5625 v 0.375 q 1.07812,6.375 2.4375,7.3125 l -0.75,0.75 0.375,0.9375 h 0.375 q 0.42187,-3.515625 1.125,-4.875 l -0.375,-1.125 q 0.70312,-0.9375 0.9375,-2.8125 l -0.1875,-0.75 q 0.5625,-0.75 3.375,-16.875 l 0.5625,-0.75 -0.5625,-0.375 0.1875,-0.1875 V -48 l -0.375,-0.375 H 460.25 l -0.1875,0.1875 h -0.1875 q 0,-0.328125 -1.6875,-0.5625 v -0.1875 L 458.75,-49.5 q -1.125,0 -1.125,-1.3125 h 0.1875 q 0.9375,0 1.5,1.125 l 0.5625,-0.375 0.9375,0.1875 H 461 q 0.51562,0 1.6875,-6.9375 L 462.875,-57 v -0.1875 l -0.1875,-0.9375 0.1875,-0.1875 h 0.1875 l 0.375,0.375 h 0.375 l 0.5625,-0.375 h 0.375 v 0.375 h 0.1875 L 464.75,-57 l 0.1875,0.75 h 0.375 q 0.1875,-1.265625 0.5625,-1.3125 l -0.1875,-0.1875 v -0.1875 q 0.60937,-1.875 2.4375,-1.875 h 1.3125 l 0.9375,0.1875 -0.1875,0.9375 0.1875,0.1875 h 0.5625 q 0.375,0 0.75,-1.125 h 0.1875 l 0.75,0.5625 h 1.6875 l 0.5625,-0.375 h 0.1875 q 0.375,0 0.375,0.75 0.32812,0 1.3125,1.3125 h 0.1875 V -57 h -0.375 q -0.375,0 -0.375,-0.5625 h -0.75 v 0.375 l 0.375,1.5 V -55.5 l -0.1875,1.6875 q 0.28125,3.75 0.9375,3.75 0.375,0 0.375,-0.75 h 0.1875 l 0.375,1.5 -0.1875,0.1875 -0.9375,-0.1875 -0.375,0.375 v 0.5625 l 0.1875,0.1875 V -48 l -0.5625,0.1875 v 1.125 q 0,1.453125 3.375,2.4375 l 0.1875,0.1875 V -43.5 l -1.3125,-0.1875 h -0.5625 l -0.5625,0.5625 0.9375,1.125 v 0.5625 h 0.375 v -0.375 h 0.375 l 0.1875,1.3125 q -0.79688,1.125 -1.6875,1.125 L 476.75,-39.5625 V -39.75 q -0.9375,0.28125 -0.9375,1.3125 L 476,-37.5 h 0.1875 l 1.3125,-1.3125 h 0.1875 q 0,1.078125 1.125,1.875 l -0.375,0.5625 v 0.9375 q -1.64063,0 -2.625,2.625 l 0.5625,0.375 h 0.1875 l 0.5625,-0.375 L 476.9375,-33 v -0.5625 l 0.75,-0.1875 0.375,1.875 Q 476,-31.6875 476,-31.125 v 2.25 l 0.1875,0.1875 L 476,-28.5 v 0.75 l 0.75,0.1875 v 0.75 q 0,0.9375 -0.5625,0.9375 v 0.1875 q 0.75,0 0.75,0.9375 l -0.5625,0.1875 v 0.375 q 0,0.375 0.75,0.375 l -0.1875,0.9375 q 0,1.359375 2.4375,1.6875 V -21 l -0.5625,0.9375 0.1875,0.1875 h 0.1875 l 0.5625,-0.1875 0.375,0.75 Q 479.89062,-18 479.375,-18 l -2.0625,-0.5625 -0.375,0.5625 0.1875,0.1875 -1.125,0.5625 0.1875,0.75 -0.1875,2.4375 0.1875,5.25 -0.1875,2.625 0.1875,2.4375 v 0.5625 L 476,-3 l 0.1875,0.1875 v 1.875 q 0,1.125 -1.5,1.125 H 473.75 L 470.75,0 470.5625,0.1875 H 470.375 L 469.625,0 h -0.1875 L 469.25,0.1875 468.6875,0 l -1.125,0.1875 q -0.75,-0.1875 -0.75,-1.125 v -7.5 l -0.1875,-1.6875 0.1875,-0.1875 -0.1875,-1.3125 v -1.5 l 0.1875,-0.1875 -0.1875,-0.1875 v -1.3125 l -0.1875,-6.5625 -1.5,-0.75 -0.375,0.5625 v 0.375 q 0,0.28125 1.5,0.75 v 0.1875 q -0.1875,0.5625 -1.125,0.5625 h -1.5 l -0.375,0.75 v 1.3125 l 0.375,0.5625 q -0.46875,0 -0.5625,0.9375 -0.375,0 -0.375,1.6875 h -0.1875 L 462.5,-14.25 v 0.375 q -0.9375,1.5 -2.4375,9.75 l -0.5625,0.375 0.1875,0.5625 Q 459.6875,0 457.8125,0 l -0.1875,-0.1875 h -2.4375 L 452.5625,0 q -0.9375,0.046875 -1.875,-5.8125 l -2.0625,-7.875 0.1875,-0.1875 v -0.75 l -0.5625,-1.125 0.1875,-0.1875 q -0.46875,0 -2.4375,-9.375 V -25.5 l 1.125,-0.75 q 0.75,0 0.75,-0.375 0,-0.515625 -0.9375,-0.5625 V -27.75 l 0.1875,-0.1875 -0.5625,-1.5 v -0.375 q 0.5625,0 0.5625,-0.5625 l -0.1875,-0.5625 Q 448.25,-31.171875 448.25,-31.5 V -33 q -0.5625,-0.46875 -1.125,-4.6875 H 446 q -1.3125,0.421875 -1.3125,2.625 l 0.1875,1.6875 q -0.375,0 -0.375,0.5625 h -0.375 q -0.375,-2.25 -0.75,-2.25 h -0.1875 l 0.1875,1.5 -0.1875,1.875 h 0.1875 l -0.1875,0.1875 v 0.75 l 0.1875,0.1875 -0.1875,0.1875 v 1.5 h -0.75 q -0.75,-0.375 -0.75,-0.9375 H 441.5 l -0.1875,0.5625 0.1875,0.75 -0.1875,2.8125 q 0.28125,0 0.5625,0.75 -0.42188,0.515625 -0.5625,2.8125 l 0.1875,0.5625 h 0.375 q 0,-0.9375 0.375,-0.9375 l 0.75,0.9375 v 0.375 q 0,0.375 -1.3125,0.5625 v 0.375 L 441.5,-18 h 0.1875 l -0.1875,0.1875 v 0.1875 l 0.375,1.125 v 0.5625 q 0,0.375 -0.75,0.375 v 0.1875 l 0.5625,0.75 v 0.375 q 0,0.375 -0.5625,0.375 l 0.1875,0.9375 -0.375,1.125 q 1.6875,1.828125 1.6875,2.25 l 0.5625,1.125 q -0.375,0.796875 -0.375,3 v 0.75 l -0.9375,1.125 V -3 l 0.375,0.5625 q -0.14063,2.0625 -0.5625,2.0625 -0.32813,-1.3125 -0.75,-1.3125 l -0.375,1.125 L 438.5,0 h -0.1875 q -0.84375,0 -1.875,-0.9375 0.32812,-1.5 1.3125,-1.5 V -3 q -1.03125,0 -1.3125,-1.6875 -0.9375,0 -0.9375,-0.75 h -0.375 v 0.75 l 0.375,0.375 -0.1875,0.5625 h -0.375 q -0.5625,0 -0.75,-3.375 l 0.1875,-1.6875 v -1.3125 l -0.1875,-1.125 0.5625,-3.1875 q -0.0937,-1.6875 -0.375,-1.6875 l 0.1875,-0.1875 V -16.5 l -0.1875,-7.3125 0.375,-0.5625 v -0.1875 l -0.5625,-0.75 0.1875,-0.1875 v -4.3125 l -0.1875,-1.125 0.375,-0.5625 -0.375,-2.625 v -2.0625 l 0.1875,-1.6875 -0.1875,-1.875 v -3 l 0.375,-0.75 -0.375,-0.75 0.1875,-1.125 v -0.1875 l -0.1875,-0.1875 0.375,-0.9375 -0.375,-0.9375 0.1875,-0.1875 -0.1875,-2.25 V -51.75 l 0.1875,-0.75 -0.1875,-0.1875 v -0.1875 l 0.1875,-0.1875 -0.1875,-1.875 v -0.375 q 0,-0.9375 0.375,-0.9375 l -0.375,-0.5625 L 434.375,-57 v -0.1875 l -0.1875,-2.0625 v -0.375 h 0.375 l 0.1875,0.1875 z m 32.4375,0.9375 v 0.5625 H 468.5 l 0.375,-0.375 -0.1875,-0.1875 z m 11.4375,1.125 2.4375,0.5625 v 1.125 l 0.5625,0.75 v 0.1875 l -0.75,0.1875 q -2.625,-0.9375 -2.8125,-1.6875 v -0.9375 z m -13.875,1.875 q 0,1.125 1.3125,1.125 l 0.75,-0.375 V -55.5 q -0.75,-1.640625 -1.125,-1.6875 -0.42188,0 -0.75,1.3125 z m -1.125,0.9375 v 0.5625 h 0.375 v -0.5625 z m 14.4375,5.625 0.5625,0.1875 v 0.375 h -0.5625 z m -2.25,1.125 H 477.5 l 0.375,0.375 v 0.1875 h -0.5625 L 476.9375,-48 Z m 1.6875,0.75 h 0.1875 l 0.9375,0.1875 v 0.375 l -0.5625,0.1875 -0.5625,-0.1875 z m -16.3125,1.5 v 0.5625 l 0.375,0.375 -0.1875,0.9375 v 0.1875 h 0.375 l 0.375,-0.375 v -0.1875 l -0.375,-1.5 z m 3,0 v 0.5625 l 0.375,-0.375 v -0.1875 z m -22.875,0.375 L 443,-45 h -0.5625 z m 2.4375,0 h 0.1875 v 0.1875 L 444.6875,-45 H 444.5 v -0.1875 z m -3.9375,1.3125 -0.375,0.9375 h 0.1875 l 0.75,-0.75 z m 0.9375,0 0.375,0.375 v 0.1875 h -0.375 z m -0.1875,8.8125 -0.375,5.0625 0.1875,0.1875 h 0.1875 l 0.5625,-2.25 -0.375,-3 z m 24.375,1.5 v 0.5625 l -0.375,1.125 0.375,0.75 q -0.84375,0 -1.875,8.25 l 0.5625,0.375 h 1.5 q 0.42187,0 0.375,-0.5625 l -0.1875,-3.1875 0.1875,-4.125 -0.1875,-0.75 0.1875,-0.9375 -0.1875,-1.5 z M 443,-28.5 h 0.1875 v 1.875 q 0,1.59375 0.375,2.4375 l -0.375,1.3125 h -0.5625 l -0.1875,-0.9375 0.1875,-1.875 -0.375,-1.6875 z m -4.3125,0.5625 V -27 l 0.9375,0.1875 h 0.1875 v -1.3125 z m 1.5,3.5625 q 0,0.375 -1.125,0.75 v 1.125 h 0.1875 q 1.82812,-0.703125 1.875,-1.125 v -0.5625 z m 37.875,1.3125 h 0.375 l 0.1875,0.75 h -0.1875 l -0.375,-0.375 z m -1.5,2.625 -0.1875,0.75 h 0.5625 l 0.1875,-0.75 z M 437,-19.125 l 0.1875,0.5625 q 1.5,0 1.5,-0.75 l -0.375,-0.5625 Q 437,-19.453125 437,-19.125 Z m 3,2.25 v 0.75 h 0.1875 l 0.9375,-0.9375 V -17.625 Q 440,-17.203125 440,-16.875 Z m -2.25,1.3125 v 0.375 h 0.5625 l 0.375,-0.375 v -0.375 h -0.5625 z m 32.8125,11.25 v 0.375 l 0.375,0.375 0.1875,-0.5625 z m -30.375,0.75 0.375,0.375 0.375,-0.375 v -0.375 h -0.375 z m -5.25,1.5 h 0.1875 V -1.5 l -0.375,0.375 h -0.1875 v -0.5625 z m 35.8125,0.75 v 0.1875 l 0.375,0.375 h 0.1875 v -0.1875 l -0.375,-0.375 z" stroke-width="0" stroke-linejoin="miter" stroke-miterlimit="2" fill="#60877a" stroke="#60877a" transform="translate(0 316.38624999999996) translate(370.19351979999993 20.33187500000001) scale(1.67) translate(-434.1875 59.8125)"></path>
        <path id="path25756" style="font-style:normal;font-weight:400;font-size:72px;line-height:1;font-family:Boycott;font-variant-ligatures:none;text-align:center;text-anchor:middle" d="m 501.61719,-59.578125 h 3.5625 l 0.75,0.75 -0.1875,0.9375 q 1.125,0.421875 1.125,0.75 -0.375,0 -0.375,0.5625 l -0.1875,0.1875 h -0.1875 l -0.375,-0.375 -0.5625,0.375 h -0.375 v -0.375 h -0.5625 v 0.375 l 0.375,0.5625 -0.375,0.5625 v 0.1875 l 0.5625,0.5625 h 0.1875 l 0.375,-0.375 v -0.1875 l -0.1875,-0.1875 v -0.1875 l 1.125,-0.375 q 0.46875,3.421875 1.125,4.125 l -0.1875,0.5625 q 1.125,11.0625 2.8125,11.0625 v 0.75 l -0.1875,1.3125 0.5625,0.5625 v 0.375 h -0.375 l 0.5625,1.875 -0.1875,1.6875 q 0.42187,3.1875 0.9375,3.1875 0.9375,0 0.9375,0.375 v 0.1875 q 0,0.375 -0.9375,0.375 l -0.1875,0.1875 v 0.1875 l 0.5625,0.75 -0.375,1.5 q 0.42187,1.6875 1.3125,2.8125 v 0.1875 l -0.375,0.5625 0.375,0.375 -0.1875,0.9375 q 0.46875,5.25 0.9375,5.25 l -0.1875,0.5625 0.75,2.625 -0.1875,0.1875 v 0.1875 q 0.75,2.390625 1.6875,11.25 l -0.1875,0.1875 v 0.1875 l 0.1875,0.75 q -0.28125,0.9375 -1.3125,0.9375 h -0.1875 l -2.0625,-0.1875 -2.4375,0.1875 h -2.625 q -0.79688,0 -1.3125,-5.8125 l -0.1875,-0.1875 0.5625,-0.5625 v -0.375 l -0.5625,-0.5625 0.5625,-1.5 -0.5625,-0.5625 -0.1875,0.1875 q -0.32813,-0.328125 -0.5625,-2.25 l 0.375,-1.6875 q -0.32813,-0.9375 -1.6875,-0.9375 l -0.375,0.375 h -0.1875 l -0.5625,-0.375 -0.5625,0.375 h -0.9375 l -0.1875,-0.1875 h -0.1875 l 0.375,-2.25 -0.1875,-0.1875 h -0.375 v 0.1875 l 0.1875,0.9375 q 0,1.6875 -1.125,1.6875 l -0.9375,-0.1875 -0.1875,0.1875 -0.375,-0.375 h -0.1875 q -2.01563,0.5625 -3,1.6875 l 0.1875,0.1875 v 0.1875 q -1.03125,7.5 -1.875,7.5 l 0.5625,0.5625 v 0.375 l -0.375,0.5625 v 1.125 q 0,1.875 -1.5,1.875 h -0.1875 l -0.5625,-0.1875 q -1.82813,0.375 -5.4375,0.375 h -1.875 l -0.375,-0.375 v -0.375 q 1.26562,-8.484375 1.875,-9.1875 l -0.1875,-0.5625 q 0.1875,-2.25 0.75,-3 l 0.1875,0.1875 h 0.1875 q 0.5625,-1.21875 0.75,-3.75 l -0.375,-1.125 q 0.46875,0 0.9375,-2.0625 l -0.375,-0.75 0.375,-3.375 h 0.1875 l 0.5625,0.375 0.375,-0.5625 v -0.375 l -0.75,-0.375 0.5625,-2.25 -0.1875,-0.5625 h 0.1875 l 0.9375,-0.375 0.1875,0.5625 h 0.5625 q 0.375,0 0.375,-0.5625 h 0.375 l 0.5625,0.375 0.75,-0.75 -0.1875,-0.1875 h 1.5 l 1.125,-0.1875 1.125,0.375 h 0.1875 q 0,-0.65625 -0.75,-1.3125 v -0.9375 q -0.5625,0 -0.5625,-0.375 l 1.125,-1.3125 -0.1875,-1.3125 h -0.375 q -0.89063,0.984375 -1.6875,1.3125 l -0.375,-0.375 0.1875,-1.125 -0.375,-0.375 h -0.375 l -0.1875,0.9375 q 0,0.5625 0.5625,0.5625 v 0.375 q -0.28125,0.75 -1.3125,0.75 v 1.5 h -0.375 l -0.75,-1.125 h -0.375 l -0.1875,0.75 h -0.1875 q -0.375,-1.5 -1.125,-1.5 l 0.1875,-0.5625 h 0.1875 l 0.5625,0.375 0.1875,-1.3125 h 0.1875 l 0.5625,0.375 h 0.5625 q 0.375,0 0.375,-0.5625 -0.375,-2.4375 -1.125,-2.4375 l 0.1875,-0.75 -0.5625,-1.125 v -0.375 q 0.5625,0 0.5625,-0.375 l -0.1875,-1.3125 h 0.375 l 0.5625,0.375 0.5625,-0.75 q -0.75,-0.1875 -0.75,-0.75 l -0.1875,0.1875 h -0.1875 l -0.375,-0.375 v -0.1875 q 0.60937,-3.140625 1.125,-3.75 l -0.5625,-0.9375 0.5625,-0.75 -0.1875,-1.3125 v -0.75 l 0.375,-0.375 h 0.1875 v 0.9375 l 0.1875,0.9375 h 0.5625 l 0.375,-0.375 v -0.375 l -0.1875,-1.125 q 0.28125,-0.75 0.5625,-0.75 l -0.1875,-0.9375 v -0.1875 h 0.9375 l 0.375,-0.375 q 0,-0.46875 -1.6875,-0.9375 l -0.1875,-1.5 1.125,0.1875 h 0.1875 v -0.1875 q -1.3125,-0.1875 -1.3125,-0.75 l 0.1875,-0.75 -0.1875,-0.1875 v -0.1875 q 0,-3.375 1.5,-3.375 h 7.125 l 0.1875,0.1875 h 0.1875 z m -3.375,21.375 h -0.1875 q 0,-0.9375 -0.75,-0.9375 l -0.5625,0.1875 v -0.1875 l -0.75,0.5625 v 0.375 l 1.125,0.75 h 0.1875 l 0.9375,-0.1875 0.1875,0.75 -0.75,1.875 0.1875,0.9375 -0.375,3 0.375,1.3125 -1.6875,6.1875 q 0.32812,1.3125 1.125,1.3125 l 2.0625,-0.1875 q 1.875,0.09375 1.875,0.5625 v 0.9375 q 0,0.5625 -1.3125,0.5625 l -0.1875,0.5625 1.125,1.3125 h 0.1875 v -0.75 l -0.5625,-0.1875 -0.1875,0.1875 v -0.375 l 0.375,-0.5625 q 0.5625,0 0.5625,0.9375 h 0.5625 q 0,-0.5625 0.5625,-0.5625 l 0.1875,-0.1875 v -1.3125 l -0.9375,0.1875 v -0.75 q 0.1875,-0.5625 1.125,-0.5625 0.28125,1.40625 1.3125,1.875 l 0.5625,-0.1875 v -0.1875 q -1.125,-1.21875 -1.125,-3.375 -0.375,0 -0.375,-1.125 -0.5625,0 -0.5625,-0.375 v -0.375 q 0.5625,-0.703125 0.5625,-1.3125 v -0.1875 q -1.125,0 -1.125,-0.9375 l -0.375,-1.875 v -0.1875 q 0.79687,0 1.6875,-0.75 h 0.5625 v -0.1875 l -0.1875,-0.1875 v -0.1875 l -2.0625,0.375 q -0.51563,-1.078125 -0.75,-4.125 l 0.5625,-1.5 q -1.40625,0 -1.6875,-5.25 l -0.375,-0.375 q -0.5625,0 -1.125,4.6875 z m -2.0625,-1.6875 v 0.375 h 0.5625 v -0.375 z m 6.75,0.1875 v 0.75 h 0.1875 l 0.1875,-0.5625 -0.1875,-0.1875 z m -8.0625,0.9375 0.1875,0.1875 h 0.375 l 0.375,-0.375 v -0.1875 h -0.5625 z m 7.3125,0 v 0.1875 l 0.375,0.375 0.1875,-0.1875 v -0.375 z m -11.25,3 0.375,0.375 h 0.1875 l 0.1875,-0.75 h -0.375 z m 2.4375,1.3125 v 0.375 h 0.1875 l 0.5625,-0.1875 1.125,0.1875 h 0.1875 v -0.5625 l -0.75,-0.1875 z m -4.6875,3.1875 0.5625,0.75 v 0.1875 l -0.375,0.375 h -0.75 v -0.375 h -0.1875 q 0.375,-0.84375 0.75,-0.9375 z m 15.5625,1.3125 v 0.375 h 0.1875 l 2.25,0.1875 v -0.5625 l -1.3125,-0.375 z m -15,0.375 h 0.1875 v 0.9375 h -0.375 l -0.375,-0.375 z m 17.625,0.75 v 0.5625 h 0.375 v -0.5625 z m -3.375,0.1875 v 0.1875 l 0.375,0.375 h 0.5625 v -0.1875 l -0.375,-0.375 z m -12.9375,2.0625 0.1875,0.9375 -0.375,0.5625 v 0.1875 h 1.125 v -0.375 h 0.1875 l -0.1875,-0.1875 v -0.1875 l 0.1875,-1.125 h -0.75 l -0.1875,0.1875 z m -0.75,0 v 0.375 h 0.1875 l 0.375,-0.375 z m -1.125,1.125 0.1875,1.875 h 0.1875 l 0.5625,-1.6875 -0.1875,-0.1875 z m 17.4375,0.9375 v 0.375 h 0.5625 l 0.1875,-0.5625 -0.1875,-0.1875 h -0.1875 z m 1.125,-0.1875 v 0.9375 h 0.1875 v -0.9375 z m -0.1875,1.5 -0.1875,0.5625 0.375,0.5625 0.75,-0.5625 q 0,-0.421875 -0.9375,-0.5625 z m -1.6875,1.6875 v 0.1875 l 0.9375,0.1875 h 0.375 l 0.375,-0.375 v -0.375 l -0.1875,0.1875 h -0.5625 v -0.375 h -0.375 z m -3.9375,0.5625 h 0.5625 v 0.375 l -0.5625,-0.1875 z m -8.25,2.0625 v 0.1875 l 0.75,-0.1875 q 0.5625,0 0.5625,0.5625 l 0.1875,0.1875 h 0.375 l 0.375,-0.375 v -0.375 q -1.125,0 -1.125,-0.9375 h -0.1875 z m 11.625,-0.9375 -0.1875,0.1875 v 0.75 h 0.5625 v -0.5625 z m -4.3125,2.625 v 0.5625 h 0.375 v -0.5625 z m 6.375,0.375 v 0.1875 l 0.375,0.5625 -0.5625,0.75 h 1.5 v -0.5625 l -0.75,-0.9375 z m 1.5,0.75 v 0.75 h 0.1875 l 1.5,-0.1875 v -0.5625 h -1.125 l -0.1875,0.1875 h -0.1875 z m 2.0625,0.9375 q 0,0.5625 -0.375,0.5625 l -0.9375,-0.1875 v 0.5625 q 0,0.375 0.5625,0.375 l 0.5625,-0.1875 v 0.1875 l -0.1875,0.5625 1.125,0.375 0.1875,-0.1875 v -0.375 q -0.5625,-0.65625 -0.75,-1.6875 z m 0.1875,2.8125 v 0.1875 l 0.375,0.375 v -0.5625 z m -0.1875,0.9375 -0.1875,0.5625 h 0.375 l 0.375,-0.375 v -0.1875 z m -1.3125,1.3125 v 0.1875 h 1.125 v -0.375 l -0.375,-0.375 z m -1.875,-0.375 v 0.5625 l 0.375,0.375 h 0.5625 v -0.375 l -0.5625,-0.5625 z m -18.9375,1.125 v 0.5625 h 0.375 v 0.1875 l 0.75,-0.5625 v -0.5625 h -0.75 z m 2.625,1.3125 v 0.1875 l 0.375,0.375 h 0.1875 l 0.375,-0.375 -0.1875,-0.1875 z m 15.5625,0.75 v 0.5625 h 0.1875 l 0.375,-0.375 -0.1875,-0.1875 z m -20.0625,0.5625 v 0.1875 l 5.625,1.875 v -0.375 z" stroke-width="0" stroke-linejoin="miter" stroke-miterlimit="2" fill="#729488" stroke="#729488" transform="translate(0 316.38624999999996) translate(451.80172709999994 20.72328125) scale(1.67) translate(-483.05469 59.578125)"></path>
        <path id="path25758" style="font-style:normal;font-weight:400;font-size:72px;line-height:1;font-family:Boycott;font-variant-ligatures:none;text-align:center;text-anchor:middle" d="m 537.5,-70.21875 q 1.875,0.46875 1.875,0.75 l -0.1875,0.1875 v 0.1875 l -0.9375,-0.1875 -0.5625,0.375 -1.3125,-0.5625 -0.75,0.375 -0.1875,-0.1875 H 535.25 q -3,0.328125 -3,0.75 l -0.75,-0.1875 v -0.1875 l 3.9375,-1.125 1.125,0.1875 z m -7.125,1.3125 h 0.9375 v 0.375 H 530.75 Z m 19.6875,0 h 0.5625 l -0.375,0.375 h -0.1875 z m -19.875,7.3125 0.375,0.5625 q -2.0625,1.546875 -2.0625,1.875 0.5625,0 0.5625,0.375 -0.46875,0 -0.5625,0.75 l -0.9375,0.375 0.5625,0.9375 q 0.5625,0 0.5625,-1.125 h 0.1875 q 0.60937,0.5625 1.125,0.5625 l -0.375,1.125 0.75,1.125 v 0.375 H 530 l -0.1875,0.1875 -0.5625,-0.5625 h -0.1875 q -1.07813,0.703125 -1.125,1.125 l 0.1875,1.125 h 0.75 v -0.375 h 0.5625 l 0.75,0.5625 0.1875,-0.1875 0.1875,0.1875 -0.1875,0.1875 v 0.5625 h 0.5625 l 0.5625,-0.5625 -0.5625,-0.1875 v -0.5625 l 0.1875,-0.9375 -0.375,-0.375 v -0.1875 l 0.5625,-0.1875 q -0.0937,-1.5 -0.75,-1.5 v -0.75 q 0,-0.515625 0.9375,-0.5625 v -0.5625 h -0.9375 v -0.1875 l 0.5625,-0.9375 -0.1875,-0.5625 h 0.1875 l 1.3125,-0.5625 0.75,0.1875 0.1875,-0.75 1.5,0.5625 1.125,-0.1875 0.5625,0.5625 h 0.1875 v -0.375 l -0.1875,-0.1875 v -0.1875 l 0.1875,-0.1875 h 1.125 l 3.9375,0.9375 0.1875,-0.1875 h 1.875 l 0.9375,-0.1875 q 0,0.5625 0.75,0.5625 v 0.375 q -0.5625,0 -0.5625,0.375 1.21875,0.984375 1.3125,1.6875 l 0.1875,0.1875 h 0.1875 l 0.1875,-0.1875 0.1875,0.1875 h 0.5625 v -0.375 q -0.5625,0 -0.5625,-0.375 v -0.375 l 0.75,-0.1875 0.375,0.375 h 0.1875 q 0.9375,0 0.9375,-0.5625 H 549.5 l 0.5625,0.375 0.1875,-0.1875 h 0.1875 l 1.3125,0.5625 -0.375,1.125 h 0.1875 l -0.375,0.75 0.375,0.75 -0.1875,0.5625 h 0.1875 q 0.375,0 0.375,-0.5625 H 552.5 l 0.375,1.3125 h -1.5 l 0.5625,0.5625 h 0.1875 l 0.1875,-0.1875 H 552.5 l 0.1875,0.1875 v 0.1875 l -1.125,1.3125 0.5625,0.5625 q -0.375,1.3125 -1.125,1.3125 l -0.9375,0.375 v -0.1875 l -0.5625,0.1875 v 0.1875 q 1.875,1.03125 2.0625,1.6875 v 0.1875 l -0.375,0.375 H 551 q 0,-0.5625 -0.375,-0.5625 l -0.1875,0.1875 v 0.1875 l 0.1875,0.1875 h 0.1875 q -0.28125,1.875 -0.75,1.875 l 0.1875,0.1875 v 0.5625 l -0.75,1.125 h -0.375 q -1.40625,0 -2.8125,-1.6875 h -0.1875 l 0.375,1.3125 -1.5,0.375 h -3.5625 l -0.5625,-0.5625 0.1875,-0.5625 q 0,-2.8125 -1.5,-4.3125 0,-2.0625 -8.4375,-2.0625 l -0.75,0.1875 0.1875,1.875 -0.1875,1.3125 0.1875,0.75 h -0.1875 l 0.1875,0.1875 v 3.75 l -0.1875,0.1875 v 0.1875 l -2.4375,-1.125 q -2.4375,0.140625 -2.4375,0.375 l -0.9375,-0.1875 h -3.1875 l -0.1875,-0.9375 0.5625,-1.125 v -0.1875 q -0.5625,0 -0.5625,-0.375 l 0.375,-1.3125 q -0.375,-0.328125 -0.5625,-4.5 l 0.1875,-2.25 -0.1875,-0.1875 v -0.1875 l 0.375,-1.6875 -0.375,-2.625 q 0.46875,-1.3125 0.75,-1.3125 h 0.9375 l 1.875,0.1875 3,-0.375 v -0.375 l -0.9375,-0.1875 0.375,-0.375 q 1.3125,0.1875 1.3125,0.5625 1.35937,-0.234375 1.875,-0.75 z m 5.625,3.5625 -0.375,0.5625 0.5625,0.375 0.375,-0.375 v -0.375 z m 12.9375,0.5625 q 1.125,0.375 1.125,1.5 h -0.5625 v 0.1875 l 0.1875,0.1875 v 0.1875 l 0.75,-0.375 0.1875,0.1875 q 0.375,-0.75 0.375,-2.0625 v -0.1875 l -1.125,-0.1875 q -0.9375,0.234375 -0.9375,0.5625 z m 4.6875,-0.5625 h 0.75 v 0.375 h -0.375 z m 4.6875,0.1875 h 0.375 v 0.5625 l -0.375,-0.375 z m -5.4375,0.5625 h 0.1875 l 0.375,0.375 v 0.375 q 0,0.375 -0.5625,0.375 l -0.5625,-0.1875 v -0.375 q 0.5625,0 0.5625,-0.5625 z m -17.8125,0.375 v 0.5625 l 0.5625,0.1875 0.1875,-0.1875 v -0.5625 z m 21.9375,0.375 H 557 q 1.03125,0 1.5,0.9375 v 0.1875 l -0.5625,0.9375 0.75,1.125 v 0.375 h -0.75 l -1.5,-2.4375 q 0.375,0 0.375,-1.125 z m -20.4375,1.125 v 0.375 l 0.75,1.125 h 1.125 q 0,-0.5625 0.75,-0.5625 l 0.375,-0.9375 H 539 q 0,0.515625 -1.125,0.75 l -1.125,-0.75 z m 27.375,0.5625 h 0.1875 v 0.375 l -0.375,0.375 h -0.375 v -0.1875 z m -2.0625,0.5625 0.1875,0.1875 q -0.28125,0.75 -0.5625,0.75 h -0.375 q 0.375,-0.84375 0.75,-0.9375 z m -25.3125,0.375 q 0,0.890625 -0.375,1.3125 v 0.1875 h 0.75 l 0.375,-1.3125 -0.1875,-0.1875 z m 24.9375,1.3125 H 561.5 v 0.5625 l -0.375,0.375 -0.375,-0.5625 z m -3.9375,1.3125 q 1.125,0.09375 1.125,0.5625 v 0.1875 l -0.9375,0.375 -0.5625,-0.1875 z m -28.3125,0.75 v 0.375 h 0.1875 l 0.375,-0.375 z m -6.9375,3 0.1875,0.1875 H 522.5 l 0.375,-0.375 v -0.375 z m 7.5,5.25 h 0.75 v 0.1875 q 0,0.984375 -0.5625,1.125 l -0.1875,-0.1875 h -0.1875 z m 0.1875,1.875 H 530 l 0.375,0.375 -0.1875,0.5625 H 530 l -0.375,-0.375 z m 22.5,0.5625 v 0.1875 l -0.375,0.375 -0.1875,-0.1875 v -0.1875 l 0.1875,-0.1875 z m -8.0625,0.1875 h 0.375 l 1.3125,0.75 q 1.07812,-0.5625 2.625,-0.5625 1.21875,0 1.6875,1.875 l -0.1875,0.75 0.75,0.1875 0.75,-0.1875 h 0.375 q 0,0.5625 -1.6875,0.5625 l -0.375,0.5625 v 0.1875 l 0.1875,0.1875 v 0.1875 l -0.1875,0.1875 0.75,0.375 v 0.1875 q -1.35938,0 -1.875,3.375 -1.3125,2.53125 -3.5625,4.5 0.89062,4.6875 1.5,4.6875 l -0.1875,0.1875 v 0.1875 q 0.1875,1.875 0.5625,1.875 l -0.1875,0.1875 v 0.1875 l 1.6875,6.375 1.875,7.5 -0.1875,0.1875 v 0.1875 q 0.75,1.40625 1.125,3.5625 l -0.375,0.375 0.1875,0.5625 -0.1875,0.1875 h -6.1875 l -0.5625,-0.375 h -0.1875 l -0.5625,0.375 h -0.9375 q -0.65625,0 -1.6875,-5.25 h 0.1875 q -1.125,-3.046875 -4.125,-15.5625 l 0.1875,-0.5625 q -0.375,0 -0.375,-0.75 l -0.75,-0.375 -1.875,0.1875 -3.375,-0.1875 -0.1875,0.1875 v 0.5625 l 0.1875,0.75 -0.1875,1.3125 v 3.75 l 0.375,1.125 -0.5625,1.6875 0.1875,1.6875 -0.1875,1.3125 0.1875,2.0625 v 3 l -0.1875,3 0.1875,1.3125 q -0.46875,0.5625 -1.5,0.5625 v 0.1875 l -0.5625,-0.1875 -5.8125,0.1875 q -1.3125,0.046875 -1.3125,-0.75 l 0.1875,-1.3125 -0.1875,-1.5 0.1875,-5.0625 -0.1875,-0.9375 h 0.1875 l -0.1875,-0.5625 0.1875,-1.3125 -0.1875,-0.9375 0.375,-1.6875 -0.375,-1.5 v -2.625 l 0.1875,-0.75 -0.1875,-0.75 v -2.0625 l 0.1875,-0.1875 -0.1875,-0.1875 v -0.75 l 0.1875,-1.6875 -0.1875,-0.1875 v -0.1875 l 0.1875,-0.75 -0.1875,-0.5625 q 0.70312,-2.4375 2.8125,-2.4375 v 0.5625 h -0.5625 v 0.1875 l 0.75,1.3125 q 0.42187,0 1.6875,-1.5 0.42187,1.6875 0.75,1.6875 H 527 q 0.84375,-0.28125 1.5,-1.6875 -0.9375,0 -1.875,-1.6875 l 1.875,-0.1875 1.125,0.375 H 530 l 0.1875,-0.1875 2.8125,0.5625 q 0.28125,-2.25 0.75,-2.25 h 0.5625 l 0.1875,0.1875 h 0.1875 v -0.1875 l 0.5625,0.1875 0.1875,-0.1875 h 0.1875 l 0.75,0.1875 2.8125,-1.3125 q 0.5625,-0.9375 1.3125,-0.9375 l -0.1875,-0.5625 q 0.28125,-0.75 0.5625,-0.75 h 0.1875 v 0.1875 l -0.1875,1.125 0.375,1.125 v 2.4375 l -0.1875,1.125 0.1875,0.9375 v 0.1875 l -0.5625,3.5625 0.1875,0.1875 H 542 v -1.5 l -0.375,-1.5 v -2.0625 l 0.1875,-1.875 -0.1875,-1.125 q 0.0937,-2.25 0.375,-2.25 l 1.125,-0.1875 0.1875,0.1875 0.375,-0.75 v -0.375 q -0.1875,-0.5625 -1.125,-0.5625 l -0.1875,0.9375 q -0.75,-0.1875 -0.75,-2.0625 0.375,0 0.375,-0.5625 h 0.1875 q 0,1.125 0.375,1.125 h 0.1875 q 0.84375,-2.484375 1.5,-2.8125 z m -14.25,0.375 h 0.1875 l 0.375,1.3125 -0.1875,0.1875 h 0.1875 l -0.1875,0.1875 0.1875,1.125 -0.1875,0.75 0.1875,1.6875 -0.1875,0.9375 0.1875,0.1875 v 0.1875 l -0.5625,2.25 q -2.625,-0.140625 -2.625,-0.9375 0.75,0 0.75,-0.375 l -0.375,-0.375 q 0,0.328125 -1.3125,0.5625 v 0.1875 l 0.1875,1.3125 h -0.1875 l -0.9375,0.375 h -0.1875 l -0.1875,-0.1875 -0.1875,0.1875 h -0.5625 l -0.75,-0.5625 -0.75,0.5625 v -0.1875 q 0.5625,-0.9375 1.125,-0.9375 l 0.5625,0.1875 q 1.03125,-0.84375 1.125,-1.875 0.9375,0 0.9375,-0.5625 v -0.1875 H 527 l 0.1875,0.1875 h 0.1875 l 0.375,-0.375 h 0.5625 l 0.75,1.5 h 0.1875 l 0.1875,-0.1875 v -0.375 l -0.375,-0.375 0.5625,-1.5 -0.1875,-0.1875 h -0.375 v 0.1875 l 0.1875,0.5625 h -0.1875 q -0.9375,-0.140625 -0.9375,-0.5625 v -0.1875 l 1.5,-1.3125 v -0.1875 l -0.375,-0.375 q -0.375,0 -0.375,0.5625 l -0.1875,0.1875 H 528.5 v -0.5625 q 0,-0.5625 1.3125,-0.5625 l 0.375,-0.5625 -0.75,-0.375 -0.5625,0.1875 -0.1875,-0.1875 z m 16.6875,2.25 v 0.375 h 0.5625 l -0.375,-0.375 z m 4.125,1.5 h 0.375 l 0.1875,0.75 -0.5625,0.375 v -0.375 h -0.1875 z m -26.25,3.5625 h 0.1875 v 0.375 h -0.5625 z m 7.125,0.375 0.1875,0.1875 v 0.375 q 0,0.328125 -1.125,0.5625 l -0.1875,-0.1875 v -0.1875 q 0.1875,-0.75 1.125,-0.75 z m 3.1875,0.5625 0.9375,0.9375 v 0.1875 h -0.75 l -0.1875,-0.1875 h -0.1875 l -0.1875,0.1875 v 0.1875 l 0.375,0.375 0.1875,-0.1875 0.375,1.3125 q -0.75,0.1875 -0.75,0.9375 l 0.1875,0.1875 h 0.5625 L 539,-29.53125 v -0.375 l -0.5625,-0.1875 -1.6875,0.9375 h -0.5625 v -0.375 l -0.1875,-0.1875 0.375,-0.375 h 0.1875 q -0.46875,-1.21875 -0.9375,-1.3125 h -0.375 z m -12.75,1.3125 h 0.375 l -0.375,0.375 h -0.375 z m 2.4375,1.6875 h 0.5625 l -0.375,0.375 -0.1875,-0.1875 z m 36.375,0 v 0.75 q -0.75,0.04687 -0.75,0.375 l -1.6875,-0.375 v -0.5625 h 1.125 z m 1.125,0 h 0.375 v 0.1875 l -0.1875,0.1875 q 0.32812,0.796875 1.6875,1.875 l 0.1875,-0.1875 h 0.5625 q 0.375,0 0.375,0.5625 h 0.375 l 0.75,-0.1875 q 1.125,0.234375 1.125,0.5625 l -0.1875,0.75 -1.6875,-0.1875 -0.75,0.1875 -0.9375,-0.75 h -0.1875 l -0.5625,0.5625 0.5625,0.1875 v 0.375 h -0.75 l -0.9375,0.1875 v -0.1875 l 0.375,-0.75 q -0.42188,-1.125 -0.75,-1.125 -0.23438,1.125 -0.5625,1.125 l -0.5625,-0.5625 0.1875,-0.5625 h -0.9375 l -0.1875,0.1875 H 559.25 l -0.1875,-0.1875 v -0.1875 q 0,-0.46875 2.0625,-0.75 l 0.375,0.375 0.375,-0.5625 v -0.1875 l -0.375,-0.5625 z m -32.0625,0.9375 -0.1875,0.5625 H 530 l -0.1875,0.1875 v 0.1875 l 0.375,0.5625 q -0.75,0 -0.75,0.5625 l 1.3125,0.5625 h 0.75 l 0.5625,-0.5625 q 0,-0.5625 -1.5,-0.5625 l 0.375,-0.5625 v -0.375 l -0.5625,-0.5625 z m 3.75,0.375 -0.1875,0.1875 v 0.1875 l 0.1875,0.1875 h 0.375 v -0.1875 z m -8.25,0.9375 q 0,0.375 1.125,0.375 v 0.375 l 0.375,-0.375 -0.5625,-0.75 h -0.5625 z m 28.6875,0 q -0.5625,0.890625 -0.5625,1.6875 l -0.75,-0.1875 -0.75,0.1875 v -0.375 q 1.3125,-1.3125 2.0625,-1.3125 z m -29.8125,1.3125 -0.1875,0.1875 v 0.1875 l 0.9375,0.1875 v -0.375 z m 1.875,0.375 h 0.5625 v -0.375 h -0.1875 z m 25.5,0 q 0,0.703125 -1.6875,1.125 0,-0.890625 1.6875,-1.125 z m -2.0625,1.3125 h 0.1875 v 0.5625 l -2.625,0.75 v -0.375 z m -24.1875,0.375 v 0.375 h 0.5625 v -0.375 z m 0.5625,1.875 v 0.5625 l 0.375,0.375 0.375,-0.375 -0.375,-0.375 0.375,-0.375 0.75,0.5625 0.375,-0.375 v -0.1875 L 527,-20.90625 h -0.5625 z m 13.6875,1.5 v 0.375 h 0.5625 l -0.375,-0.375 z m -11.0625,4.6875 v 0.1875 h 0.1875 l 0.1875,-0.1875 h 0.1875 l 0.75,0.1875 h 0.1875 v -0.75 h -0.5625 z m -1.125,0.5625 -0.1875,0.1875 v 0.375 l 0.375,0.375 0.375,-0.375 z m -2.8125,0.375 v 0.9375 l -0.375,0.375 -0.5625,-0.375 -0.375,0.375 v 0.9375 l 0.1875,-0.1875 h 1.3125 l 0.1875,0.1875 h 0.1875 l -0.375,0.75 H 525.5 q 0,-0.9375 0.75,-0.9375 v -0.1875 l -0.5625,-0.5625 0.375,-0.75 q -0.51563,0 -1.125,-0.5625 z m -2.0625,0.375 v 0.375 h 0.5625 v -0.375 z m 6.5625,0.5625 v 0.1875 h 0.375 l 0.375,-0.375 -0.1875,-0.1875 h -0.1875 z m 16.6875,2.4375 v 0.5625 h 0.75 v -0.5625 z m 0.375,2.25 -0.1875,0.1875 v 0.5625 l 0.5625,0.5625 h 0.1875 v -0.75 z m -4.125,0.5625 v 0.1875 l 0.375,0.375 q 0.75,-0.28125 0.75,-0.5625 z m 4.3125,1.6875 v 0.5625 l 0.375,0.375 0.1875,-0.75 -0.1875,-0.1875 z m 10.3125,9 L 557,3.65625 Q 556.625,4.5 556.25,4.59375 h -0.9375 v -0.1875 q 0.46875,-0.9375 1.5,-0.9375 z m -2.0625,1.125 h 0.5625 v 0.1875 q -0.9375,0 -1.875,2.4375 h -0.375 l -0.1875,-0.9375 q 0,-0.9375 1.125,-0.9375 z" stroke-width="0" stroke-linejoin="miter" stroke-miterlimit="2" fill="#85a097" stroke="#85a097" transform="translate(0 316.38624999999996) translate(515.1703948 2.953437500000007) scale(1.67) translate(-521 70.21875)"></path>
        <path id="path25760" style="font-style:normal;font-weight:400;font-size:72px;line-height:1;font-family:Boycott;font-variant-ligatures:none;text-align:center;text-anchor:middle" d="m 560.9375,-59.625 0.9375,0.1875 2.4375,-0.1875 0.375,0.5625 v 4.6875 l 0.375,0.375 0.1875,-0.75 -0.1875,-1.3125 v -3 l 0.5625,-0.5625 h 0.5625 l 2.25,0.1875 0.1875,-0.1875 0.75,2.4375 -0.375,1.3125 0.1875,0.1875 L 569,-54.75 v 2.4375 l -0.1875,0.75 L 569,-50.25 V -36 l 0.1875,4.5 -0.1875,1.125 0.1875,1.5 -0.1875,0.75 0.1875,3 v 3 L 569,-19.3125 h -0.1875 q -0.60938,-3 -0.9375,-3 v 0.375 l 0.375,1.875 q -0.375,0.09375 -0.75,0.9375 1.21875,0 1.6875,3.9375 -0.0937,1.6875 -0.375,1.6875 l -0.75,0.1875 -0.75,-0.1875 h -0.1875 v 0.375 h 0.1875 q 1.35937,0 2.76562,2.0625 l 2.29688,3.375 -1.3125,1.125 0.1875,0.75 h 0.1875 q 0.375,0 0.375,-0.9375 l 0.9375,0.1875 0.5625,-0.1875 0.375,0.75 -0.5625,0.5625 v 0.375 q 0,0.5625 0.75,0.5625 L 575,-4.875 q 0.0937,0.75 0.5625,0.75 l 0.5625,-0.1875 1.125,0.1875 h 0.375 l 0.1875,-0.1875 H 578 V -4.125 L 577.8125,-3.5625 578,-3.375 h 0.1875 l 0.75,-0.75 -0.1875,-0.75 h 0.1875 l 0.9375,0.1875 v -0.75 h -1.5 l -0.5625,0.375 h -0.75 l -0.375,-0.375 2.0625,-1.3125 v -0.5625 q -1.26563,0 -1.6875,-0.75 L 575.75,-7.875 h -0.375 v -0.1875 q 2.8125,-1.5 2.8125,-1.875 0.70312,0 1.3125,-3.9375 v -0.375 l -0.1875,-2.625 0.375,-0.9375 -0.375,-1.125 V -19.125 L 579.5,-19.3125 579.3125,-19.5 v -4.6875 l -0.1875,-0.9375 0.375,-0.375 -0.75,-0.375 0.1875,-0.9375 q -0.5625,0 -0.5625,-0.375 l 0.9375,-2.25 v -5.4375 l 0.1875,-3.375 -0.1875,-1.125 0.1875,-1.6875 -0.1875,-3.1875 0.1875,-0.1875 v -0.1875 l -0.1875,-0.75 0.1875,-3.75 -0.9375,-0.75 0.5625,-0.375 h 0.5625 l 0.5625,0.9375 v 0.5625 l -0.375,0.5625 0.1875,0.1875 h 0.1875 l 0.1875,-0.75 0.1875,0.1875 h 0.1875 L 581,-48.75 v 1.3125 h 0.1875 L 581.75,-48 v -0.5625 L 581,-48.75 l 0.1875,-0.1875 V -49.125 L 581,-50.4375 581.75,-51 v -0.1875 l -1.125,-0.75 h -0.1875 v -0.1875 l 0.375,-0.5625 q 0,-0.5625 -0.5625,-0.5625 l -0.1875,-0.1875 v -0.1875 l -0.1875,0.1875 h -0.1875 l -0.375,-0.375 0.375,-1.125 -0.1875,-0.9375 0.9375,-0.375 v -0.5625 h -0.5625 q 0.28125,-0.75 0.5625,-0.75 H 581 l 1.125,1.125 h 0.1875 q 0,-0.421875 1.3125,-1.875 v -0.5625 l -0.1875,-0.5625 h 2.4375 l 0.1875,-0.1875 q 2.625,0 2.625,1.875 v 4.5 l 0.375,1.875 h -0.1875 q 0.70312,1.875 1.875,1.875 l 0.1875,-0.1875 0.1875,0.1875 v 0.375 l -0.1875,0.1875 q -1.3125,0.609375 -1.3125,0.9375 0.9375,0.234375 0.9375,0.5625 0,0.515625 -1.6875,0.75 v 0.375 h -0.1875 l 0.1875,0.5625 0.9375,-0.1875 q 0,0.9375 1.5,0.9375 l 0.5625,0.5625 q -1.5,0 -1.5,0.9375 h -1.3125 v -0.375 h -0.1875 v 1.3125 l 0.1875,0.9375 -0.1875,1.125 v 3.1875 l 0.1875,0.9375 -0.1875,1.125 v 2.625 q 0,1.59375 0.5625,2.25 l -0.5625,0.1875 v 3 l 0.1875,1.125 -0.1875,0.9375 v 0.1875 l 0.375,0.5625 -0.375,1.125 v 4.6875 l -0.1875,0.9375 0.1875,1.125 v 4.125 q 0,3.140625 -1.6875,5.8125 L 587.375,-6 h 0.1875 q 0.98437,0 1.125,-0.5625 L 588.5,-6.75 v -0.1875 l 1.875,-0.75 v 0.375 q -0.60938,0 -0.75,1.3125 l -0.9375,0.375 h -0.375 l -0.1875,-0.1875 q -1.96875,0.65625 -2.8125,1.875 -0.375,0 -0.75,0.9375 -4.54688,3.75 -8.8125,3.75 L 575,0.9375 h -0.1875 q -0.65625,0 -1.5,-0.75 h -0.9375 l -0.5625,0.375 q -3.32813,-0.328125 -7.6875,-3.9375 -1.6875,-1.96875 -1.6875,-2.8125 l 0.1875,-0.1875 q -1.3125,0 -2.4375,-5.625 l 0.1875,-1.125 -0.1875,-0.5625 0.1875,-0.75 -0.1875,-2.8125 0.5625,-0.9375 q -0.5625,-0.703125 -0.5625,-1.3125 v -2.625 q 0,-0.375 0.75,-0.375 v -0.5625 q -0.75,0 -0.75,-0.5625 v -3 l 0.375,-0.5625 v -0.375 l -0.375,-0.5625 v -0.75 l 0.9375,-2.4375 h -0.1875 l -0.5625,0.1875 v -0.1875 l -0.1875,-0.1875 0.1875,-0.1875 V -32.625 L 560.1875,-32.8125 560.375,-33 v -0.75 l -0.1875,-0.1875 q 0,-1.125 1.5,-1.125 l 0.5625,0.1875 v -0.1875 l -0.1875,-0.5625 q 0,-1.828125 3,-3.1875 0.75,0.28125 0.75,1.125 H 566 l 0.5625,-0.5625 h 0.1875 v -0.5625 L 566.1875,-39 l 0.1875,-0.5625 -0.5625,-0.1875 v -0.375 l 0.375,-0.5625 -0.375,-1.125 0.375,-0.5625 v -0.1875 q -0.5625,0 -0.5625,-0.375 l 0.1875,-1.3125 -0.375,-0.9375 0.5625,-0.9375 -0.75,-2.0625 0.5625,-0.1875 v -0.1875 Q 565.25,-49.265625 565.25,-49.875 l 0.1875,-1.875 -0.375,-1.6875 h -0.1875 v 0.375 h -0.1875 l 0.1875,0.5625 -0.1875,0.9375 0.1875,1.3125 -0.1875,0.1875 H 564.5 l -0.5625,-0.375 -0.5625,0.375 H 563 l -0.375,-0.375 V -50.625 L 563,-51.1875 v -0.375 l -0.75,-0.75 -0.5625,0.9375 0.5625,0.75 -0.1875,0.75 0.5625,1.125 q -0.9375,0.46875 -0.9375,1.5 h 1.125 q 0,-0.609375 0.9375,-1.125 h 0.375 q 0,1.125 0.75,1.125 -0.5625,0.703125 -0.5625,1.3125 v 0.5625 l 0.1875,-0.1875 h 0.5625 v 0.1875 l -0.1875,1.3125 0.5625,1.125 -0.375,0.375 0.1875,0.1875 v 0.5625 h -0.5625 v 0.1875 l 0.5625,0.75 v 0.1875 l -0.1875,0.1875 v 0.1875 l 0.5625,0.1875 v 0.375 l -0.75,0.75 -0.1875,-0.1875 H 564.5 L 563.5625,-39 563.375,-39.9375 h -0.5625 v 0.1875 h 0.375 v 0.1875 q 0,0.65625 -0.5625,1.125 l -1.3125,-0.75 q -0.375,0 -0.375,0.5625 l -0.1875,0.1875 h -0.1875 l -0.375,-0.375 v -0.75 l 0.1875,-0.1875 v -0.1875 h -0.1875 l 0.1875,-0.1875 v -0.1875 l -0.375,-1.125 0.375,-1.125 -0.1875,-1.125 v -0.1875 l 0.5625,-0.1875 -0.5625,-1.6875 0.1875,-0.9375 1.125,0.375 V -46.5 L 560.1875,-47.625 560,-49.6875 560.1875,-50.25 560,-51.1875 560.1875,-53.25 560,-54 l 0.1875,-0.1875 V -54.375 L 560,-55.6875 560.1875,-56.625 560,-58.5 v -0.375 q 0.0937,-0.375 0.9375,-0.75 z m 21.375,0.1875 h 0.5625 v 0.375 h -0.5625 z m 1.3125,2.8125 v 0.375 l 0.375,0.375 h 0.1875 v -0.75 z m 6.75,5.0625 -0.1875,0.5625 h -0.5625 v -0.375 z m 1.3125,1.875 h 0.75 l 1.875,0.75 q 1.3125,0 1.3125,0.375 v 0.375 l -0.375,0.375 0.375,1.6875 h -0.5625 L 594.5,-46.5 h -0.75 v 0.375 l -0.1875,0.1875 0.1875,0.1875 q 0.9375,0.328125 0.9375,0.9375 l 0.9375,-0.9375 0.9375,1.125 -0.1875,0.9375 h -0.5625 v -0.375 h -0.1875 q -0.42188,0.46875 -1.875,0.9375 l -0.1875,0.1875 Q 592.85937,-43.5 592.25,-43.5 h -0.5625 v -0.5625 q 0.84375,0 1.3125,-1.3125 v -0.9375 q 0,-0.328125 -1.6875,-0.5625 l 0.1875,-0.1875 v -1.5 L 591.3125,-48.75 Z M 564.5,-49.5 h 0.375 v 0.5625 H 564.5 Z m 18.1875,0.5625 v 0.5625 h 0.5625 z m 19.5,0 0.1875,0.1875 v 0.5625 h -0.5625 v -0.375 z m 1.5,0 0.9375,0.375 v 0.375 l -0.375,0.375 h -0.1875 q -0.375,0 -0.5625,-1.125 z m 7.125,0.375 -0.1875,0.9375 0.375,1.875 h -0.375 q -0.42188,0 -0.5625,-2.625 l 0.1875,-0.1875 z m -18.375,0.375 v 0.375 l 0.375,0.375 H 593 l 0.375,-0.375 z m 8.4375,1.875 h 0.1875 l 0.375,0.375 v 0.1875 z m -33.75,0.9375 0.1875,1.3125 H 567.5 l 0.375,-0.375 V -45.375 L 567.5,-45.75 Z m -4.3125,0.5625 0.1875,0.1875 0.5625,-0.1875 -0.375,-0.375 z m 39,-0.5625 0.375,0.9375 h 0.75 l 0.1875,-0.1875 q 1.125,0.234375 1.125,0.75 h -1.125 q 0,0.5625 -0.375,0.5625 h -1.125 l -0.75,-1.3125 v -0.5625 z m -40.5,1.875 v 0.375 q 0,0.46875 2.0625,0.9375 V -42 h 0.5625 v -0.375 h 0.1875 q -0.5625,-0.75 -0.5625,-1.6875 l -1.125,-0.375 z m 37.875,-0.9375 h 0.1875 v 0.375 l -0.375,0.375 h -0.5625 l -0.375,-0.375 z m 2.25,0.1875 v 0.375 h 0.1875 L 602,-44.25 Z m 8.4375,-0.1875 h 0.5625 v 0.1875 l -0.375,0.375 h -0.1875 z m 1.3125,0.1875 h 0.375 l 0.1875,1.125 -0.1875,0.1875 0.1875,0.1875 -0.1875,0.1875 H 611.375 L 611.1875,-43.5 Z m -44.25,1.875 V -42 H 567.5 v -0.375 z m 25.125,0 h 0.1875 l 0.75,0.75 h -0.5625 L 592.0625,-42 Z m -9,1.3125 v 0.75 h 0.5625 l 0.375,-0.375 -0.375,-0.375 z M 593.375,-41.25 h 0.1875 l 0.5625,0.1875 q 0,0.984375 -0.5625,1.125 h -0.1875 z m -30,4.3125 0.1875,0.1875 h 0.1875 l 0.5625,-0.5625 L 564.125,-37.5 Z M 566,-37.5 565.625,-36.5625 566,-34.875 V -33 l -0.1875,0.9375 0.9375,0.375 v -1.125 L 566.5625,-33 566.75,-33.1875 v -0.1875 l -0.375,-1.875 0.1875,-0.1875 h 0.1875 l 0.1875,0.1875 q 0.75,-0.28125 0.75,-0.5625 l -0.375,-1.6875 z m -4.5,5.625 0.1875,0.5625 h 0.75 l -0.5625,-0.75 -0.1875,0.1875 z m 1.6875,0.75 0.1875,0.5625 q -0.42188,0.375 -1.3125,0.375 v 0.5625 l 0.375,0.5625 q 0.51562,0 1.875,-1.875 V -31.5 h -0.75 z m 3.375,-0.1875 -0.1875,0.5625 q 0.32812,2.25 0.75,2.25 -0.14063,-2.8125 -0.5625,-2.8125 z M 611,-30 h 0.375 q 1.125,0 1.125,0.5625 v 0.375 l -0.75,0.1875 Q 611,-29.15625 611,-29.4375 Z m -3.1875,0.1875 0.5625,0.1875 0.1875,-0.1875 q 2.0625,0.1875 2.0625,0.5625 l -0.1875,0.1875 H 610.25 V -29.25 l -0.1875,0.1875 -1.3125,-0.1875 q -0.89063,0 -1.875,0.5625 l -0.9375,-0.1875 v -0.375 q 0,-0.421875 1.875,-0.5625 z M 605,-29.4375 h 0.375 q 0,0.9375 1.125,0.9375 l -0.5625,0.5625 v 0.1875 q 0.51562,1.359375 1.125,1.875 0,0.375 -1.3125,0.5625 0,0.609375 -1.6875,1.5 L 603.3125,-24 q 0,0.609375 -2.4375,1.125 v -0.75 q 0.1875,-0.5625 1.125,-0.5625 h 0.5625 q 0,-0.75 0.375,-0.75 l 1.125,0.375 0.1875,-0.1875 q 1.125,-0.375 1.125,-1.3125 V -26.25 h -1.3125 q -0.375,0 -0.5625,-1.5 l -0.375,-0.375 v -0.1875 h 0.1875 l 0.5625,0.375 q 0,-0.84375 1.125,-1.5 z m -18,1.3125 v 0.1875 l 0.375,-0.375 V -28.5 Z m 20.625,-0.5625 H 608 l 0.375,0.375 -0.375,0.375 -0.375,-0.375 z m -43.5,0.75 v 0.375 h 0.375 l 0.375,-0.375 -0.375,-0.375 z m 2.8125,0 v 0.5625 l 0.1875,0.1875 -0.1875,0.1875 v 0.75 l 0.375,0.5625 v 0.9375 h 0.375 q -0.23438,-3.1875 -0.75,-3.1875 z M 562.25,-27 563,-25.6875 q -0.9375,0.234375 -0.9375,0.5625 l 0.75,0.375 q 0.75,-0.09375 0.75,-1.5 v -0.375 l -0.375,-1.125 z m 46.125,1.5 h 0.5625 v 0.1875 l -0.375,0.375 -0.1875,-0.1875 z m -46.5,1.3125 v 0.5625 h 0.375 v -0.5625 z m 38.25,0.75 0.1875,0.1875 v 0.375 q -0.9375,0.9375 -3,0.9375 l -2.25,-0.75 v -0.1875 l 0.375,-0.375 q 0.60937,0 1.3125,0.5625 h 0.75 V -23.25 h 1.3125 z m -34.6875,1.875 v 0.1875 l 0.375,0.375 0.5625,-0.1875 V -21.75 Z m -1.6875,0.9375 1.3125,0.375 v -0.1875 l 0.1875,-0.1875 q -0.28125,-0.75 -0.5625,-0.75 z m 30.75,0.1875 h 0.75 l 0.375,0.375 v 0.1875 l -1.3125,0.1875 -0.1875,-0.1875 v -0.1875 z m -29.0625,3.1875 v 0.5625 H 566 V -17.25 Z m 29.8125,-0.1875 0.5625,0.1875 v 0.375 h -0.9375 v -0.375 h 0.375 z m -14.0625,0.75 V -16.5 q 2.71875,8.015625 3.375,8.4375 V -8.25 l -0.9375,-3.1875 -1.6875,-4.125 q 0,-0.984375 -0.5625,-1.125 z m 13.125,1.3125 h 0.9375 v 0.1875 l -0.375,0.375 q 0,-0.375 -0.5625,-0.375 z m -28.875,3.9375 0.1875,0.5625 h 0.5625 v -0.75 h -0.375 l -0.1875,0.1875 z m 1.6875,0.375 v 0.375 q 0.5625,0 1.125,0.75 l 0.1875,-0.5625 -0.375,-0.9375 H 567.5 Z m 32.8125,-0.375 h 0.9375 v 0.375 l -1.3125,0.1875 v -0.1875 z m 1.3125,1.5 h 0.375 V -9.75 l -0.5625,0.5625 h -0.375 l -0.375,-0.375 V -9.75 Z m -4.5,0.375 h 0.1875 q 0.42187,0 0.5625,0.9375 l -1.3125,0.5625 q -0.5625,-0.375 -1.5,-0.375 V -9 Z M 566.5625,-9 l 0.375,0.75 H 566.75 l -0.9375,-0.1875 v 1.125 l 0.375,0.375 h 0.375 q 0,-0.65625 0.9375,-1.6875 V -8.8125 L 567.3125,-9 v -0.1875 z m -2.8125,0.375 0.1875,0.5625 0.375,-0.375 V -8.625 Z m 28.5,0.75 0.1875,0.1875 V -7.5 l -0.5625,0.5625 H 591.5 q 0.375,-0.84375 0.75,-0.9375 z m -27.9375,1.3125 v 0.1875 l 0.375,0.375 0.5625,-0.1875 v -0.375 h -0.375 V -6.75 Z m 2.625,-0.1875 v 0.375 L 567.3125,-6 H 567.5 v -0.75 z m 4.6875,2.0625 h 0.5625 q 0.28125,0 0.5625,-0.75 h -0.1875 z m -3.9375,-0.1875 -0.5625,0.75 v 0.1875 l 0.9375,-0.1875 V -4.5 Z M 581.75,-3.75 v 0.1875 h 0.375 V -4.125 Z m -13.6875,0.1875 0.375,0.375 h 0.1875 v -0.375 z m 3.75,0.5625 h -0.9375 q 0,1.5 1.3125,2.25 h 0.1875 l 0.375,-0.375 v -0.1875 l 1.125,0.375 q -0.0469,-0.328125 -1.875,-1.125 v -0.375 L 572.375,-3 v -0.375 z m 4.3125,0 v 0.1875 h 0.75 l 0.375,-0.375 V -3.375 h -0.75 z m -7.5,0.75 v 0.1875 l 0.1875,0.1875 -0.1875,0.1875 v 0.375 q 0,0.421875 0.9375,0.5625 0,-0.328125 1.125,-0.75 V -1.6875 L 570.125,-1.875 569.9375,-1.6875 569.75,-1.875 v -0.1875 l 0.5625,-0.1875 v -0.5625 q -0.75,0.5625 -1.6875,0.5625 z m 4.6875,-0.1875 0.5625,0.5625 q 0.75,-0.1875 0.75,-0.9375 h -0.5625 z" stroke-width="0" stroke-linejoin="miter" stroke-miterlimit="2" fill="#97ada5" stroke="#97ada5" transform="translate(0 316.38624999999996) translate(580.3003948 20.64500000000001) scale(1.67) translate(-560 59.625)"></path>
        <path id="path25762" style="font-style:normal;font-weight:400;font-size:72px;line-height:1;font-family:Boycott;font-variant-ligatures:none;text-align:center;text-anchor:middle" d="m 606.82812,-60.515625 0.9375,0.1875 h 1.125 l 1.875,0.1875 1.3125,-0.1875 0.1875,0.1875 h 0.1875 l 1.125,-0.375 1.3125,0.1875 h 1.6875 l 1.875,-0.1875 1.3125,0.1875 0.75,-0.1875 2.0625,0.75 0.1875,-0.1875 h 0.1875 l 1.3125,0.9375 h 0.375 v -0.375 q -0.5625,0 -0.5625,-0.375 v -0.1875 l 0.75,-0.1875 q 2.01563,0 2.4375,0.75 h 0.375 l 0.5625,-0.1875 v 0.1875 l 0.375,0.5625 v 0.1875 l -0.5625,-0.1875 q -0.75,0.1875 -0.75,1.3125 h -0.1875 l 0.375,0.9375 -0.375,0.75 0.375,1.3125 -0.1875,0.1875 h -0.1875 l -0.75,-0.1875 -0.5625,0.1875 v 0.5625 q 0.60938,0 2.8125,1.125 l 2.4375,-0.375 0.75,0.1875 1.5,-0.1875 0.375,0.375 1.125,-0.375 0.5625,0.375 q 0.375,0 0.375,-0.9375 l 0.1875,-0.1875 h 0.1875 q 0.5625,1.3125 1.125,1.3125 v 0.5625 l -0.75,0.1875 -1.125,-0.1875 q 0,0.375 -1.5,0.5625 l -0.5625,-0.1875 -1.6875,0.1875 h -0.1875 q -0.70312,-0.5625 -2.625,-1.125 l -1.875,0.9375 -1.125,-0.375 h -0.1875 q -2.25,0.421875 -3,1.125 l -3.9375,-0.375 -0.9375,0.1875 -0.9375,-0.1875 -2.25,0.375 h -0.5625 v 0.375 h -0.5625 v -0.375 h -1.125 l -0.9375,-0.5625 -3,0.75 v 0.375 q 0,0.375 0.5625,0.375 0,0.328125 -1.6875,0.5625 v 0.1875 l 0.5625,0.5625 0.5625,-0.5625 v 0.1875 l -0.375,0.5625 q 0.14063,0.5625 1.5,0.5625 0.375,0 0.375,-0.5625 l 0.1875,-0.1875 h 0.375 v 0.5625 l -0.375,1.3125 h -0.1875 q -0.9375,0 -2.4375,-1.125 v -0.5625 h -0.5625 l -0.1875,0.75 0.1875,0.1875 v 0.5625 h -0.375 q 0,-0.421875 -0.75,-1.125 l -0.1875,0.1875 h -0.375 l -0.5625,-0.375 h -0.1875 l -0.1875,0.9375 h -0.1875 l -0.1875,-0.1875 q -1.5,0.28125 -1.5,0.75 v 0.375 l 0.375,0.5625 -0.1875,0.5625 1.5,1.3125 h 0.75 l 0.375,-0.375 v -0.1875 q 0,-0.375 -0.5625,-0.375 l 0.375,-0.375 0.1875,0.1875 1.3125,-0.1875 h 0.75 v 0.1875 l -0.375,1.125 q 0.5625,0.09375 1.3125,1.6875 l -0.5625,1.125 q 2.4375,0.421875 2.4375,0.75 v 0.9375 h 0.1875 l 0.5625,-0.1875 v 0.1875 q 0,0.5625 0.5625,0.5625 v 0.1875 h -0.5625 l -0.75,-0.375 -0.1875,0.5625 q -2.0625,-0.1875 -2.0625,-0.75 v -0.1875 h 0.9375 l 0.5625,0.375 h 0.5625 q 0,-0.984375 -0.5625,-1.125 l -0.5625,0.1875 -1.125,-0.1875 -0.5625,1.5 q 1.26563,0.75 3.1875,1.125 l 0.9375,-0.1875 q 0,0.796875 1.3125,1.875 h 0.5625 l 0.75,-0.5625 h 0.1875 v 0.1875 l -0.1875,0.9375 h 0.1875 l 0.75,-0.1875 0.5625,0.5625 1.3125,-0.1875 h 1.6875 q 0.75,0 2.0625,1.3125 h 0.1875 l 0.1875,-0.1875 h 0.1875 l 0.9375,0.1875 q -0.0937,0.5625 -1.3125,0.5625 v 0.75 q 0.9375,0 0.9375,0.375 l -0.9375,1.125 h -0.75 v 0.75 h 0.5625 v 0.375 q -0.9375,0.984375 -0.9375,1.5 l 0.5625,0.5625 -1.3125,2.0625 h -8.8125 l -0.1875,0.1875 -2.4375,-0.75 -0.5625,0.1875 q 0,-0.375 -0.5625,-0.375 -1.6875,0.04687 -1.6875,0.5625 v 0.1875 l 0.5625,0.1875 1.6875,-0.1875 q 0.0469,1.078125 0.5625,1.6875 l -0.1875,1.3125 v 3.75 q 0.75,1.03125 0.75,2.8125 -0.65625,0 -0.75,2.25 l 0.1875,1.5 h -0.1875 l 0.1875,0.1875 v 0.375 l -0.375,0.5625 0.5625,1.6875 -0.1875,0.1875 v 7.3125 q 0,1.453125 -0.75,1.6875 h -3.375 v -0.5625 h -0.375 l -0.375,0.75 -4.125,-0.375 v -2.625 l -0.1875,-1.6875 0.1875,-0.75 -0.1875,-0.9375 0.375,-0.9375 -0.1875,-0.9375 0.1875,-0.75 -0.375,-0.375 v -0.375 l 0.1875,-1.3125 h 0.5625 l 0.9375,-0.1875 q 0,0.5625 0.375,0.5625 h 0.1875 l 0.375,-0.375 -0.75,-1.125 0.1875,-0.1875 h 0.75 l 0.375,1.3125 h 0.1875 l 1.875,-0.375 q 0,0.703125 1.3125,1.6875 l 0.1875,-0.1875 v -0.5625 l -0.1875,-0.1875 v -0.1875 q 0.5625,0 0.5625,-0.375 v -0.1875 l -0.1875,-0.1875 0.1875,-0.1875 v -0.5625 l -0.9375,0.1875 -0.375,-0.375 -0.75,0.1875 -0.1875,-0.5625 -0.75,0.1875 q -2.25,0 -2.25,-1.3125 0,-0.9375 -0.5625,-0.9375 h -0.1875 l -0.375,0.375 v 0.375 l 0.1875,0.5625 h -0.1875 l -0.75,0.1875 h -0.1875 l 0.375,-2.4375 -0.1875,-0.5625 0.1875,-1.5 q 0.5625,0 0.9375,-0.9375 h 0.1875 v -0.5625 q -0.5625,0 -0.5625,-0.375 v -0.375 l 1.3125,-1.3125 v -0.1875 h -0.9375 l 0.375,-1.5 0.1875,0.1875 h 0.5625 v -0.5625 l -0.9375,0.1875 q 0,-0.375 -1.125,-0.75 l -1.3125,0.1875 v 0.75 l -0.5625,2.25 h -0.375 l -0.1875,-0.75 q 0.32813,-3.375 0.9375,-3.375 l 1.125,0.5625 0.5625,-0.1875 -0.5625,-0.75 v -0.75 q 0,-0.65625 0.75,-1.5 -0.5625,-0.703125 -0.5625,-1.3125 v -0.1875 q 0.75,0 0.75,-0.375 v -0.375 q -0.75,0 -0.75,-0.375 v -0.375 l 0.375,-0.375 q 0.375,0 0.375,0.9375 0.5625,0 0.5625,0.5625 h 0.1875 q 1.5,0 2.25,-1.3125 l -0.1875,-0.75 h 0.1875 l 1.875,0.1875 0.1875,-0.1875 v -0.9375 q -0.9375,-0.75 -0.9375,-1.6875 l 0.5625,-0.1875 v -0.1875 l -0.375,-0.375 -0.5625,0.1875 0.1875,-0.1875 v -0.5625 q -1.125,0 -1.875,1.125 l 0.1875,1.3125 q -1.40625,0.9375 -2.0625,0.9375 -1.125,-0.140625 -1.125,-1.125 h 0.1875 l -0.1875,-0.1875 v -4.3125 q 0,-0.703125 0.75,-1.6875 v -0.5625 l -0.75,-0.9375 0.375,-1.125 -0.375,-0.75 0.1875,-1.3125 -0.1875,-2.625 0.1875,-0.1875 h 0.1875 l -0.375,-1.125 v -0.1875 l 1.5,-1.6875 v -0.5625 l -0.375,-0.375 -0.5625,0.5625 -0.5625,-0.5625 0.1875,-0.1875 v -0.375 q 0,-1.3125 -0.375,-1.3125 0.1875,-2.0625 0.5625,-2.0625 h 0.375 v -0.1875 l 1.125,0.375 -1.3125,2.625 0.75,0.375 0.9375,-1.6875 v -0.375 l -0.1875,-0.9375 q 0.9375,0 1.125,-1.3125 0.60938,-0.5625 3.1875,-0.9375 l 0.75,-0.75 0.9375,0.375 q 0,-0.375 0.5625,-0.375 l 0.1875,-0.1875 v -0.1875 q -0.9375,0 -0.9375,-0.5625 l -0.1875,-0.9375 q 1.3125,-0.46875 1.3125,-0.75 z m -2.625,0.1875 h 0.1875 l 0.375,0.375 -2.8125,0.5625 v -0.1875 q 0,-0.75 2.25,-0.75 z m 25.3125,0.75 h 0.375 l 0.1875,0.5625 h -0.5625 z m 0.9375,1.3125 h 0.5625 l 0.375,0.375 -0.5625,0.5625 z m -13.6875,1.6875 v 0.75 l 1.125,0.375 v 0.1875 q -1.73437,0 -3.1875,1.5 0,1.21875 1.6875,1.6875 1.35938,-0.75 2.0625,-0.75 l 0.75,0.1875 q 0,-0.46875 0.9375,-1.125 l 0.375,-0.9375 q -2.8125,-0.328125 -2.8125,-1.6875 l 0.1875,-1.125 h -0.375 z m -3.75,-0.5625 v 0.5625 h 0.1875 l 0.5625,-0.1875 -0.375,-0.375 z m -12.1875,0 v 0.375 q 0,0.375 -1.3125,0.5625 l -0.1875,-0.1875 v -0.5625 z m 31.875,0.375 0.5625,0.375 h 0.1875 l 1.5,-0.375 0.5625,1.875 -0.5625,0.375 -1.125,-0.375 -0.1875,0.5625 -1.125,-0.1875 -1.6875,0.1875 -0.5625,-0.1875 v -0.1875 q 0.84375,-1.3125 1.3125,-1.3125 l -0.1875,-0.1875 v -0.375 z m 1.3125,0.9375 v 0.5625 h 0.5625 l 0.1875,-0.9375 h -0.375 z m -21.9375,0.375 h 0.75 v -0.5625 h -0.1875 z m 28.6875,-0.5625 h 0.375 v 0.1875 l -0.375,0.375 h -0.375 v -0.1875 z m -30.375,1.5 -0.1875,0.9375 v 0.1875 l 1.3125,0.1875 0.375,-0.375 -0.9375,-0.9375 z m 11.0625,0.5625 0.375,0.375 h 0.375 l -0.375,-0.375 z m 19.3125,0.9375 h 0.375 v 0.375 l -0.75,0.1875 v -0.1875 z m -1.125,0.1875 0.1875,0.1875 v 0.1875 l -0.375,0.375 h -0.5625 v -0.1875 q 0,-0.28125 0.75,-0.5625 z m -27.5625,4.125 h 1.3125 v 0.375 l -0.5625,0.1875 z m -7.875,1.5 1.125,1.125 -1.125,0.375 -0.1875,-0.5625 z m -0.375,2.25 0.5625,0.1875 v 0.1875 h -0.5625 z m -2.8125,3.5625 -0.375,-1.125 h -0.5625 l -0.1875,0.1875 h -0.1875 l 0.375,0.75 q 0,0.5625 -0.75,0.5625 v 0.5625 l 1.125,-0.5625 h 0.75 q 0,0.5625 0.9375,0.5625 l 0.75,-0.9375 -0.375,-0.5625 q 0.75,-0.703125 0.75,-1.6875 h -0.1875 q -0.84375,1.640625 -2.0625,2.25 z m -0.9375,-2.0625 v 0.375 l 0.375,0.375 h 0.1875 v -0.75 z m 1.3125,4.6875 h -0.1875 l -0.5625,-0.375 h -0.1875 q -0.5625,0.09375 -0.5625,1.5 l 1.5,0.375 v -0.375 l -0.1875,-0.1875 v -0.1875 l 1.875,-0.5625 -0.375,1.125 h 0.375 l 1.3125,-1.125 v -0.375 q -0.5625,0 -0.9375,-0.5625 -1.03125,0 -2.0625,0.75 z m -2.625,1.125 v 0.5625 l 0.375,-0.375 v -0.1875 z m 8.625,0.375 -0.1875,0.1875 v 0.5625 h 0.375 l 0.1875,-0.5625 -0.1875,-0.1875 z m -0.75,1.6875 v 0.5625 l 0.375,0.375 h 0.1875 q 1.125,0 1.875,-1.125 v -0.1875 l -1.6875,-0.1875 q -0.75,0.28125 -0.75,0.5625 z m 3.375,0.1875 v 0.375 h 0.9375 l 0.375,-0.375 v -0.375 z m -4.125,0.75 0.1875,0.1875 h 0.375 v -0.5625 h -0.1875 z m 0.9375,0.75 v 0.375 l 0.9375,0.1875 v -0.5625 z m -4.125,5.25 h 0.5625 v -0.375 h -0.1875 z m -1.5,0.375 v 0.5625 q 0.14063,0.5625 1.5,0.5625 h 0.5625 v 0.5625 q -0.75,0.09375 -0.75,0.5625 v 0.375 l 1.5,0.375 v -0.375 h 0.1875 q 0,-2.15625 -2.0625,-2.4375 l -0.1875,-0.1875 z m -0.375,2.625 -0.1875,0.75 0.1875,0.1875 h 0.5625 l 0.5625,-0.5625 v -0.375 z m 1.6875,0.5625 v 0.5625 h 0.5625 v -0.1875 l -0.375,-0.375 z m 0.9375,3.375 v 0.1875 h 0.5625 v -0.5625 h -0.1875 z m -1.125,1.5 v 0.1875 h 0.1875 l 0.5625,-0.1875 v -0.375 h -0.375 z m 0.5625,0.5625 -0.1875,0.5625 -1.6875,-0.375 -0.9375,0.1875 v 0.5625 q 0,0.515625 3.5625,0.9375 v 0.375 h 0.5625 v -0.1875 q -0.75,-0.609375 -0.75,-2.0625 z m 1.125,0.1875 v 0.5625 l 0.375,-0.375 -0.1875,-0.1875 z m -2.25,5.4375 v 0.1875 h 0.375 v -0.5625 z m -0.9375,0.1875 v 0.375 h 0.5625 l -0.375,-0.375 z m 39.1875,14.25 2.25,0.5625 q -1.59375,1.921875 -3,2.0625 l -0.75,-0.1875 -0.9375,0.9375 h -0.375 l -0.1875,-1.3125 v -0.1875 l 2.25,-0.375 1.125,0.375 h 0.1875 v -0.75 l -2.25,-0.375 -1.3125,0.375 v -0.375 l 0.5625,-0.5625 h 2.25 z" stroke-width="0" stroke-linejoin="miter" stroke-miterlimit="2" fill="#aab9b3" stroke="#aab9b3" transform="translate(0 316.38624999999996) translate(640.0289802 19.157656250000002) scale(1.67) translate(-595.76562 60.515625)"></path>
      </g>
      <image xlink:href="" id="icon" x="0" y="0" style="display: none;"></image>
    </g>
  </g>
</svg>