<svg xmlns:dc="http://purl.org/dc/elements/1.1/" xmlns:cc="http://creativecommons.org/ns#" xmlns:rdf="http://www.w3.org/1999/02/22-rdf-syntax-ns#" xmlns:svg="http://www.w3.org/2000/svg" xmlns="http://www.w3.org/2000/svg" xmlns:xlink="http://www.w3.org/1999/xlink" id="svg183667" viewBox="0 0 1024 768" height="768px" width="1024px" version="1.1">
  <metadata id="metadata183673">
    <rdf:rdf>
      <cc:work rdf:about="">
        <dc:format>image/svg+xml</dc:format>
        <dc:type rdf:resource="http://purl.org/dc/dcmitype/StillImage"></dc:type>
      </cc:work>
    </rdf:rdf>
  </metadata>
  <defs id="defs183671"></defs>
  <linearGradient spreadMethod="pad" y2="30%" x2="-10%" y1="120%" x1="30%" id="3d_gradient2-logo-1d729061-a11e-405d-b870-21f243a0cd5a">
    <stop id="stop183648" stop-opacity="1" stop-color="#ffffff" offset="0%"></stop>
    <stop id="stop183650" stop-opacity="1" stop-color="#000000" offset="100%"></stop>
  </linearGradient>
  <linearGradient gradientTransform="rotate(-30)" spreadMethod="pad" y2="30%" x2="-10%" y1="120%" x1="30%" id="3d_gradient3-logo-1d729061-a11e-405d-b870-21f243a0cd5a">
    <stop id="stop183653" stop-opacity="1" stop-color="#ffffff" offset="0%"></stop>
    <stop id="stop183655" stop-opacity="1" stop-color="#cccccc" offset="50%"></stop>
    <stop id="stop183657" stop-opacity="1" stop-color="#000000" offset="100%"></stop>
  </linearGradient>
  <g id="logo-group">
    <image xlink:href="" id="container" x="272" y="144" width="480" height="480" transform="translate(0 0)" style="display: none;"></image>
    <g id="logo-center" transform="translate(0 0)">
      <image xlink:href="" id="icon_container" x="0" y="0" style="display: none;"></image>
      <g id="slogan" style="font-style:normal;font-weight:400;font-size:32px;line-height:1;font-family:'Fira Sans Condensed';font-variant-ligatures:none;text-align:center;text-anchor:middle" transform="translate(0 0)"></g>
      <g id="title" style="font-style:normal;font-weight:700;font-size:72px;line-height:1;font-family:'Comfortaa Bold Alt2';font-variant-ligatures:none;text-align:center;text-anchor:middle" transform="translate(0 0)">
        <path id="path183676" style="font-style:normal;font-weight:700;font-size:72px;line-height:1;font-family:'Comfortaa Bold Alt2';font-variant-ligatures:none;text-align:center;text-anchor:middle" d="m 422.59175,-5.256 -20.304,-48.456 c -0.648,-1.656 -1.8,-2.52 -3.528,-2.52 -1.656,0 -2.808,0.864 -3.528,2.52 l -20.232,48.312 c -0.288,0.648 -0.36,1.224 -0.36,1.656 0,1.08 0.288,1.944 1.008,2.664 0.72,0.72 1.584,1.08 2.664,1.08 0.72,0 1.368,-0.144 2.016,-0.576 0.576,-0.432 1.08,-0.936 1.44,-1.728 l 17.136,-41.904 16.848,41.904 c 0.216,0.72 0.72,1.296 1.368,1.728 0.648,0.432 1.296,0.576 2.088,0.576 1.008,0 1.944,-0.36 2.664,-1.08 0.72,-0.72 1.08,-1.584 1.08,-2.592 0,-0.432 -0.144,-0.936 -0.36,-1.584 z" stroke-width="0" stroke-linejoin="miter" stroke-miterlimit="2" fill="#252525" stroke="#252525" transform="translate(0 324.31347999999997) translate(257.148815 12.612560000000009) scale(1.67) translate(-374.63975 56.232)"></path>
        <path id="path183678" style="font-style:normal;font-weight:700;font-size:72px;line-height:1;font-family:'Comfortaa Bold Alt2';font-variant-ligatures:none;text-align:center;text-anchor:middle" d="m 481.13675,-36.144 c -3.024,-3.024 -6.696,-4.536 -11.016,-4.536 -4.32,0 -7.992,1.512 -11.016,4.536 -0.36,0.36 -0.648,0.72 -1.008,1.08 -0.288,-0.36 -0.648,-0.72 -0.936,-1.08 -3.096,-3.024 -6.768,-4.536 -11.088,-4.536 -4.32,0 -7.992,1.512 -11.016,4.536 -3.024,3.096 -4.536,6.768 -4.536,11.088 v 21.6 c 0,1.008 0.288,1.8 1.008,2.52 0.72,0.72 1.584,1.08 2.592,1.08 0.936,0 1.8,-0.36 2.52,-1.08 0.72,-0.72 1.08,-1.512 1.08,-2.52 v -21.6 c 0,-2.304 0.792,-4.32 2.448,-5.976 1.656,-1.656 3.6,-2.448 5.904,-2.448 2.376,0 4.32,0.792 5.976,2.448 1.656,1.656 2.448,3.672 2.448,5.976 v 21.6 c 0,1.008 0.36,1.8 1.08,2.52 0.72,0.72 1.512,1.08 2.52,1.08 1.008,0 1.872,-0.36 2.52,-1.08 0.72,-0.72 1.08,-1.512 1.08,-2.52 v -21.6 c 0,-1.512 0.36,-2.952 1.152,-4.248 0.72,-1.296 1.728,-2.304 3.024,-3.024 1.296,-0.792 2.736,-1.152 4.248,-1.152 2.304,0 4.32,0.792 5.904,2.448 1.656,1.656 2.52,3.672 2.52,5.976 v 21.6 c 0,1.008 0.288,1.8 1.008,2.52 0.72,0.72 1.584,1.08 2.592,1.08 0.936,0 1.8,-0.36 2.52,-1.08 0.72,-0.72 1.08,-1.512 1.08,-2.52 v -21.6 c 0,-4.32 -1.584,-7.992 -4.608,-11.088 z" stroke-width="0" stroke-linejoin="miter" stroke-miterlimit="2" fill="#4d2b2b" stroke="#4d2b2b" transform="translate(0 324.31347999999997) translate(360.490085 38.58440000000001) scale(1.67) translate(-430.52075 40.68)"></path>
        <path id="path183680" style="font-style:normal;font-weight:700;font-size:72px;line-height:1;font-family:'Comfortaa Bold Alt2';font-variant-ligatures:none;text-align:center;text-anchor:middle" d="m 529.77275,-33.768 c -3.888,-3.888 -8.568,-5.904 -14.112,-5.904 -5.472,0 -10.224,2.016 -14.112,5.904 -3.888,3.888 -5.832,8.568 -5.832,14.112 0,5.544 1.944,10.224 5.832,14.112 3.888,3.888 8.64,5.832 14.112,5.832 4.968,0 9.36,-1.584 13.104,-4.824 v 1.368 c 0,1.008 0.288,1.8 1.008,2.448 0.648,0.72 1.44,1.008 2.448,1.008 0.936,0 1.728,-0.288 2.448,-1.008 0.648,-0.648 1.008,-1.44 1.008,-2.448 v -16.488 c 0,-5.544 -1.944,-10.224 -5.904,-14.112 z m -14.112,27.144 c -3.6,0 -6.696,-1.224 -9.216,-3.816 -2.592,-2.52 -3.816,-5.616 -3.816,-9.216 0,-3.6 1.224,-6.696 3.816,-9.216 2.52,-2.592 5.616,-3.888 9.216,-3.888 3.6,0 6.696,1.296 9.216,3.888 2.592,2.52 3.888,5.616 3.888,9.216 0,3.6 -1.296,6.696 -3.888,9.216 -2.52,2.592 -5.616,3.816 -9.216,3.816 z" stroke-width="0" stroke-linejoin="miter" stroke-miterlimit="2" fill="#763231" stroke="#763231" transform="translate(0 324.31347999999997) translate(479.38740499999994 40.26776000000002) scale(1.67) translate(-495.71675 39.672)"></path>
        <path id="path183682" style="font-style:normal;font-weight:700;font-size:72px;line-height:1;font-family:'Comfortaa Bold Alt2';font-variant-ligatures:none;text-align:center;text-anchor:middle" d="m 568.565,-40.464 c -6.048,0 -11.16,2.16 -15.48,6.408 -4.248,4.248 -6.336,9.36 -6.336,15.408 v 15.192 c 0,1.008 0.288,1.8 1.008,2.448 0.648,0.72 1.44,1.008 2.448,1.008 0.936,0 1.728,-0.288 2.376,-1.008 0.72,-0.648 1.08,-1.44 1.08,-2.448 v -15.192 c 0,-4.104 1.44,-7.632 4.32,-10.512 2.952,-2.952 6.48,-4.392 10.584,-4.392 0.936,0 1.728,-0.36 2.448,-1.008 0.648,-0.72 1.008,-1.512 1.008,-2.448 0,-0.936 -0.36,-1.8 -1.008,-2.448 -0.72,-0.648 -1.512,-1.008 -2.448,-1.008 z" stroke-width="0" stroke-linejoin="miter" stroke-miterlimit="2" fill="#9e3836" stroke="#9e3836" transform="translate(0 324.31347999999997) translate(574.6312625 38.94512000000001) scale(1.67) translate(-546.749 40.464)"></path>
        <path id="path183684" style="font-style:normal;font-weight:700;font-size:72px;line-height:1;font-family:'Comfortaa Bold Alt2';font-variant-ligatures:none;text-align:center;text-anchor:middle" d="m 614.09262,-39.528 c -1.008,0 -1.87199,0.36 -2.59199,1.08 -0.72001,0.72 -1.00801,1.512 -1.00801,2.52 V -18 c 0,3.096 -1.15199,5.76 -3.312,7.92 -2.232,2.232 -4.824,3.312 -7.92,3.312 -3.096,0 -5.68799,-1.08 -7.91999,-3.312 -2.16001,-2.16 -3.24,-4.824 -3.24,-7.92 v -17.928 c 0,-1.008 -0.36,-1.8 -1.08001,-2.52 -0.72,-0.72 -1.51199,-1.08 -2.51999,-1.08 -1.00801,0 -1.872,0.36 -2.592,1.08 -0.72001,0.72 -1.00801,1.512 -1.00801,2.52 V -18 c 0,5.112 1.72801,9.432 5.328,13.032 3.6,3.6 7.92001,5.4 13.032,5.4 5.04,0 9.43201,-1.8 13.03201,-5.4 3.59999,-3.6 5.4,-7.92 5.4,-13.032 v -17.928 c 0,-1.008 -0.36001,-1.8 -1.08001,-2.52 -0.72,-0.72 -1.51199,-1.08 -2.52,-1.08 z" stroke-width="0" stroke-linejoin="miter" stroke-miterlimit="2" fill="#c73f3c" stroke="#c73f3c" transform="translate(0 324.31347999999997) translate(641.6844679 40.50824000000001) scale(1.67) translate(-580.90062 39.528)"></path>
        <path id="path183686" style="font-style:normal;font-weight:700;font-size:72px;line-height:1;font-family:'Comfortaa Bold Alt2';font-variant-ligatures:none;text-align:center;text-anchor:middle" d="m 646.25075,-49.32 c 1.008,0 1.8,-0.288 2.52,-1.008 0.72,-0.72 1.08,-1.584 1.08,-2.592 0,-1.008 -0.36,-1.8 -1.08,-2.52 -0.72,-0.72 -1.512,-1.08 -2.52,-1.08 -4.104,0 -7.56,1.44 -10.44,4.32 -2.88,2.88 -4.32,6.408 -4.32,10.44 v 38.304 c 0,1.008 0.288,1.872 1.008,2.592 0.72,0.72 1.584,1.008 2.592,1.008 1.008,0 1.8,-0.288 2.52,-1.008 0.72,-0.72 1.08,-1.584 1.08,-2.592 v -28.152 h 7.2 c 0.864,0 1.656,-0.288 2.304,-0.936 0.576,-0.576 0.936,-1.368 0.936,-2.304 0,-0.864 -0.36,-1.656 -0.936,-2.304 -0.648,-0.576 -1.44,-0.936 -2.304,-0.936 h -7.2 v -3.672 c 0,-2.016 0.72,-3.816 2.232,-5.328 1.44,-1.44 3.24,-2.232 5.328,-2.232 z" stroke-width="0" stroke-linejoin="miter" stroke-miterlimit="2" fill="#ef4542" stroke="#ef4542" transform="translate(0 324.31347999999997) translate(736.1899850000001 12.131599999999999) scale(1.67) translate(-631.49075 56.52)"></path>
      </g>
      <image xlink:href="" id="icon" x="0" y="0" style="display: none;"></image>
    </g>
  </g>
</svg>