<svg xmlns:dc="http://purl.org/dc/elements/1.1/" xmlns:cc="http://creativecommons.org/ns#" xmlns:rdf="http://www.w3.org/1999/02/22-rdf-syntax-ns#" xmlns:svg="http://www.w3.org/2000/svg" xmlns="http://www.w3.org/2000/svg" xmlns:xlink="http://www.w3.org/1999/xlink" id="svg221552" viewBox="0 0 1024 768" height="768px" width="1024px" version="1.1">
  <metadata id="metadata221558">
    <rdf:rdf>
      <cc:work rdf:about="">
        <dc:format>image/svg+xml</dc:format>
        <dc:type rdf:resource="http://purl.org/dc/dcmitype/StillImage"></dc:type>
      </cc:work>
    </rdf:rdf>
  </metadata>
  <defs id="defs221556"></defs>
  <linearGradient spreadMethod="pad" y2="30%" x2="-10%" y1="120%" x1="30%" id="3d_gradient2-logo-d0c6ebd3-8da9-40d9-907d-ab611ca77db0">
    <stop id="stop221533" stop-opacity="1" stop-color="#ffffff" offset="0%"></stop>
    <stop id="stop221535" stop-opacity="1" stop-color="#000000" offset="100%"></stop>
  </linearGradient>
  <linearGradient gradientTransform="rotate(-30)" spreadMethod="pad" y2="30%" x2="-10%" y1="120%" x1="30%" id="3d_gradient3-logo-d0c6ebd3-8da9-40d9-907d-ab611ca77db0">
    <stop id="stop221538" stop-opacity="1" stop-color="#ffffff" offset="0%"></stop>
    <stop id="stop221540" stop-opacity="1" stop-color="#cccccc" offset="50%"></stop>
    <stop id="stop221542" stop-opacity="1" stop-color="#000000" offset="100%"></stop>
  </linearGradient>
  <g id="logo-group">
    <image xlink:href="" id="container" x="272" y="144" width="480" height="480" transform="translate(0 0)" style="display: none;"></image>
    <g id="logo-center" transform="translate(113.51419333333337 0)">
      <image xlink:href="" id="icon_container" x="0" y="0" style="display: none;"></image>
      <g id="slogan" style="font-style:normal;font-weight:700;font-size:32px;line-height:1;font-family:'Brandmark1 Bold Color';font-variant-ligatures:none;text-align:center;text-anchor:middle" transform="translate(0 0)"></g>
      <g id="title" style="font-style:normal;font-weight:700;font-size:72px;line-height:1;font-family:'Brandmark1 Bold Color';font-variant-ligatures:normal;text-align:center;text-anchor:middle" transform="translate(0 0)">
        <g id="path221561" aria-label="A" transform="translate(0 339.58000000000004) translate(50 -21.52000000000001) scale(2.3333333333333335) translate(-361.27644 53.64)"> <polygon class="c1" points="104.82788,71.91748 95.08569,71.91748 73.80786,128.08252 85.77515,128.08252 99.93921,89.14844 114.22534,128.08252 126.19214,128.08252 " transform="translate(287.46858 -125.55748)" stroke-width="0" stroke-linejoin="miter" stroke-miterlimit="2" fill="#e94340" stroke="#e94340"></polygon> <polygon class="c3" points="100.03819,128.08252 91.09854,114.24284 108.90146,114.24284 " transform="translate(287.46858 -125.55748)" stroke-width="0" stroke-linejoin="miter" stroke-miterlimit="2" fill="#e94340" stroke="#e94340"></polygon> </g>
        <g id="path221563" aria-label="M" transform="translate(0 339.58000000000004) translate(176.8032500000001 -21.52000000000001) scale(2.3333333333333335) translate(-415.62069 53.64)"> <path class="c1" d="M116.38086,95.7229l-12.80273,22.0625H96.4209L83.69043,95.84546v32.23682H72.31348V71.91772h10.3252 l17.39746,30.60254l17.39648-30.60254h10.25391v56.16455h-11.30566V95.7229z" transform="translate(343.30721 -125.55772)" stroke-width="0" stroke-linejoin="miter" stroke-miterlimit="2" fill="#e94340" stroke="#e94340"></path> </g>
        <g id="path221565" aria-label="A" transform="translate(0 339.58000000000004) translate(310.53125 -21.52000000000001) scale(2.3333333333333335) translate(-472.93269 53.64)"> <polygon class="c1" points="104.82788,71.91748 95.08569,71.91748 73.80786,128.08252 85.77515,128.08252 99.93921,89.14844 114.22534,128.08252 126.19214,128.08252 " transform="translate(399.12483 -125.55748)" stroke-width="0" stroke-linejoin="miter" stroke-miterlimit="2" fill="#e94340" stroke="#e94340"></polygon> <polygon class="c3" points="100.03819,128.08252 91.09854,114.24284 108.90146,114.24284 " transform="translate(399.12483 -125.55748)" stroke-width="0" stroke-linejoin="miter" stroke-miterlimit="2" fill="#e94340" stroke="#e94340"></polygon> </g>
        <g id="path221567" aria-label="R" transform="translate(0 339.58000000000004) translate(437.3344999999998 -21.52000000000001) scale(2.3333333333333335) translate(-527.27694 53.64)"> <path class="c1" d="M121.90405,128.08252h-13.65918l-13.37109-19.27637V97.83984h2.16016 c3.40527,0,5.9541-0.74902,7.56738-2.23242c1.38281-1.27441,2.08105-3.11084,2.08105-5.47266 c0-2.4624-0.71973-4.33447-2.13867-5.55859c-1.4541-1.26025-3.75879-1.92969-6.64648-1.92969h-8.49609v45.43604H78.09595V71.91748 h20.66553c3.16113,0,6.0127,0.45361,8.48926,1.34619c2.44141,0.88574,4.5293,2.21094,6.20703,3.93164 c3.10352,3.18994,4.74512,7.71191,4.74512,13.0835c0,4.81738-1.33203,8.79932-3.95996,11.83789 c-1.8291,2.10986-4.24121,3.72266-7.2002,4.81006L121.90405,128.08252z" transform="translate(449.18099 -125.55748)" stroke-width="0" stroke-linejoin="miter" stroke-miterlimit="2" fill="#e94340" stroke="#e94340"></path> </g>
        <g id="path221569" aria-label="U" transform="translate(0 339.58000000000004) translate(540.9904999999999 -21.52000000000001) scale(2.3333333333333335) translate(-571.70094 53.64)"> <path class="c1" d="M91.35181,126.53125c-2.64258-1.11621-5.01855-2.72266-7.05664-4.75977 c-2.03711-2.03809-3.63623-4.41455-4.75928-7.05713c-1.15918-2.74316-1.75-5.65234-1.75-8.64795V71.71973h11.30518v34.34668 c0,6.0127,4.89648,10.90918,10.90918,10.90918s10.9082-4.89648,10.9082-10.90918V71.71973h11.30566v34.34668 c0,2.99561-0.59082,5.90479-1.75,8.64795c-1.11621,2.64258-2.72168,5.01904-4.75977,7.05713 c-2.03809,2.03711-4.41406,3.63574-7.05664,4.75977c-2.74316,1.15918-5.65234,1.74902-8.64746,1.74902 C97.00415,128.28027,94.09595,127.69043,91.35181,126.53125z" transform="translate(493.91505 -125.35973)" stroke-width="0" stroke-linejoin="miter" stroke-miterlimit="2" fill="#e94340" stroke="#e94340"></path> </g>
        <g id="path221571" aria-label="F" transform="translate(0 339.58000000000004) translate(660.7876133333333 -21.52000000000001) scale(2.3333333333333335) translate(-623.04256 53.64)"> <path class="c1" d="M81.53052,128.08252h11.30469v-21.74609h25.63428v-10.729H81.53052V128.08252z M81.53052,71.91748v10.729 h36.93896v-10.729H81.53052z" transform="translate(541.51204 -125.55748)" stroke-width="0" stroke-linejoin="miter" stroke-miterlimit="2" fill="#e94340" stroke="#e94340"></path> </g>
            </g>
      <image xlink:href="" id="icon" x="0" y="0" style="display: none;"></image>
    </g>
  </g>
</svg>