<svg xmlns:dc="http://purl.org/dc/elements/1.1/" xmlns:cc="http://creativecommons.org/ns#" xmlns:rdf="http://www.w3.org/1999/02/22-rdf-syntax-ns#" xmlns:svg="http://www.w3.org/2000/svg" xmlns="http://www.w3.org/2000/svg" xmlns:xlink="http://www.w3.org/1999/xlink" id="svg77884" viewBox="0 0 1024 768" height="768px" width="1024px" version="1.1">
  <metadata id="metadata77890">
    <rdf:rdf>
      <cc:work rdf:about="">
        <dc:format>image/svg+xml</dc:format>
        <dc:type rdf:resource="http://purl.org/dc/dcmitype/StillImage"></dc:type>
      </cc:work>
    </rdf:rdf>
  </metadata>
  <defs id="defs77888"></defs>
  <linearGradient spreadMethod="pad" y2="30%" x2="-10%" y1="120%" x1="30%" id="3d_gradient2-logo-702491fe-5bb6-4ab2-8c4a-518fcb2a580e">
    <stop id="stop77865" stop-opacity="1" stop-color="#ffffff" offset="0%"></stop>
    <stop id="stop77867" stop-opacity="1" stop-color="#000000" offset="100%"></stop>
  </linearGradient>
  <linearGradient gradientTransform="rotate(-30)" spreadMethod="pad" y2="30%" x2="-10%" y1="120%" x1="30%" id="3d_gradient3-logo-702491fe-5bb6-4ab2-8c4a-518fcb2a580e">
    <stop id="stop77870" stop-opacity="1" stop-color="#ffffff" offset="0%"></stop>
    <stop id="stop77872" stop-opacity="1" stop-color="#cccccc" offset="50%"></stop>
    <stop id="stop77874" stop-opacity="1" stop-color="#000000" offset="100%"></stop>
  </linearGradient>
  <g id="logo-group">
    <image xlink:href="" id="container" x="272" y="144" width="480" height="480" transform="translate(0 0)" style="display: none;"></image>
    <g id="logo-center" transform="translate(0 0)">
      <image xlink:href="" id="icon_container" x="0" y="0" style="display: none;"></image>
      <g id="slogan" style="font-style:normal;font-weight:700;font-size:32px;line-height:1;font-family:'Comfortaa Bold Alt2';font-variant-ligatures:none;text-align:center;text-anchor:middle" transform="translate(0 0)"></g>
      <g id="title" style="font-style:normal;font-weight:normal;font-size:72px;line-height:1;font-family:'Brandmark Sans 1 Color';font-variant-ligatures:normal;text-align:center;text-anchor:middle" transform="translate(0 0)">
        <g id="path77893" aria-label="^A" transform="translate(0 325.3546) translate(174.67336 17.94416000000001) scale(1.67) translate(-361.07844 47.952)"> <polygon class="c3" points="113.44141,94.19116 101.67969,94.19116 106.08783,106.8645 112.04883,124.0022 124.96191,124.0022 " transform="translate(286.04035 -123.9498)" stroke-width="0" stroke-linejoin="miter" stroke-miterlimit="2" fill="#453a3c" stroke="#453a3c"></polygon> <polygon class="c1" points="93.61523,75.9978 75.03809,124.0022 87.90332,124.0022 104.94434,75.9978 " transform="translate(286.04035 -123.9498)" stroke-width="0" stroke-linejoin="miter" stroke-miterlimit="2" fill="#e42b24" stroke="#e42b24"></polygon> </g>
        <g id="path77895" aria-label="M" transform="translate(0 325.3546) translate(303.4199225 17.94416000000001) scale(1.67) translate(-418.17219 47.952)"> <path class="c1" d="M126.01807,75.99805v48.00391h-11.4248V96.35156l-11.13672,27.65039h-6.96094L85.35889,96.35156v27.65039 H73.98193V75.99805h14.30469l11.66504,28.99414l11.66504-28.99414H126.01807z" transform="translate(344.19026 -123.95005)" stroke-width="0" stroke-linejoin="miter" stroke-miterlimit="2" fill="#e42b24" stroke="#e42b24"></path> </g>
        <g id="path77897" aria-label="^A" transform="translate(0 325.3546) translate(435.6891329 17.94416000000001) scale(1.67) translate(-477.37531 47.952)"> <polygon class="c3" points="113.44141,94.19116 101.67969,94.19116 106.08783,106.8645 112.04883,124.0022 124.96191,124.0022 " transform="translate(402.33722 -123.9498)" stroke-width="0" stroke-linejoin="miter" stroke-miterlimit="2" fill="#453a3c" stroke="#453a3c"></polygon> <polygon class="c1" points="93.61523,75.9978 75.03809,124.0022 87.90332,124.0022 104.94434,75.9978 " transform="translate(402.33722 -123.9498)" stroke-width="0" stroke-linejoin="miter" stroke-miterlimit="2" fill="#e42b24" stroke="#e42b24"></polygon> </g>
        <g id="path77899" aria-label="R" transform="translate(0 325.3546) translate(564.4356954000001 17.82392) scale(1.67) translate(-534.46906 48.024)"> <path class="c1" d="M119.44141,124.02612h-13.05664l-8.78516-15.88916h-5.66406v15.84131H80.55859V75.97388h22.46582 c9.98438,0,16.12891,6.57666,16.12891,15.50537c0,8.49707-5.32813,13.05713-10.5127,14.25732L119.44141,124.02612z M91.93555,96.80786h9.55273c3.64844,0,6.04883-2.1123,6.04883-5.32861s-2.35254-5.32813-6.04883-5.32813h-9.55273V96.80786z" transform="translate(453.91047 -123.99788)" stroke-width="0" stroke-linejoin="miter" stroke-miterlimit="2" fill="#e42b24" stroke="#e42b24"></path> </g>
        <g id="path77901" aria-label="U" transform="translate(0 325.3546) translate(674.8644454000001 17.82392) scale(1.67) translate(-580.59406 48.024)"> <path class="c1" d="M110.10474,75.54199h11.56934v28.80273c0,11.95313-7.00879,20.11328-21.65039,20.11328 c-14.64063,0-21.69775-8.20801-21.69775-20.01758v-28.8501h11.521v28.51416c0,6.43262,3.74414,10.12891,10.17676,10.12891 c6.38477,0,10.08105-3.69629,10.08105-10.12891V75.59033V75.54199z" transform="translate(502.26812 -123.56599)" stroke-width="0" stroke-linejoin="miter" stroke-miterlimit="2" fill="#e42b24" stroke="#e42b24"></path> </g>
        <g id="path77903" aria-label="F" transform="translate(0 325.3546) translate(792.5733600000001 17.94416000000001) scale(1.67) translate(-631.07844 47.952)"> <path class="c1" d="M116.99316,75.99805v10.12891H94.38379v9.02441h22.08203v10.12891H94.38379v18.72168H83.00684V75.99805 H116.99316z" transform="translate(548.0716 -123.95005)" stroke-width="0" stroke-linejoin="miter" stroke-miterlimit="2" fill="#e42b24" stroke="#e42b24"></path> </g>
            </g>
      <image xlink:href="" id="icon" x="0" y="0" style="display: none;"></image>
    </g>
  </g>
</svg>