<svg xmlns:dc="http://purl.org/dc/elements/1.1/" xmlns:cc="http://creativecommons.org/ns#" xmlns:rdf="http://www.w3.org/1999/02/22-rdf-syntax-ns#" xmlns:svg="http://www.w3.org/2000/svg" xmlns="http://www.w3.org/2000/svg" xmlns:xlink="http://www.w3.org/1999/xlink" id="svg26120" viewBox="0 0 1024 768" height="768px" width="1024px" version="1.1">
  <metadata id="metadata26126">
    <rdf:rdf>
      <cc:work rdf:about="">
        <dc:format>image/svg+xml</dc:format>
        <dc:type rdf:resource="http://purl.org/dc/dcmitype/StillImage"></dc:type>
      </cc:work>
    </rdf:rdf>
  </metadata>
  <defs id="defs26124"></defs>
  <linearGradient spreadMethod="pad" y2="30%" x2="-10%" y1="120%" x1="30%" id="3d_gradient2-logo-b27e90a5-0230-4008-bf9a-c6785bd8e6c1">
    <stop id="stop26101" stop-opacity="1" stop-color="#ffffff" offset="0%"></stop>
    <stop id="stop26103" stop-opacity="1" stop-color="#000000" offset="100%"></stop>
  </linearGradient>
  <linearGradient gradientTransform="rotate(-30)" spreadMethod="pad" y2="30%" x2="-10%" y1="120%" x1="30%" id="3d_gradient3-logo-b27e90a5-0230-4008-bf9a-c6785bd8e6c1">
    <stop id="stop26106" stop-opacity="1" stop-color="#ffffff" offset="0%"></stop>
    <stop id="stop26108" stop-opacity="1" stop-color="#cccccc" offset="50%"></stop>
    <stop id="stop26110" stop-opacity="1" stop-color="#000000" offset="100%"></stop>
  </linearGradient>
  <g id="logo-group">
    <image xlink:href="" id="container" x="272" y="144" width="480" height="480" transform="translate(0 0)" style="display: none;"></image>
    <g id="logo-center" transform="translate(0 0)">
      <image xlink:href="" id="icon_container" x="0" y="0" style="display: none;"></image>
      <g id="slogan" style="font-style:oblique;font-weight:normal;font-size:32px;line-height:1;font-family:Lora;font-variant-ligatures:none;text-align:center;text-anchor:middle" transform="translate(0 0)"></g>
      <g id="title" style="font-style:normal;font-weight:normal;font-size:72px;line-height:1;font-family:Pacifico;font-variant-ligatures:none;text-align:center;text-anchor:middle" transform="translate(0 0)">
        <path id="path26129" style="font-style:normal;font-weight:normal;font-size:72px;line-height:1;font-family:Pacifico;font-variant-ligatures:none;text-align:center;text-anchor:middle" d="m 415.54531,0.36 q -4.968,0 -9,-2.448 -3.96,-2.448 -6.264,-7.056 -2.304,-4.68 -2.304,-11.016 0,-10.944 4.68,-20.232 4.68,-9.36 13.824,-14.976 9.144,-5.688 21.96,-5.688 3.312,0 7.056,0.504 3.816,0.504 6.912,1.512 2.016,0.576 2.016,2.88 0,1.872 -1.44,3.528 -1.368,1.656 -3.24,1.656 -0.576,0 -0.864,-0.072 -3.744,-0.864 -6.408,-1.224 -2.664,-0.432 -5.616,-0.432 -9.144,0 -15.552,4.464 -6.408,4.392 -9.576,11.664 -3.168,7.272 -3.168,15.696 0,6.12 2.376,9.504 2.448,3.312 6.336,3.312 4.392,0 7.704,-3.6 3.312,-3.6 6.048,-11.664 2.736,-8.064 5.4,-21.888 0.432,-2.016 1.728,-2.736 1.296,-0.72 3.456,-0.72 5.112,0 5.112,3.312 0,0.576 -0.216,1.44 -1.872,6.984 -3.456,15.48 -1.512,8.424 -1.512,12.816 0,3.888 1.152,5.688 1.152,1.728 3.528,1.728 2.304,0 4.392,-1.512 2.088,-1.584 5.256,-5.328 0.864,-1.008 1.944,-1.008 0.936,0 1.44,0.864 0.576,0.864 0.576,2.376 0,2.808 -1.368,4.464 -3.528,4.248 -6.912,6.48 -3.384,2.232 -8.28,2.232 -5.04,0 -8.136,-2.88 -3.096,-2.952 -3.888,-8.28 -5.328,11.16 -15.696,11.16 z" stroke-width="0" stroke-linejoin="miter" stroke-miterlimit="2" fill="#515760" stroke="#515760" transform="translate(0 303.83488) translate(311.96854395 15.716480000000018) scale(1.67) translate(-397.97731 61.056)"></path>
        <path id="path26131" style="font-style:normal;font-weight:normal;font-size:72px;line-height:1;font-family:Pacifico;font-variant-ligatures:none;text-align:center;text-anchor:middle" d="m 459.04456,0.36 q -2.736,0 -3.888,-2.88 -1.08,-2.88 -1.08,-9.216 0,-9.36 2.664,-17.784 0.648,-2.088 2.088,-3.024 1.512,-1.008 4.176,-1.008 1.44,0 2.016,0.36 0.576,0.36 0.576,1.368 0,1.152 -1.08,5.184 -0.72,2.88 -1.152,5.04 -0.432,2.088 -0.72,5.256 1.944,-5.616 4.608,-9.504 2.736,-3.888 5.544,-5.76 2.88,-1.944 5.4,-1.944 2.52,0 3.528,1.152 1.08,1.152 1.08,3.528 0,2.304 -1.368,8.352 -0.576,2.592 -0.792,3.888 3.6,-8.856 7.992,-12.888 4.392,-4.032 8.208,-4.032 4.68,0 4.68,4.68 0,2.808 -1.584,10.152 -1.368,6.264 -1.368,8.28 0,2.88 2.088,2.88 1.44,0 3.384,-1.728 2.016,-1.8 5.328,-5.76 0.864,-1.008 1.944,-1.008 0.936,0 1.44,0.864 0.576,0.864 0.576,2.376 0,2.88 -1.368,4.464 -3.096,3.816 -6.696,6.264 -3.528,2.448 -8.064,2.448 -3.672,0 -5.544,-2.088 -1.872,-2.16 -1.872,-6.192 0,-2.016 1.008,-7.2 0.936,-4.536 0.936,-6.264 0,-1.152 -0.792,-1.152 -0.936,0 -2.664,2.448 -1.728,2.376 -3.456,6.336 -1.728,3.96 -2.808,8.352 -0.792,3.456 -1.872,4.608 -1.008,1.152 -3.312,1.152 -2.376,0 -3.6,-2.232 -1.152,-2.304 -1.152,-5.544 0,-2.736 0.72,-7.92 0.576,-4.608 0.576,-6.048 0,-1.152 -0.792,-1.152 -1.08,0 -2.736,2.592 -1.656,2.592 -3.24,6.624 -1.512,4.032 -2.448,7.92 -0.792,3.384 -1.872,4.608 -1.008,1.152 -3.24,1.152 z" stroke-width="0" stroke-linejoin="miter" stroke-miterlimit="2" fill="#626870" stroke="#626870" transform="translate(0 303.83488) translate(405.65429144999996 61.64816000000001) scale(1.67) translate(-454.07656 33.552)"></path>
        <path id="path26133" style="font-style:normal;font-weight:normal;font-size:72px;line-height:1;font-family:Pacifico;font-variant-ligatures:none;text-align:center;text-anchor:middle" d="m 516.36669,0.36 q -4.464,0 -7.128,-3.24 -2.664,-3.24 -2.664,-8.496 0,-5.76 2.664,-10.872 2.664,-5.184 7.056,-8.28 4.464,-3.168 9.432,-3.168 1.584,0 2.088,0.648 0.576,0.576 0.936,2.16 1.512,-0.288 3.168,-0.288 3.528,0 3.528,2.52 0,1.512 -1.08,7.2 -1.656,8.28 -1.656,11.52 0,1.08 0.504,1.728 0.576,0.648 1.44,0.648 1.368,0 3.312,-1.728 1.944,-1.8 5.256,-5.76 0.864,-1.008 1.944,-1.008 0.936,0 1.44,0.864 0.576,0.864 0.576,2.376 0,2.88 -1.368,4.464 -2.952,3.672 -6.264,6.192 -3.312,2.52 -6.408,2.52 -2.376,0 -4.392,-1.584 -1.944,-1.656 -2.952,-4.464 -3.744,6.048 -9.432,6.048 z m 2.592,-7.272 q 1.584,0 3.024,-1.872 1.44,-1.872 2.088,-4.968 l 2.664,-13.248 q -3.024,0.072 -5.616,2.304 -2.52,2.16 -4.032,5.76 -1.512,3.6 -1.512,7.632 0,2.232 0.864,3.312 0.936,1.08 2.52,1.08 z" stroke-width="0" stroke-linejoin="miter" stroke-miterlimit="2" fill="#737980" stroke="#737980" transform="translate(0 303.83488) translate(493.32616855 61.40768000000001) scale(1.67) translate(-506.57469 33.696)"></path>
        <path id="path26135" style="font-style:normal;font-weight:normal;font-size:72px;line-height:1;font-family:Pacifico;font-variant-ligatures:none;text-align:center;text-anchor:middle" d="m 546.51331,0.36 q -2.736,0 -3.888,-2.88 -1.08,-2.88 -1.08,-9.216 0,-9.36 2.664,-17.784 0.648,-2.088 2.088,-3.024 1.512,-1.008 4.176,-1.008 1.44,0 2.016,0.36 0.576,0.36 0.576,1.368 0,1.152 -1.08,5.184 -0.72,2.88 -1.152,5.04 -0.432,2.16 -0.72,5.328 2.376,-6.192 5.328,-10.08 2.952,-3.888 5.76,-5.544 2.88,-1.656 5.256,-1.656 4.68,0 4.68,4.68 0,0.936 -0.648,4.536 -0.576,2.88 -0.576,3.6 0,2.52 1.8,2.52 2.016,0 5.184,-3.168 0.936,-0.936 1.944,-0.936 0.936,0 1.44,0.864 0.576,0.792 0.576,2.16 0,2.664 -1.44,4.176 -2.016,2.088 -4.752,3.6 -2.664,1.44 -5.688,1.44 -3.816,0 -5.832,-1.944 -1.944,-1.944 -1.944,-5.256 0,-1.08 0.216,-2.16 0.144,-1.44 0.144,-1.944 0,-1.152 -0.792,-1.152 -1.08,0 -2.88,2.448 -1.728,2.376 -3.456,6.336 -1.728,3.96 -2.808,8.352 -0.792,3.384 -1.872,4.608 -1.008,1.152 -3.24,1.152 z" stroke-width="0" stroke-linejoin="miter" stroke-miterlimit="2" fill="#858990" stroke="#858990" transform="translate(0 303.83488) translate(551.72710395 61.64816000000001) scale(1.67) translate(-541.54531 33.552)"></path>
        <path id="path26137" style="font-style:normal;font-weight:normal;font-size:72px;line-height:1;font-family:Pacifico;font-variant-ligatures:none;text-align:center;text-anchor:middle" d="m 581.51094,0.36 q -3.24,0 -5.328,-2.952 -2.016,-3.024 -2.016,-7.488 0,-5.4 0.72,-9.864 0.72,-4.536 2.376,-9.576 0.72,-2.16 2.016,-3.096 1.296,-0.936 4.104,-0.936 1.584,0 2.16,0.504 0.648,0.504 0.648,1.512 0,0.576 -0.792,3.888 -0.72,2.664 -1.152,4.824 -1.44,7.56 -1.44,10.08 0,1.512 0.36,2.16 0.36,0.576 1.152,0.576 1.08,0 2.664,-2.16 1.656,-2.16 3.456,-6.552 1.872,-4.392 3.6,-10.8 0.576,-2.16 1.728,-3.096 1.224,-0.936 3.6,-0.936 1.656,0 2.304,0.432 0.648,0.36 0.648,1.44 0,1.8 -1.8,9.864 -2.016,9.216 -2.016,11.376 0,1.368 0.576,2.16 0.576,0.72 1.512,0.72 1.44,0 3.384,-1.728 2.016,-1.8 5.328,-5.76 0.864,-1.008 1.944,-1.008 0.936,0 1.44,0.864 0.576,0.864 0.576,2.376 0,2.88 -1.368,4.464 -3.096,3.816 -6.696,6.264 -3.528,2.448 -8.064,2.448 -3.456,0 -5.112,-2.664 -1.584,-2.664 -1.584,-7.488 -1.224,4.896 -3.672,7.56 -2.448,2.592 -5.256,2.592 z" stroke-width="0" stroke-linejoin="miter" stroke-miterlimit="2" fill="#969aa0" stroke="#969aa0" transform="translate(0 303.83488) translate(606.20522605 61.64816000000001) scale(1.67) translate(-574.16694 33.552)"></path>
        <path id="path26139" style="font-style:normal;font-weight:normal;font-size:72px;line-height:1;font-family:Pacifico;font-variant-ligatures:none;text-align:center;text-anchor:middle" d="m 635.51994,-20.16 q 2.016,0 2.016,3.024 0,5.688 -8.928,5.688 -1.728,0 -4.968,-0.648 0.936,4.464 1.512,9.936 0.648,5.4 0.648,8.928 0,7.776 -2.52,11.88 -2.52,4.104 -6.624,4.104 -5.184,0 -7.416,-7.344 -2.16,-7.344 -2.16,-22.176 0,-13.824 2.952,-28.008 3.024,-14.256 8.208,-23.544 5.256,-9.36 11.52,-9.36 3.384,0 5.256,3.024 1.944,3.024 1.944,8.136 0,16.92 -20.232,36.864 -0.72,7.056 -0.72,12.384 0,7.416 0.504,15.192 0.504,7.848 1.656,7.848 2.16,0 2.16,-7.488 0,-5.616 -0.792,-10.872 -0.72,-5.256 -2.016,-11.088 -0.072,-0.936 0.576,-2.376 0.72,-1.44 1.728,-2.52 1.008,-1.08 1.8,-1.08 1.44,0 3.456,0.144 0.648,0.072 1.512,0.072 2.88,0 6.408,-0.504 0.576,-0.072 1.224,-0.144 0.648,-0.072 1.296,-0.072 z m -7.272,-40.392 q -1.296,0 -3.24,4.392 -1.872,4.392 -3.744,11.664 -1.872,7.2 -3.24,15.264 5.76,-6.552 8.856,-13.608 3.096,-7.128 3.168,-13.32 0,-4.392 -1.8,-4.392 z" stroke-width="0" stroke-linejoin="miter" stroke-miterlimit="2" fill="#a7abb0" stroke="#a7abb0" transform="translate(0 303.83488) translate(661.1699360499999 4.654399999999995) scale(1.67) translate(-607.07994 67.68)"></path>
      </g>
      <image xlink:href="" id="icon" x="0" y="0" style="display: none;"></image>
    </g>
  </g>
</svg>