<?xml version="1.0" encoding="utf-8"?>
<!-- Generator: Adobe Illustrator 28.0.0, SVG Export Plug-In . SVG Version: 6.00 Build 0)  -->
<svg version="1.1"
	 id="svg340677" xmlns:rdf="http://www.w3.org/1999/02/22-rdf-syntax-ns#" xmlns:svg="http://www.w3.org/2000/svg" xmlns:cc="http://creativecommons.org/ns#" xmlns:dc="http://purl.org/dc/elements/1.1/"
	 xmlns="http://www.w3.org/2000/svg" xmlns:xlink="http://www.w3.org/1999/xlink" x="0px" y="0px" viewBox="0 0 497.6 384"
	 style="enable-background:new 0 0 497.6 384;" xml:space="preserve">
<style type="text/css">
	.st0{display:none;fill:#E7E5DF;}
	.st1{fill:#E7E5DF;}
</style>
<g id="slogan" transform="translate(0 0)">
</g>
<path id="path340686" class="st0" d="M140.3-249.4h-14L104.1-199h14.5l4-9.8l4.2-10.5l6.5-16.1l6.5,16.1l4.2,10.5l4,9.8h14.8
	L140.3-249.4z"/>
<g>
	<path id="path340688" class="st1" d="M212.6,170.6c-4.8-4.8-11.2-7.2-19.1-7.2c-4.7,0-9,1-12.9,2.6c-4,1.8-7.2,4.3-9.7,7.6
		c-2.3-3.4-5.2-6-8.8-7.7c-3.6-1.7-7.7-2.5-12.3-2.5c-4,0-7.6,0.7-10.9,2c-3.4,1.3-6.1,3.2-8.5,5.9v-6.9h-21.8v65.2h22.8v-32.3
		c0-4.8,1-8.5,3.1-10.9c2-2.4,4.8-3.6,8.4-3.6c6.5,0,9.9,4.4,9.9,13.3v33.5h22.8v-32.3c0-4.8,1-8.5,3.1-10.9c2-2.4,4.8-3.6,8.3-3.6
		c3.1,0,5.5,1.1,7.2,3.2c1.7,2.2,2.6,5.5,2.6,10.1v33.5h22.8v-37.3C219.8,182.7,217.4,175.4,212.6,170.6L212.6,170.6z"/>
	<path id="path340690" class="st1" d="M286.8,170.8c-5.8-4.9-13.9-7.5-24.8-7.5c-5.3,0-10.5,0.7-15.6,2c-5.2,1.3-9.5,3.1-13.1,5.5
		l7.7,15.5c2.2-1.7,4.9-3.1,8.2-4.1c3.1-1,6.4-1.6,9.5-1.6c8.8,0,13.3,3.5,13.8,10.3h-13c-9.9,0-17.2,1.8-21.9,5.2
		c-4.8,3.4-7.1,8.2-7.1,14.3c0,3.8,0.8,7.3,2.8,10.3c1.9,3,4.7,5.4,8.4,7.1c3.6,1.8,8.1,2.6,13.1,2.6c9.5,0,15.9-3.1,19.2-9.5v8.4
		h21.3v-36.2C295.3,183.3,292.4,175.7,286.8,170.8L286.8,170.8z M268.1,214.3c-2,1.3-4.3,1.9-7,1.9c-2.6,0-4.8-0.6-6.3-1.8
		c-1.6-1.2-2.3-2.8-2.3-4.8c0-4.3,3.2-6.6,10-6.6h9.9v5.7C271.5,211.2,270,213.1,268.1,214.3z"/>
	<path id="path340692" class="st1" d="M340.6,165.6c-3.7,1.4-6.7,3.7-9,6.6v-7.8h-21.8v65.2h22.8v-29.9c0-5.4,1.3-9.5,4.1-12.1
		s6.6-4,11.5-4c1.3,0,3,0.1,5.2,0.4v-20.6C348.7,163.3,344.3,164.2,340.6,165.6z"/>
	<path id="path340694" class="st1" d="M431.7,164.4h-22.8v31.4c0,5.3-1.2,9.1-3.5,11.7c-2.3,2.5-5.2,3.7-8.8,3.7
		c-3.6,0-6.3-1.1-8.1-3.4c-1.9-2.2-2.8-5.8-2.8-10.7v-32.7h-22.8v36.4c0,10,2.4,17.4,7.5,22.4c5.1,5.1,11.8,7.5,20.2,7.5
		c3.7,0,7.3-0.6,10.7-2c3.4-1.3,6.3-3.4,8.7-6v7h21.8L431.7,164.4z"/>
	<path id="path340696" class="st1" d="M471.2,166.8v-1.4c0-2.8,0.6-4.9,1.9-6.4c1.3-1.4,3.2-2.2,5.7-2.2c2.3,0,4.6,0.7,6.9,1.9
		l5.7-16.1c-1.8-1.1-4.1-1.9-6.7-2.5c-2.8-0.5-5.5-0.8-8.4-0.8c-8.7,0-15.3,2.4-20.1,7c-4.8,4.7-7.1,10.9-7.1,18.9v1.7h-9.5v17.1
		h9.5v45.7h22.8v-45.7h14.9v-17.1H471.2z"/>
	
		<image style="overflow:visible;" width="118" height="118" xlink:href="D:\logo\1x\Asset 1.png"  transform="matrix(1 0 0 1 -4.3762 132.1881)">
	</image>
	
		<image style="overflow:visible;" width="370" height="373" xlink:href="D:\logo\1x\Asset 3.png"  transform="matrix(1 0 0 1 63.4168 5.6881)">
	</image>
</g>
</svg>
