<svg xmlns:dc="http://purl.org/dc/elements/1.1/" xmlns:cc="http://creativecommons.org/ns#" xmlns:rdf="http://www.w3.org/1999/02/22-rdf-syntax-ns#" xmlns:svg="http://www.w3.org/2000/svg" xmlns="http://www.w3.org/2000/svg" xmlns:xlink="http://www.w3.org/1999/xlink" id="svg715357" viewBox="0 0 1024 768" height="768px" width="1024px" version="1.1">
  <metadata id="metadata715363">
    <rdf:rdf>
      <cc:work rdf:about="">
        <dc:format>image/svg+xml</dc:format>
        <dc:type rdf:resource="http://purl.org/dc/dcmitype/StillImage"></dc:type>
      </cc:work>
    </rdf:rdf>
  </metadata>
  <defs id="defs715361"></defs>
  <linearGradient spreadMethod="pad" y2="30%" x2="-10%" y1="120%" x1="30%" id="3d_gradient2-logo-5936dcbe-93d3-4ca4-9a39-2a9d886c432c">
    <stop id="stop715338" stop-opacity="1" stop-color="#ffffff" offset="0%"></stop>
    <stop id="stop715340" stop-opacity="1" stop-color="#000000" offset="100%"></stop>
  </linearGradient>
  <linearGradient gradientTransform="rotate(-30)" spreadMethod="pad" y2="30%" x2="-10%" y1="120%" x1="30%" id="3d_gradient3-logo-5936dcbe-93d3-4ca4-9a39-2a9d886c432c">
    <stop id="stop715343" stop-opacity="1" stop-color="#ffffff" offset="0%"></stop>
    <stop id="stop715345" stop-opacity="1" stop-color="#cccccc" offset="50%"></stop>
    <stop id="stop715347" stop-opacity="1" stop-color="#000000" offset="100%"></stop>
  </linearGradient>
  <g id="logo-group">
    <image xlink:href="" id="container" x="272" y="144" width="480" height="480" transform="translate(0 0)" style="display: none;"></image>
    <g id="logo-center" transform="translate(0 0)">
      <image xlink:href="" id="icon_container" x="0" y="0" style="display: none;"></image>
      <g id="slogan" style="font-style:normal;font-weight:400;font-size:32px;line-height:1;font-family:'Roboto Condensed';font-variant-ligatures:none;text-align:center;text-anchor:middle" transform="translate(0 0)"></g>
      <g id="title" style="font-style:normal;font-weight:300;font-size:72px;line-height:1;font-family:'Montserrat Light Alt1';font-variant-ligatures:none;text-align:center;text-anchor:middle" transform="translate(0 0)">
        <path id="path715366" style="font-style:normal;font-weight:300;font-size:72px;line-height:1;font-family:'Montserrat Light Alt1';font-variant-ligatures:none;text-align:center;text-anchor:middle" d="m 376.86444,-50.4 h -3.672 L 350.00844,0 h 3.96 l 21.024,-46.368 21.096,46.368 h 3.96 z" stroke-width="0" stroke-linejoin="miter" stroke-miterlimit="2" fill="#548ee5" stroke="#548ee5" transform="translate(0 325.3834) translate(244.8323562500001 16.232000000000006) scale(1.67) translate(-350.00844 50.4)"></path>
        <path id="path715368" style="font-style:normal;font-weight:300;font-size:72px;line-height:1;font-family:'Montserrat Light Alt1';font-variant-ligatures:none;text-align:center;text-anchor:middle" d="m 456.86206,0 h 3.6 l -0.072,-50.4 h -3.024 l -22.536,38.952 -22.536,-38.952 h -3.096 V 0 h 3.6 v -42.984 l 21.096,36.288 h 1.8 l 21.096,-36.432 z" stroke-width="0" stroke-linejoin="miter" stroke-miterlimit="2" fill="#548ee5" stroke="#548ee5" transform="translate(0 325.3834) translate(343.67902165000004 16.232000000000006) scale(1.67) translate(-409.19806 50.4)"></path>
        <path id="path715370" style="font-style:normal;font-weight:300;font-size:72px;line-height:1;font-family:'Montserrat Light Alt1';font-variant-ligatures:none;text-align:center;text-anchor:middle" d="m 496.39569,-50.4 h -3.672 L 469.53969,0 h 3.96 l 21.024,-46.368 21.096,46.368 h 3.96 z" stroke-width="0" stroke-linejoin="miter" stroke-miterlimit="2" fill="#548ee5" stroke="#548ee5" transform="translate(0 325.3834) translate(444.44954375000003 16.232000000000006) scale(1.67) translate(-469.53969 50.4)"></path>
        <path id="path715372" style="font-style:normal;font-weight:300;font-size:72px;line-height:1;font-family:'Montserrat Light Alt1';font-variant-ligatures:none;text-align:center;text-anchor:middle" d="m 555.29731,-17.64 c 3.744,-1.08 6.696,-2.952 8.712,-5.688 2.016,-2.736 3.096,-6.048 3.096,-10.08 0,-5.256 -1.8,-9.432 -5.4,-12.456 -3.6,-3.024 -8.568,-4.536 -14.904,-4.536 h -18.072 v 3.312 h 18.072 c 5.328,0 9.432,1.224 12.312,3.6 2.808,2.376 4.248,5.76 4.248,10.08 0,4.392 -1.44,7.776 -4.248,10.152 -2.88,2.376 -6.984,3.528 -12.312,3.528 h -18.072 V 0 h 3.672 v -16.488 h 14.4 c 1.44,0 3.096,-0.072 4.896,-0.36 L 563.72131,0 h 4.176 z" stroke-width="0" stroke-linejoin="miter" stroke-miterlimit="2" fill="#548ee5" stroke="#548ee5" transform="translate(0 325.3834) translate(543.2962091500001 16.232000000000006) scale(1.67) translate(-528.72931 50.4)"></path>
        <path id="path715374" style="font-style:normal;font-weight:300;font-size:72px;line-height:1;font-family:'Montserrat Light Alt1';font-variant-ligatures:none;text-align:center;text-anchor:middle" d="m 585.44394,-5.184 c 3.528,3.744 8.496,5.544 14.904,5.544 6.336,0 11.304,-1.8 14.904,-5.544 3.528,-3.672 5.328,-9.072 5.328,-16.2 V -50.4 h -3.672 v 28.872 c 0,6.192 -1.44,10.872 -4.248,13.896 -2.88,3.096 -6.912,4.608 -12.24,4.608 -5.4,0 -9.504,-1.512 -12.312,-4.608 -2.88,-3.024 -4.248,-7.704 -4.248,-13.896 V -50.4 h -3.672 v 29.016 c 0,7.128 1.728,12.528 5.256,16.2 z" stroke-width="0" stroke-linejoin="miter" stroke-miterlimit="2" fill="#548ee5" stroke="#548ee5" transform="translate(0 325.3834) translate(629.2321212500001 16.232000000000006) scale(1.67) translate(-580.18794 50.4)"></path>
        <path id="path715376" style="font-style:normal;font-weight:300;font-size:72px;line-height:1;font-family:'Montserrat Light Alt1';font-variant-ligatures:none;text-align:center;text-anchor:middle" d="m 637.71369,-50.4 v 3.312 h 32.256 V -50.4 Z m 0,50.4 h 3.672 v -22.248 h 28.584 v -3.312 h -32.256 z" stroke-width="0" stroke-linejoin="miter" stroke-miterlimit="2" fill="#548ee5" stroke="#548ee5" transform="translate(0 325.3834) translate(725.30012375 16.232000000000006) scale(1.67) translate(-637.71369 50.4)"></path>
      </g>
      <image xlink:href="" id="icon" x="0" y="0" style="display: none;"></image>
    </g>
  </g>
</svg>