<svg xmlns:dc="http://purl.org/dc/elements/1.1/" xmlns:cc="http://creativecommons.org/ns#" xmlns:rdf="http://www.w3.org/1999/02/22-rdf-syntax-ns#" xmlns:svg="http://www.w3.org/2000/svg" xmlns="http://www.w3.org/2000/svg" xmlns:xlink="http://www.w3.org/1999/xlink" id="svg176321" viewBox="0 0 1024 768" height="768px" width="1024px" version="1.1">
  <metadata id="metadata176327">
    <rdf:rdf>
      <cc:work rdf:about="">
        <dc:format>image/svg+xml</dc:format>
        <dc:type rdf:resource="http://purl.org/dc/dcmitype/StillImage"></dc:type>
      </cc:work>
    </rdf:rdf>
  </metadata>
  <defs id="defs176325"></defs>
  <linearGradient spreadMethod="pad" y2="30%" x2="-10%" y1="120%" x1="30%" id="3d_gradient2-logo-a51cbded-95e3-4e67-985a-d69362b12a4a">
    <stop id="stop176302" stop-opacity="1" stop-color="#ffffff" offset="0%"></stop>
    <stop id="stop176304" stop-opacity="1" stop-color="#000000" offset="100%"></stop>
  </linearGradient>
  <linearGradient gradientTransform="rotate(-30)" spreadMethod="pad" y2="30%" x2="-10%" y1="120%" x1="30%" id="3d_gradient3-logo-a51cbded-95e3-4e67-985a-d69362b12a4a">
    <stop id="stop176307" stop-opacity="1" stop-color="#ffffff" offset="0%"></stop>
    <stop id="stop176309" stop-opacity="1" stop-color="#cccccc" offset="50%"></stop>
    <stop id="stop176311" stop-opacity="1" stop-color="#000000" offset="100%"></stop>
  </linearGradient>
  <g id="logo-group">
    <image xlink:href="" id="container" x="272" y="144" width="480" height="480" transform="translate(0 0)" style="display: none;"></image>
    <g id="logo-center" transform="translate(-1.1368683772161603e-13 0)">
      <image xlink:href="" id="icon_container" x="0" y="0" style="display: none;"></image>
      <g id="slogan" style="font-style:oblique;font-weight:700;font-size:32px;line-height:1;font-family:'Uni Neue';font-variant-ligatures:none;text-align:center;text-anchor:middle" transform="translate(0 0)"></g>
      <g id="title" style="font-style:normal;font-weight:300;font-size:72px;line-height:1;font-family:'Montserrat Light Alt1';font-variant-ligatures:none;text-align:center;text-anchor:middle" transform="translate(0 0)">
        <path id="path176330" style="font-style:normal;font-weight:300;font-size:72px;line-height:1;font-family:'Montserrat Light Alt1';font-variant-ligatures:none;text-align:center;text-anchor:middle" d="m 404.35662,-50.4 h -3.672 L 377.50063,0 h 3.95999 l 21.024,-46.368 21.096,46.368 h 3.96 z" stroke-width="0" stroke-linejoin="miter" stroke-miterlimit="2" fill="#4c7edc" stroke="#4c7edc" transform="translate(0 324.89704) translate(243.17864709999998 19.54400000000001) scale(1.67) translate(-377.50063 50.4)"></path>
        <path id="path176332" style="font-style:normal;font-weight:300;font-size:72px;line-height:1;font-family:'Montserrat Light Alt1';font-variant-ligatures:none;text-align:center;text-anchor:middle" d="m 493.28225,-33.768 c -2.664,-2.736 -6.336,-4.104 -10.944,-4.104 -3.6,0 -6.696,0.864 -9.36,2.448 -2.664,1.656 -4.608,3.888 -5.832,6.624 -1.008,-2.952 -2.736,-5.184 -5.112,-6.768 -2.376,-1.512 -5.256,-2.304 -8.64,-2.304 -3.456,0 -6.408,0.792 -8.856,2.232 -2.448,1.44 -4.32,3.528 -5.544,6.12 v -8.064 h -3.456 V 0 h 3.6 v -20.016 c 0,-4.464 1.224,-7.992 3.672,-10.656 2.448,-2.592 5.832,-3.96 10.08,-3.96 3.672,0 6.552,1.152 8.64,3.312 2.016,2.232 3.096,5.472 3.096,9.648 V 0 h 3.6 v -20.016 c 0,-4.464 1.224,-7.992 3.672,-10.656 2.448,-2.592 5.832,-3.96 10.08,-3.96 3.672,0 6.552,1.152 8.64,3.312 2.016,2.232 3.096,5.472 3.096,9.648 V 0 h 3.6 v -21.96 c 0,-5.112 -1.368,-9.072 -4.032,-11.808 z" stroke-width="0" stroke-linejoin="miter" stroke-miterlimit="2" fill="#4c7edc" stroke="#4c7edc" transform="translate(0 324.89704) translate(356.8014725 40.46576) scale(1.67) translate(-435.53825 37.872)"></path>
        <path id="path176334" style="font-style:normal;font-weight:300;font-size:72px;line-height:1;font-family:'Montserrat Light Alt1';font-variant-ligatures:none;text-align:center;text-anchor:middle" d="m 535.57888,-34.272 c -2.52001,-2.376 -6.12,-3.6 -10.72801,-3.6 -2.88,0 -5.688,0.504 -8.28,1.44 -2.66399,0.936 -4.896,2.232 -6.768,3.888 l 1.8,2.592 c 1.584,-1.44 3.456,-2.592 5.76001,-3.456 2.30399,-0.864 4.67999,-1.296 7.19999,-1.296 3.6,0 6.408,0.936 8.28001,2.736 1.87199,1.872 2.88,4.536 2.88,7.992 v 3.024 h -12.88801 c -4.89599,0 -8.49599,1.008 -10.728,2.952 -2.232,1.944 -3.312,4.464 -3.312,7.56 0,3.24 1.152,5.832 3.6,7.776 2.44801,2.016 5.76,2.952 9.936,2.952 3.168,0 5.976,-0.576 8.28,-1.8 2.30401,-1.224 4.032,-2.952 5.25601,-5.184 V 0 h 3.45599 v -23.832 c 0,-4.608 -1.29599,-8.064 -3.74399,-10.44 z m -4.82401,29.448 c -2.16,1.44 -4.82399,2.16 -7.92,2.16 -3.312,0 -5.90399,-0.648 -7.704,-2.088 -1.872,-1.44 -2.736,-3.384 -2.736,-5.832 0,-2.304 0.792,-4.176 2.44801,-5.544 1.65599,-1.296 4.31999,-2.016 8.064,-2.016 h 12.816 v 7.056 c -1.15201,2.736 -2.808,4.824 -4.96801,6.264 z" stroke-width="0" stroke-linejoin="miter" stroke-miterlimit="2" fill="#4c7edc" stroke="#4c7edc" transform="translate(0 324.89704) translate(495.84002789999994 40.46576) scale(1.67) translate(-508.79487 37.872)"></path>
        <path id="path176336" style="font-style:normal;font-weight:300;font-size:72px;line-height:1;font-family:'Montserrat Light Alt1';font-variant-ligatures:none;text-align:center;text-anchor:middle" d="m 563.08175,-35.64 c -2.448,1.44 -4.248,3.528 -5.4,6.264 v -8.208 h -3.456 V 0 h 3.6 v -19.584 c 0,-4.608 1.152,-8.28 3.528,-10.872 2.304,-2.592 5.616,-3.96 9.792,-3.96 l 0.864,0.072 v -3.528 c -3.528,0 -6.48,0.792 -8.928,2.232 z" stroke-width="0" stroke-linejoin="miter" stroke-miterlimit="2" fill="#4c7edc" stroke="#4c7edc" transform="translate(0 324.89704) translate(588.4095974999999 40.46576) scale(1.67) translate(-554.22575 37.872)"></path>
        <path id="path176338" style="font-style:normal;font-weight:300;font-size:72px;line-height:1;font-family:'Montserrat Light Alt1';font-variant-ligatures:none;text-align:center;text-anchor:middle" d="m 615.536,-37.584 h -3.6 v 20.016 c 0,4.464 -1.296,8.064 -3.744,10.656 -2.448,2.664 -5.832,3.96 -10.008,3.96 -3.96,0 -6.984,-1.08 -9.144,-3.312 -2.16,-2.16 -3.24,-5.4 -3.24,-9.648 v -21.672 h -3.6 v 21.96 c 0,5.184 1.368,9.072 4.176,11.808 2.736,2.736 6.624,4.104 11.52,4.104 3.312,0 6.192,-0.72 8.64,-2.16 2.448,-1.44 4.248,-3.528 5.544,-6.192 V 0 h 3.456 z" stroke-width="0" stroke-linejoin="miter" stroke-miterlimit="2" fill="#4c7edc" stroke="#4c7edc" transform="translate(0 324.89704) translate(651.8265950000001 40.94672) scale(1.67) translate(-582.2 37.584)"></path>
        <path id="path176340" style="font-style:normal;font-weight:300;font-size:72px;line-height:1;font-family:'Montserrat Light Alt1';font-variant-ligatures:none;text-align:center;text-anchor:middle" d="m 635.11437,-43.056 c 0,-5.04 2.304,-7.56 7.05601,-7.56 2.30399,0 4.24799,0.72 5.832,2.088 l 1.43999,-2.736 c -0.86399,-0.792 -2.016,-1.368 -3.312,-1.8 -1.29599,-0.432 -2.664,-0.648 -4.10399,-0.648 -3.312,0 -5.904,0.936 -7.70401,2.808 -1.872,1.872 -2.736,4.392 -2.736,7.56 v 5.76 h -6.91199 v 3.096 h 6.91199 V 0 h 3.6 v -34.488 h 11.952 v -3.096 h -12.024 z" stroke-width="0" stroke-linejoin="miter" stroke-miterlimit="2" fill="#4c7edc" stroke="#4c7edc" transform="translate(0 324.89704) translate(739.4588096000001 14.012960000000007) scale(1.67) translate(-624.67438 53.712)"></path>
      </g>
      <image xlink:href="" id="icon" x="0" y="0" style="display: none;"></image>
    </g>
  </g>
</svg>