<svg xmlns:dc="http://purl.org/dc/elements/1.1/" xmlns:cc="http://creativecommons.org/ns#" xmlns:rdf="http://www.w3.org/1999/02/22-rdf-syntax-ns#" xmlns:svg="http://www.w3.org/2000/svg" xmlns="http://www.w3.org/2000/svg" xmlns:xlink="http://www.w3.org/1999/xlink" id="svg486983" viewBox="0 0 1024 768" height="768px" width="1024px" version="1.1">
  <metadata id="metadata486989">
    <rdf:rdf>
      <cc:work rdf:about="">
        <dc:format>image/svg+xml</dc:format>
        <dc:type rdf:resource="http://purl.org/dc/dcmitype/StillImage"></dc:type>
      </cc:work>
    </rdf:rdf>
  </metadata>
  <defs id="defs486987"></defs>
  <linearGradient spreadMethod="pad" y2="30%" x2="-10%" y1="120%" x1="30%" id="3d_gradient2-logo-200bd42d-ad31-4131-879d-bd5e51d0c705">
    <stop id="stop486964" stop-opacity="1" stop-color="#ffffff" offset="0%"></stop>
    <stop id="stop486966" stop-opacity="1" stop-color="#000000" offset="100%"></stop>
  </linearGradient>
  <linearGradient gradientTransform="rotate(-30)" spreadMethod="pad" y2="30%" x2="-10%" y1="120%" x1="30%" id="3d_gradient3-logo-200bd42d-ad31-4131-879d-bd5e51d0c705">
    <stop id="stop486969" stop-opacity="1" stop-color="#ffffff" offset="0%"></stop>
    <stop id="stop486971" stop-opacity="1" stop-color="#cccccc" offset="50%"></stop>
    <stop id="stop486973" stop-opacity="1" stop-color="#000000" offset="100%"></stop>
  </linearGradient>
  <g id="logo-group">
    <image xlink:href="" id="container" x="272" y="144" width="480" height="480" transform="translate(0 0)" style="display: none;"></image>
    <g id="logo-center" transform="translate(0 0)">
      <image xlink:href="" id="icon_container" x="0" y="0" style="display: none;"></image>
      <g id="slogan" style="font-style:normal;font-weight:400;font-size:32px;line-height:1;font-family:'Nunito Sans';font-variant-ligatures:none;text-align:center;text-anchor:middle" transform="translate(0 0)"></g>
      <g id="title" style="font-style:normal;font-weight:normal;font-size:72px;line-height:1;font-family:'Brandmark Sans 28';font-variant-ligatures:normal;text-align:center;text-anchor:middle" transform="translate(0 0)">
        <g id="path486992" aria-label="M" transform="translate(0 334) translate(199.26762000000008 -0.3999999999999986) scale(2) translate(-386.73406 50.4)"> <polygon class="c1" points="113.59692,74.09332 113.59692,74.09497 112.9353,74.09497 100.00122,96.02771 87.06738,74.09497 86.40308,74.09497 86.40308,74.09332 71.80249,74.09332 71.80249,124.52972 86.40308,124.52972 86.40308,97.72437 92.70142,108.40424 100.00122,120.78082 107.30127,108.40424 113.59692,97.72876 113.59692,124.52972 128.19751,124.52972 128.19751,74.09332 " transform="translate(314.93157 -124.49332)" stroke-width="0" stroke-linejoin="miter" stroke-miterlimit="2" fill="#343434" stroke="#343434"></polygon> <linearGradient id="a8470ca4-aa74-4aaf-9dc2-e6ed34ef29bf" gradientUnits="userSpaceOnUse" x1="80.94681" y1="74.82027" x2="102.10015" y2="113.70509"> <stop offset="0" style="stop-color:#FFFFFF;stop-opacity:0.5"></stop> <stop offset="0.01383" style="stop-color:#FFFFFF;stop-opacity:0.49309"></stop> <stop offset="1" style="stop-color:#FFFFFF;stop-opacity:0"></stop> </linearGradient> <polygon class="highlight" fill="url(#a8470ca4-aa74-4aaf-9dc2-e6ed34ef29bf)" points="107.30116,108.40427 100.0013,120.78085 92.70145,108.40427 72.46761,74.09498 87.0673,74.09498 100.0013,96.02769 " transform="translate(314.93157 -124.49332)" stroke-width="0" stroke-linejoin="miter" stroke-miterlimit="2" opacity="1"></polygon> <linearGradient id="c803933d-5c08-4225-9c12-767a2aa6b7ff" gradientUnits="userSpaceOnUse" x1="120.89726" y1="73.90538" x2="120.89726" y2="122.74471"> <stop offset="0" style="stop-color:#FFFFFF;stop-opacity:0.5"></stop> <stop offset="0.01383" style="stop-color:#FFFFFF;stop-opacity:0.49309"></stop> <stop offset="1" style="stop-color:#FFFFFF;stop-opacity:0"></stop> </linearGradient> <polygon class="highlight" fill="url(#c803933d-5c08-4225-9c12-767a2aa6b7ff)" points="128.19751,124.52972 113.59702,124.52972 113.59702,74.09335 128.19751,74.09335 " transform="translate(314.93157 -124.49332)" stroke-width="0" stroke-linejoin="miter" stroke-miterlimit="2" opacity="1"></polygon> <linearGradient id="14132b60-ae24-4bdc-a8bc-89ee04e80f49" gradientUnits="userSpaceOnUse" x1="118.67101" y1="76.81688" x2="95.42242" y2="116.04887"> <stop offset="0" style="stop-color:#000000;stop-opacity:0.4"></stop> <stop offset="0.27595" style="stop-color:#0F0D0D;stop-opacity:0.28962"></stop> <stop offset="0.67484" style="stop-color:#1E1A1B;stop-opacity:0.13006"></stop> <stop offset="1" style="stop-color:#231F20;stop-opacity:0"></stop> </linearGradient> <polygon class="highlight" fill="url(#14132b60-ae24-4bdc-a8bc-89ee04e80f49)" points="112.9353,74.09497 100.00146,96.02734 107.30127,108.40424 113.59692,97.72888 113.59692,74.09497 " transform="translate(314.93157 -124.49332)" stroke-width="0" stroke-linejoin="miter" stroke-miterlimit="2" opacity="1"></polygon> <linearGradient id="dc2f8577-1147-445a-8bf2-3e936d0c1474" gradientUnits="userSpaceOnUse" x1="79.10278" y1="74.34427" x2="79.10278" y2="123.40578"> <stop offset="0" style="stop-color:#000000;stop-opacity:0.4"></stop> <stop offset="0.27595" style="stop-color:#0F0D0D;stop-opacity:0.28962"></stop> <stop offset="0.67484" style="stop-color:#1E1A1B;stop-opacity:0.13006"></stop> <stop offset="1" style="stop-color:#231F20;stop-opacity:0"></stop> </linearGradient> <polygon class="highlight" fill="url(#dc2f8577-1147-445a-8bf2-3e936d0c1474)" points="72.46655,74.09332 71.80249,74.09332 71.80249,124.52972 86.40308,124.52972 86.40308,97.72369 " transform="translate(314.93157 -124.49332)" stroke-width="0" stroke-linejoin="miter" stroke-miterlimit="2" opacity="1"></polygon> </g>
        <g id="path486994" aria-label="A" transform="translate(0 334) translate(351.2851200000002 -0.3999999999999986) scale(2) translate(-447.74281 50.4)"> <polygon class="c1" points="126.98309,124.52972 107.96387,74.09351 107.07361,74.09351 92.69977,74.09351 91.80945,74.09351 73.01691,124.52972 88.28107,124.52972 99.92975,93.26648 111.71893,124.52972 " transform="translate(374.7259 -124.49351)" stroke-width="0" stroke-linejoin="miter" stroke-miterlimit="2" fill="#343434" stroke="#343434"></polygon> <linearGradient id="5dcac997-f4d4-4c74-8565-49d2611746b2" gradientUnits="userSpaceOnUse" x1="99.69487" y1="74.29882" x2="80.55542" y2="123.91029"> <stop offset="0.22" style="stop-color:#231F20;stop-opacity:0"></stop> <stop offset="0.47363" style="stop-color:#1E1A1B;stop-opacity:0.13006"></stop> <stop offset="0.78476" style="stop-color:#0F0D0D;stop-opacity:0.28962"></stop> <stop offset="1" style="stop-color:#000000;stop-opacity:0.4"></stop> </linearGradient> <polygon class="highlight" fill="url(#5dcac997-f4d4-4c74-8565-49d2611746b2)" points="107.07359,74.09354 91.80946,74.09354 73.01694,124.52972 88.28106,124.52972 " transform="translate(374.7259 -124.49351)" stroke-width="0" stroke-linejoin="miter" stroke-miterlimit="2" opacity="1"></polygon> <linearGradient id="bced4e04-86e7-412b-b3ca-91dde79fcd4f" gradientUnits="userSpaceOnUse" x1="99.69487" y1="74.29882" x2="80.55542" y2="123.91029"> <stop offset="0" style="stop-color:#FFFFFF;stop-opacity:0.4"></stop> <stop offset="0.78" style="stop-color:#FFFFFF;stop-opacity:0"></stop> </linearGradient> <polygon class="highlight" fill="url(#bced4e04-86e7-412b-b3ca-91dde79fcd4f)" points="107.07359,74.09354 91.80946,74.09354 73.01694,124.52972 88.28106,124.52972 " transform="translate(374.7259 -124.49351)" stroke-width="0" stroke-linejoin="miter" stroke-miterlimit="2" opacity="1"></polygon> <linearGradient id="0c982b8a-f191-4147-a2ad-62c7b778b770" gradientUnits="userSpaceOnUse" x1="118.91997" y1="121.8189" x2="100.46027" y2="76.05422"> <stop offset="0" style="stop-color:#231F20;stop-opacity:0"></stop> <stop offset="0.32516" style="stop-color:#1E1A1B;stop-opacity:0.13006"></stop> <stop offset="0.72405" style="stop-color:#0F0D0D;stop-opacity:0.28962"></stop> <stop offset="1" style="stop-color:#000000;stop-opacity:0.4"></stop> </linearGradient> <polygon class="highlight" fill="url(#0c982b8a-f191-4147-a2ad-62c7b778b770)" points="126.98309,124.52972 107.96387,74.09351 107.07361,74.09351 99.92975,93.26648 111.71893,124.52972 " transform="translate(374.7259 -124.49351)" stroke-width="0" stroke-linejoin="miter" stroke-miterlimit="2" opacity="1"></polygon> </g>
        <g id="path486996" aria-label="R" transform="translate(0 334) translate(479.6056200000001 -0.3999999999999986) scale(2) translate(-496.90306 50.4)"> <path class="c1" d="M121.67407,92.85052v-0.00006c0-10.35925-8.39795-18.75708-18.75708-18.75708l-24.59106,0.00018v13.27228 l24.59106-0.00018c3.02905,0.00012,5.48486,2.45563,5.48486,5.4848v0.00006c0,3.02893-2.45508,5.48425-5.48413,5.48474v-0.00085 l-8.00049,0.00018l-5.30884,13.27222l10.68262,12.92279h18.58203l-12.16772-13.30518 C115.24854,109.47223,121.67407,101.91193,121.67407,92.85052z" transform="translate(418.57713 -124.49338)" stroke-width="0" stroke-linejoin="miter" stroke-miterlimit="2" fill="#343434" stroke="#343434"></path> <linearGradient id="56131297-9e78-4040-b614-10b88f0ea726" gradientUnits="userSpaceOnUse" x1="92.97134" y1="104.19817" x2="108.90907" y2="123.81383"> <stop offset="0" style="stop-color:#FFFFFF;stop-opacity:0.5"></stop> <stop offset="0.01383" style="stop-color:#FFFFFF;stop-opacity:0.49309"></stop> <stop offset="1" style="stop-color:#FFFFFF;stop-opacity:0"></stop> </linearGradient> <polygon class="highlight" fill="url(#56131297-9e78-4040-b614-10b88f0ea726)" points="100.29094,124.52959 118.87318,124.52959 94.91724,98.33458 89.60835,111.60686 " transform="translate(418.57713 -124.49338)" stroke-width="0" stroke-linejoin="miter" stroke-miterlimit="2" opacity="1"></polygon> <linearGradient id="bb85db03-ffbb-4db4-8c4f-bc472dab21bd" gradientUnits="userSpaceOnUse" x1="100" y1="92.85046" x2="100" y2="74.09338"> <stop offset="0" style="stop-color:#FFFFFF;stop-opacity:0"></stop> <stop offset="0.98617" style="stop-color:#FFFFFF;stop-opacity:0.49309"></stop> <stop offset="1" style="stop-color:#FFFFFF;stop-opacity:0.5"></stop> </linearGradient> <path class="highlight" fill="url(#bb85db03-ffbb-4db4-8c4f-bc472dab21bd)" d="M102.91699,74.09338v0.00079V74.09338l-24.59106,0.00018v13.27228l24.59106-0.00018 c3.02905,0.00012,5.48486,2.45563,5.48486,5.4848h13.27222C121.67407,82.49121,113.27612,74.09338,102.91699,74.09338z" transform="translate(418.57713 -124.49338)" stroke-width="0" stroke-linejoin="miter" stroke-miterlimit="2" opacity="1"></path> <linearGradient id="fba30a94-7d22-4f36-829a-812a4d03716e" gradientUnits="userSpaceOnUse" x1="86.54824" y1="102.03745" x2="111.8803" y2="102.03745"> <stop offset="0.25563" style="stop-color:#000000;stop-opacity:0.4"></stop> <stop offset="0.46104" style="stop-color:#0F0D0D;stop-opacity:0.28962"></stop> <stop offset="0.75796" style="stop-color:#1E1A1B;stop-opacity:0.13006"></stop> <stop offset="1" style="stop-color:#231F20;stop-opacity:0"></stop> </linearGradient> <path class="highlight" fill="url(#fba30a94-7d22-4f36-829a-812a4d03716e)" d="M121.67407,92.85052v-0.00006h-13.27222v0.00006c0,3.02893-2.45508,5.48425-5.48413,5.48474 v-0.00085l-8.00049,0.00018l11.78809,12.88983C115.24854,109.47223,121.67407,101.91193,121.67407,92.85052z" transform="translate(418.57713 -124.49338)" stroke-width="0" stroke-linejoin="miter" stroke-miterlimit="2" opacity="1"></path> </g>
        <g id="path486998" aria-label="U" transform="translate(0 334) translate(607.32762 -0.3999999999999986) scale(2) translate(-545.76406 50.4)"> <polygon class="c1" points="122.81104,74.09332 108.21045,74.09332 108.21045,111.25647 91.78955,111.25635 91.78955,74.09332 77.18896,74.09332 77.18896,111.25635 91.72412,124.47034 91.78809,124.52863 91.78955,124.52966 91.78955,124.52863 108.21045,124.52881 108.21045,124.52966 118.69336,115 122.81104,111.25653 122.81104,111.25653 122.81104,111.25635 " transform="translate(468.57514 -124.49332)" stroke-width="0" stroke-linejoin="miter" stroke-miterlimit="2" fill="#343434" stroke="#343434"></polygon> <linearGradient id="f0410960-d58d-4846-9ed9-2ec0c113b7a4" gradientUnits="userSpaceOnUse" x1="84.48917" y1="121.96129" x2="84.48917" y2="75.69415"> <stop offset="0" style="stop-color:#000000;stop-opacity:0.4"></stop> <stop offset="0.19745" style="stop-color:#0F0D0D;stop-opacity:0.28962"></stop> <stop offset="0.48286" style="stop-color:#1E1A1B;stop-opacity:0.13006"></stop> <stop offset="0.71552" style="stop-color:#231F20;stop-opacity:0"></stop> </linearGradient> <polygon class="highlight" fill="url(#f0410960-d58d-4846-9ed9-2ec0c113b7a4)" points="77.18892,111.25639 91.78942,124.52969 91.78942,74.09333 77.18892,74.09333 " transform="translate(468.57514 -124.49332)" stroke-width="0" stroke-linejoin="miter" stroke-miterlimit="2" opacity="1"></polygon> <linearGradient id="bef1293d-0956-47fa-a83f-646bc33995fb" gradientUnits="userSpaceOnUse" x1="84.48917" y1="121.96129" x2="84.48917" y2="75.69415"> <stop offset="0.20551" style="stop-color:#FFFFFF;stop-opacity:0"></stop> <stop offset="0.98901" style="stop-color:#FFFFFF;stop-opacity:0.49309"></stop> <stop offset="1" style="stop-color:#FFFFFF;stop-opacity:0.5"></stop> </linearGradient> <polygon class="highlight" fill="url(#bef1293d-0956-47fa-a83f-646bc33995fb)" points="77.18892,111.25639 91.78942,124.52969 91.78942,74.09333 77.18892,74.09333 " transform="translate(468.57514 -124.49332)" stroke-width="0" stroke-linejoin="miter" stroke-miterlimit="2" opacity="1"></polygon> <linearGradient id="1b24c376-c3bc-4f2a-9055-2fb1509a594f" gradientUnits="userSpaceOnUse" x1="91.78809" y1="117.89261" x2="110.54768" y2="117.89261"> <stop offset="0" style="stop-color:#000000;stop-opacity:0.4"></stop> <stop offset="0.27595" style="stop-color:#0F0D0D;stop-opacity:0.28962"></stop> <stop offset="0.67484" style="stop-color:#1E1A1B;stop-opacity:0.13006"></stop> <stop offset="1" style="stop-color:#231F20;stop-opacity:0"></stop> </linearGradient> <polygon class="highlight" fill="url(#1b24c376-c3bc-4f2a-9055-2fb1509a594f)" points="108.21097,124.52884 122.81108,111.25656 91.78942,111.25639 91.78809,124.52863 " transform="translate(468.57514 -124.49332)" stroke-width="0" stroke-linejoin="miter" stroke-miterlimit="2" opacity="1"></polygon> <linearGradient id="92d6d9bb-645b-488d-a65e-abb40117423c" gradientUnits="userSpaceOnUse" x1="91.78942" y1="117.89261" x2="110.54821" y2="117.89261"> <stop offset="0.18177" style="stop-color:#FFFFFF;stop-opacity:0"></stop> <stop offset="0.98869" style="stop-color:#FFFFFF;stop-opacity:0.49309"></stop> <stop offset="1" style="stop-color:#FFFFFF;stop-opacity:0.5"></stop> </linearGradient> <polygon class="highlight" fill="url(#92d6d9bb-645b-488d-a65e-abb40117423c)" points="108.21097,124.52884 122.81108,111.25656 91.78942,111.25639 91.78955,124.52863 " transform="translate(468.57514 -124.49332)" stroke-width="0" stroke-linejoin="miter" stroke-miterlimit="2" opacity="1"></polygon> <linearGradient id="26da23bd-e474-4cd2-ac0d-fce0c500a9d9" gradientUnits="userSpaceOnUse" x1="115.51074" y1="116.42979" x2="115.51074" y2="94.29201"> <stop offset="0" style="stop-color:#000000;stop-opacity:0.4"></stop> <stop offset="0.27595" style="stop-color:#0F0D0D;stop-opacity:0.28962"></stop> <stop offset="0.67484" style="stop-color:#1E1A1B;stop-opacity:0.13006"></stop> <stop offset="1" style="stop-color:#231F20;stop-opacity:0"></stop> </linearGradient> <rect x="108.21045" y="74.09332" class="highlight" fill="url(#26da23bd-e474-4cd2-ac0d-fce0c500a9d9)" width="14.60059" height="37.16302" transform="translate(468.57514 -124.49332)" stroke-width="0" stroke-linejoin="miter" stroke-miterlimit="2" opacity="1"></rect> </g>
        <g id="path487000" aria-label="F" transform="translate(0 334) translate(742.65238 -0.3999999999999986) scale(2) translate(-598.42644 50.4)"> <polygon class="c1" points="120.52075,87.3653 120.52075,74.09302 94.07935,74.0932 94.07935,74.09363 79.47925,87.3653 79.47925,124.52972 94.07971,124.52972 94.07971,106.61084 118.09473,106.61066 118.09473,93.33844 94.07971,93.33856 94.07971,87.36548 " transform="translate(518.94725 -124.49302)" stroke-width="0" stroke-linejoin="miter" stroke-miterlimit="2" fill="#343434" stroke="#343434"></polygon> <linearGradient id="16b07745-40fd-4142-97ed-eba087330267" gradientUnits="userSpaceOnUse" x1="94.07934" y1="90.35196" x2="120.52081" y2="90.35196"> <stop offset="0" style="stop-color:#000000;stop-opacity:0.4"></stop> <stop offset="0.27595" style="stop-color:#0F0D0D;stop-opacity:0.28962"></stop> <stop offset="0.67484" style="stop-color:#1E1A1B;stop-opacity:0.13006"></stop> <stop offset="1" style="stop-color:#231F20;stop-opacity:0"></stop> </linearGradient> <path class="highlight" fill="url(#16b07745-40fd-4142-97ed-eba087330267)" d="M94.07953,106.61088V93.33861l24.01519-0.00018l-0.00001,13.27228L94.07953,106.61088z M120.52081,87.36532V74.09304l-26.44147,0.00018v13.27227L120.52081,87.36532z" transform="translate(518.94725 -124.49302)" stroke-width="0" stroke-linejoin="miter" stroke-miterlimit="2" opacity="1"></path> <linearGradient id="1efc6975-5949-4243-bbb9-c46efca4efb2" gradientUnits="userSpaceOnUse" x1="86.77944" y1="124.52972" x2="86.77944" y2="74.09335"> <stop offset="0" style="stop-color:#000000;stop-opacity:0.3"></stop> <stop offset="0.21414" style="stop-color:#0F0D0D;stop-opacity:0.21727"></stop> <stop offset="0.52404" style="stop-color:#1E1A1B;stop-opacity:0.09755"></stop> <stop offset="0.77654" style="stop-color:#231F20;stop-opacity:0"></stop> </linearGradient> <polygon class="highlight" fill="url(#1efc6975-5949-4243-bbb9-c46efca4efb2)" points="79.47919,124.52972 94.07969,124.52972 94.07969,74.09335 79.47919,87.3653 " transform="translate(518.94725 -124.49302)" stroke-width="0" stroke-linejoin="miter" stroke-miterlimit="2" opacity="1"></polygon> <linearGradient id="472ee5f6-ed16-4324-86a3-6c910f1a59bd" gradientUnits="userSpaceOnUse" x1="86.77944" y1="74.76357" x2="86.77944" y2="123.2663"> <stop offset="0" style="stop-color:#FFFFFF;stop-opacity:0.5"></stop> <stop offset="0.01111" style="stop-color:#FFFFFF;stop-opacity:0.49309"></stop> <stop offset="0.80327" style="stop-color:#FFFFFF;stop-opacity:0"></stop> </linearGradient> <polygon class="highlight" fill="url(#472ee5f6-ed16-4324-86a3-6c910f1a59bd)" points="79.47919,124.52972 94.07969,124.52972 94.07969,74.09335 79.47919,87.3653 " transform="translate(518.94725 -124.49302)" stroke-width="0" stroke-linejoin="miter" stroke-miterlimit="2" opacity="1"></polygon> </g>
           </g>
      <image xlink:href="" id="icon" x="0" y="0" style="display: none;"></image>
    </g>
  </g>
</svg>