<?xml version="1.0" encoding="UTF-8"?>
<svg id="Layer_2" data-name="Layer 2" xmlns="http://www.w3.org/2000/svg" xmlns:xlink="http://www.w3.org/1999/xlink" viewBox="0 0 495.54 373">
  <defs>
    <style>
      .cls-1 {
        fill: #525251;
        stroke-width: 0px;
      }
    </style>
  </defs>
  <g id="svg340677">
    <g>
      <g>
        <path id="path340688" class="cls-1" d="m216.87,161.59c-4.81-4.81-11.18-7.21-19.12-7.21-4.69,0-9.02.96-12.87,2.65-3.97,1.8-7.21,4.33-9.74,7.58-2.28-3.37-5.17-6.01-8.78-7.7-3.61-1.68-7.7-2.53-12.26-2.53-3.97,0-7.58.72-10.94,2.04s-6.13,3.25-8.54,5.89v-6.85h-21.76v65.17h22.85v-32.34c0-4.81.96-8.54,3.13-10.94,2.04-2.4,4.81-3.61,8.42-3.61,6.49,0,9.86,4.45,9.86,13.35v33.55h22.85v-32.34c0-4.81.96-8.54,3.13-10.94,2.04-2.4,4.81-3.61,8.3-3.61,3.13,0,5.53,1.08,7.21,3.25s2.65,5.53,2.65,10.1v33.55h22.85v-37.27c0-9.62-2.4-16.95-7.21-21.76h0Z"/>
        <path id="path340690" class="cls-1" d="m291.05,161.83c-5.77-4.93-13.95-7.45-24.77-7.45-5.29,0-10.46.72-15.63,2.04s-9.5,3.13-13.11,5.53l7.7,15.51c2.16-1.68,4.93-3.13,8.18-4.09,3.13-.96,6.37-1.56,9.5-1.56,8.78,0,13.35,3.49,13.83,10.34h-12.99c-9.86,0-17.19,1.8-21.88,5.17-4.81,3.37-7.09,8.18-7.09,14.31,0,3.85.84,7.33,2.77,10.34,1.92,3.01,4.69,5.41,8.42,7.09,3.61,1.8,8.06,2.65,13.11,2.65,9.5,0,15.87-3.13,19.24-9.5v8.42h21.28v-36.19c0-10.1-2.89-17.68-8.54-22.61h0Zm-18.64,43.53c-2.04,1.32-4.33,1.92-6.97,1.92s-4.81-.6-6.25-1.8c-1.56-1.2-2.28-2.77-2.28-4.81,0-4.33,3.25-6.61,9.98-6.61h9.86v5.65c-.96,2.53-2.4,4.45-4.33,5.65Z"/>
        <path id="path340692" class="cls-1" d="m344.9,156.66c-3.73,1.44-6.73,3.73-9.02,6.61v-7.82h-21.76v65.17h22.85v-29.94c0-5.41,1.32-9.5,4.09-12.14s6.61-3.97,11.54-3.97c1.32,0,3.01.12,5.17.36v-20.56c-4.81,0-9.14.84-12.87,2.28Z"/>
        <path id="path340694" class="cls-1" d="m435.97,155.46h-22.85v31.38c0,5.29-1.2,9.14-3.49,11.66-2.28,2.53-5.17,3.73-8.78,3.73s-6.25-1.08-8.06-3.37c-1.92-2.16-2.77-5.77-2.77-10.7v-32.71h-22.85v36.43c0,9.98,2.4,17.43,7.45,22.36,5.05,5.05,11.78,7.45,20.2,7.45,3.73,0,7.33-.6,10.7-2.04,3.37-1.32,6.25-3.37,8.66-6.01v6.97h21.76v-65.17Z"/>
        <path id="path340696" class="cls-1" d="m475.46,157.86v-1.44c0-2.77.6-4.93,1.92-6.37,1.32-1.44,3.25-2.16,5.65-2.16s4.57.72,6.85,1.92l5.65-16.11c-1.8-1.08-4.09-1.92-6.73-2.53-2.77-.48-5.53-.84-8.42-.84-8.66,0-15.27,2.4-20.08,6.97-4.81,4.69-7.09,10.94-7.09,18.88v1.68h-9.5v17.07h9.5v45.69h22.85v-45.69h14.91v-17.07h-15.51Z"/>
      </g>
      <image width="118" height="118" transform="translate(0 122.49)" xlink:href="../1x/Asset 1.png"/>
      <image width="370" height="373" transform="translate(67.9)" xlink:href="../1x/Asset 3.png"/>
    </g>
  </g>
</svg>