<!--?xml version="1.0" standalone="no"?-->
              <svg id="sw-js-blob-svg" viewBox="0 0 100 100" xmlns="http://www.w3.org/2000/svg" version="1.1">
                    <defs> 
                        <linearGradient id="sw-gradient" x1="0" x2="1" y1="1" y2="0">
                            <stop id="stop1" stop-color="rgba(248, 117, 55, 1)" offset="0%"></stop>
                            <stop id="stop2" stop-color="rgba(251, 168, 31, 1)" offset="100%"></stop>
                        </linearGradient>
                    </defs>
                <path fill="url(#sw-gradient)" d="M14.6,-30.5C17.3,-23.7,16.8,-16.6,17.9,-11.4C19.1,-6.3,21.9,-3.1,26.1,2.4C30.3,8,36,16,34,19.8C32.1,23.5,22.5,23,15.6,26.5C8.7,30,4.3,37.5,1,35.8C-2.4,34.1,-4.8,23.2,-9.4,18.4C-14,13.6,-20.9,14.8,-26.8,12.7C-32.7,10.7,-37.7,5.3,-35.7,1.2C-33.7,-3,-24.6,-6,-19.1,-8.8C-13.5,-11.5,-11.6,-14.1,-9,-21C-6.4,-27.8,-3.2,-38.8,1.4,-41.2C5.9,-43.6,11.9,-37.2,14.6,-30.5Z" width="100%" height="100%" transform="translate(50 50)" stroke-width="0" style="transition: all 0.3s ease 0s;"></path>
              </svg>